SplineFontDB: 3.0
FontName: Kinnari-Oblique
FullName: Kinnari Oblique
FamilyName: Kinnari
Weight: Medium
Copyright: Copyright (C) 1999 Db Type. All Rights Reserved.\nCopyright (C) 2007 National Electronics and Computer Technology Center. All Rights Reserved.
Version: 001.011: 2014-02-12
ItalicAngle: -12
UnderlinePosition: -70
UnderlineWidth: 25
Ascent: 800
Descent: 200
LayerCount: 2
Layer: 0 0 "Back"  1
Layer: 1 0 "Fore"  0
FSType: 0
OS2Version: 0
OS2_WeightWidthSlopeOnly: 0
OS2_UseTypoMetrics: 0
CreationTime: 1136287438
ModificationTime: 1392198377
PfmFamily: 17
TTFWeight: 500
TTFWidth: 5
LineGap: 0
VLineGap: 0
Panose: 0 0 0 0 0 0 0 0 0 0
OS2TypoAscent: 0
OS2TypoAOffset: 1
OS2TypoDescent: 0
OS2TypoDOffset: 1
OS2TypoLinegap: 0
OS2WinAscent: 1286
OS2WinAOffset: 0
OS2WinDescent: 496
OS2WinDOffset: 0
HheadAscent: 1286
HheadAOffset: 0
HheadDescent: -496
HheadDOffset: 0
OS2Vendor: 'PfEd'
Lookup: 4 0 1 "'liga' Standard Ligatures in Latin lookup 2"  {"'liga' Standard Ligatures in Latin lookup 2 subtable"  } ['liga' ('latn' <'dflt' > ) ]
Lookup: 6 0 0 "'ccmp' Thai Conditional Descender Removal"  {"'ccmp' Thai Conditional Descender Removal"  } ['ccmp' ('DFLT' <'dflt' > 'thai' <'KUY ' 'THA ' 'dflt' > ) ]
Lookup: 1 0 0 "'ccmp' Pali-Sanskrit Descender Removal"  {"'ccmp' Pali-Sanskrit Descender Removal" ("descless" ) } ['ccmp' ('thai' <'PAL ' 'SAN ' > ) ]
Lookup: 6 0 0 "'ccmp' Thai General Composition"  {"'ccmp' Thai Below Vowel Tone Reordering"  "'ccmp' Thai General Composition"  } ['ccmp' ('DFLT' <'dflt' > 'thai' <'KUY ' 'PAL ' 'SAN ' 'THA ' 'dflt' > ) ]
Lookup: 1 0 0 "Thai Descender Removal Single Substitution"  {"Thai Descender Removal Single Substitution" ("descless" ) } []
Lookup: 2 0 0 "Thai Sara Am Decomposition"  {"Thai Sara Am Decomposition"  } []
Lookup: 2 0 0 "Thai Tone Nikhahit Attachment"  {"Thai Tone Nikhahit Attachment"  } []
Lookup: 1 0 0 "Thai Sara Am Lakkhang"  {"Thai Sara Am Lakkhang"  } []

StartChar: .notdef
Encoding: 0 0 0
Width: 384
Flags: W
HStem: 0 23<28 366> 568 23<144 482>
DStem2: 0 0 23.1112 0 0.207912 0.978148<28.3189 585.527> 361.111 0 384 0 0.207912 0.978148<23.5138 580.722>
LayerCount: 2
Fore
SplineSet
144 568 m 1
 28 23 l 1
 366 23 l 1
 482 568 l 1
 144 568 l 1
384 0 m 1
 0 0 l 1
 126 591 l 1
 510 591 l 1
 384 0 l 1
EndSplineSet
EndChar

StartChar: exclam
Encoding: 33 33 2
Width: 333
Flags: W
HStem: -14 115<139.327 212.68> 656 20G<276.5 327>
VStem: 117 117<7.15637 78.8343> 233 118<535.438 635.896>
LayerCount: 2
Fore
SplineSet
351 630 m 0xd0
 351 598 340 572 333 547 c 1
 212 177 l 1
 198 177 l 1
 233 547 l 1
 237 569 242 676 311 676 c 0
 343 676 351 654 351 630 c 0xd0
234 54 m 0xe0
 234 13 194 -14 163 -14 c 0
 138 -14 117 5 117 31 c 0
 117 59 145 101 188 101 c 0
 216 101 234 81 234 54 c 0xe0
EndSplineSet
EndChar

StartChar: numbersign
Encoding: 35 35 4
Width: 499
Flags: W
HStem: 0 21G<78 144.189 272 337.097> 217 53<62 157 235 349 427 516> 404 55<129 227 305 418 496 581> 642 20G<313.709 379 503.709 568>
DStem2: 78 0 137 0 0.344588 0.938754<20.3307 230.932 307.564 430.6 509.11 705.19> 272 0 330 0 0.339575 0.940579<19.6953 230.253 306.59 429.572 507.791 703.822>
LayerCount: 2
Fore
SplineSet
581 404 m 1
 476 404 l 1
 427 270 l 1
 527 270 l 1
 516 217 l 1
 407 217 l 1
 330 0 l 1
 272 0 l 1
 349 217 l 1
 215 217 l 1
 137 0 l 1
 78 0 l 1
 157 217 l 1
 51 217 l 1
 62 270 l 1
 177 270 l 1
 227 404 l 1
 117 404 l 1
 129 459 l 1
 247 459 l 1
 321 662 l 1
 379 662 l 1
 305 459 l 1
 437 459 l 1
 511 662 l 1
 568 662 l 1
 496 459 l 1
 593 459 l 1
 581 404 l 1
418 404 m 1
 286 404 l 1
 235 270 l 1
 369 270 l 1
 418 404 l 1
EndSplineSet
EndChar

StartChar: dollar
Encoding: 36 36 5
Width: 499
Flags: W
HStem: 0 28<168.419 230 270 314.991> 636 26<322.758 365 405 448.922>
VStem: 83 15<147.296 181> 157 81<457.193 555.669> 413 85<129.323 239.306> 516 14<499 528.651>
DStem2: 211 -88 245 -88 0.207912 0.978148<7.069 90.0273 125.732 396.584 506.222 740.197 773.946 833.367>
LayerCount: 2
Fore
SplineSet
498 215 m 0
 498 129 430 13 264 0 c 1
 245 -88 l 1
 211 -88 l 1
 230 0 l 1
 164 0 104 17 56 51 c 1
 83 181 l 1
 98 181 l 1
 98 170 l 2
 98 83 142 29 236 28 c 1
 296 310 l 1
 236 349 157 396 157 479 c 0
 157 564 235 658 371 662 c 1
 385 727 l 1
 419 727 l 1
 405 662 l 1
 461 660 516 645 554 610 c 1
 530 499 l 1
 516 499 l 1
 516 509 l 2
 516 581 474 631 399 636 c 1
 347 390 l 1
 416 348 498 307 498 215 c 0
365 636 m 1
 327 636 238 586 238 512 c 0
 238 461 282 437 317 407 c 1
 365 636 l 1
270 28 m 1
 371 41 413 121 413 177 c 0
 413 233 369 267 326 293 c 1
 270 28 l 1
EndSplineSet
EndChar

StartChar: percent
Encoding: 37 37 6
Width: 832
Flags: W
HStem: -14 31<551.158 633.875> 287 36<226.022 305.188> 324 32<695.985 783.413> 585 22<507.218 632.594> 633 29<382.13 441.135> 656 20G<708.5 777>
VStem: 146 72<328.458 450.646> 469 71<23.4203 139.201> 478 24<520.363 593> 799 27<209.777 306.098>
DStem2: 198 -14 246 -14 0.609877 0.792496<29.2741 788.478 805.403 870.667>
LayerCount: 2
Fore
SplineSet
146 380 m 0xf6c0
 146 515 302 662 417 662 c 0xfac0
 502 662 465 607 565 607 c 0
 625 607 688 633 729 676 c 1
 777 676 l 1
 246 -14 l 1
 198 -14 l 1
 680 610 l 1
 637 594 590 585 553 585 c 0
 532 585 515 588 502 593 c 1
 499 578 502 556 499 539 c 0
 470 404 328 287 241 287 c 0
 178 287 146 321 146 380 c 0xf6c0
469 74 m 0xf340
 469 216 626 356 741 356 c 0
 799 356 826 315 826 270 c 0
 826 263 826 255 824 247 c 0
 790 91 659 -14 573 -14 c 0
 494 -14 469 23 469 74 c 0xf340
269 323 m 1
 385 334 478 502 478 574 c 0
 478 582 477 590 477 599 c 1
 442 610 433 633 416 633 c 0xfac0
 379 633 250 533 221 396 c 0
 219 386 218 377 218 369 c 0
 218 341 231 323 269 323 c 1
591 17 m 0
 691 17 799 188 799 264 c 0
 799 296 782 324 745 324 c 0
 651 324 540 132 540 64 c 0xf340
 540 35 556 17 591 17 c 0
EndSplineSet
EndChar

StartChar: ampersand
Encoding: 38 38 7
Width: 777
Flags: W
HStem: -14 72<585.73 672.498> -14 54<208.446 323.676> 407 18<585 619.644 757.636 797> 644 32<445.184 537.894>
VStem: 69 99<81.6055 187.62> 308 86<416.79 560.522> 559 52<515.326 628.921>
LayerCount: 2
Fore
SplineSet
505 178 m 1x7e
 567 238 636 324 636 371 c 0
 636 392 622 404 582 407 c 1
 585 425 l 1
 800 425 l 1
 797 407 l 1
 732 399 710 373 673 323 c 1
 622 257 547 174 524 147 c 1
 554 101 591 58 656 58 c 0
 696 58 730 80 758 111 c 1
 771 100 l 1
 708 26 664 -14 596 -14 c 0xbe
 527 -14 482 31 446 78 c 1
 378 25 295 -14 217 -14 c 0
 122 -14 69 27 69 102 c 0
 69 252 249 345 317 376 c 1
 312 406 308 435 308 465 c 0
 308 589 401 676 499 676 c 0
 562 676 611 643 611 583 c 0
 611 504 543 433 418 384 c 1
 439 312 468 243 505 178 c 1x7e
409 416 m 1
 490 451 559 513 559 577 c 0
 559 614 535 644 496 644 c 0
 425 644 394 575 394 517 c 0
 394 482 402 442 409 416 c 1
426 104 m 1
 382 177 351 260 325 343 c 1
 308 334 168 265 168 147 c 0
 168 89 212 40 272 40 c 0x7e
 313 40 376 68 426 104 c 1
EndSplineSet
EndChar

StartChar: quotesingle
Encoding: 39 39 8
Width: 179
Flags: W
HStem: 444 240<193.125 194>
LayerCount: 2
Fore
SplineSet
270 641 m 2
 194 444 l 1
 174 444 l 1
 184 641 l 1
 184 641 191 684 236 684 c 0
 255 684 272 668 272 651 c 0
 272 648 271 644 270 641 c 2
EndSplineSet
EndChar

StartChar: parenleft
Encoding: 40 40 9
Width: 333
Flags: W
HStem: 656 20G<292 444>
VStem: 92 76<15.559 262.761>
LayerCount: 2
Fore
SplineSet
270 -161 m 1
 254 -177 l 1
 165 -107 92 -2 92 148 c 0
 92 277 145 516 439 676 c 1
 444 659 l 1
 291 567 224 424 191 269 c 0
 178 206 168 145 168 88 c 0
 168 -4 193 -87 270 -161 c 1
EndSplineSet
EndChar

StartChar: parenright
Encoding: 41 41 10
Width: 333
Flags: W
HStem: 656 20G<169 200>
VStem: 272 74<238.077 483.141>
LayerCount: 2
Fore
SplineSet
346 346 m 0
 346 86 161 -93 0 -177 c 1
 -5 -161 l 1
 150 -68 216 74 249 229 c 0
 262 293 272 356 272 415 c 0
 272 510 247 595 169 659 c 1
 185 676 l 1
 215 659 346 552 346 346 c 0
EndSplineSet
EndChar

StartChar: asterisk
Encoding: 42 42 11
Width: 499
Flags: W
HStem: 351 81<157.898 217.167> 502 79<481.201 541.402> 522 74<194.227 266.508> 663 20G<385 407>
VStem: 186 86<531.709 588.041> 269 71<270.341 346.72> 354 74<603.388 676.605> 426 87<354.015 409.801>
LayerCount: 2
Fore
SplineSet
186 549 m 0xb8
 186 573 208 596 232 596 c 0
 253 596 270 578 272 564 c 0
 276 544 313 511 343 482 c 1
 352 522 354 553 354 577 c 0
 354 610 350 630 350 641 c 0
 350 658 373 683 397 683 c 0
 417 683 428 669 428 649 c 0xba
 428 635 420 616 410 607 c 0
 392 590 377 536 360 482 c 1
 417 505 459 539 495 573 c 1
 503 578 513 581 524 581 c 0
 542 581 554 571 554 555 c 0
 554 537 538 502 489 502 c 0
 460 502 425 486 365 467 c 1
 471 404 513 436 513 391 c 0
 513 363 486 346 467 346 c 0
 446 346 428 363 426 378 c 0xd1
 423 398 384 430 354 458 c 1
 348 434 l 1
 342 405 340 380 340 360 c 0
 340 336 343 318 343 308 c 0
 343 285 320 265 300 265 c 0
 289 265 269 272 269 296 c 0xd6
 269 305 274 329 286 341 c 0
 303 358 321 412 338 458 c 1
 220 394 212 351 177 351 c 0
 158 351 145 363 145 381 c 0
 145 404 170 432 212 432 c 0
 234 432 263 440 332 470 c 1
 290 499 247 513 205 522 c 0
 193 524 186 536 186 549 c 0xb8
EndSplineSet
EndChar

StartChar: plus
Encoding: 43 43 12
Width: 563
Flags: W
HStem: 238 65<95 301 377 584>
DStem2: 254 17 317 17 0.207912 0.978148<13.0984 225.942 305.323 515.233>
LayerCount: 2
Fore
SplineSet
584 238 m 1
 364 238 l 1
 317 17 l 1
 254 17 l 1
 301 238 l 1
 82 238 l 1
 95 303 l 1
 314 303 l 1
 361 521 l 1
 424 521 l 1
 377 303 l 1
 597 303 l 1
 584 238 l 1
EndSplineSet
EndChar

StartChar: comma
Encoding: 44 44 13
Width: 250
Flags: W
VStem: 53 154<7.16072 98.4964>
LayerCount: 2
Fore
SplineSet
53 44 m 0
 53 67 70 126 138 126 c 0
 189 126 207 88 207 47 c 0
 207 -51 94 -125 43 -146 c 1
 35 -118 l 1
 79 -100 138 -41 146 -6 c 0
 147 0 150 5 144 5 c 0
 137 5 127 -3 110 -3 c 0
 76 -3 53 15 53 44 c 0
EndSplineSet
EndChar

StartChar: hyphen
Encoding: 45 45 14
Width: 333
Flags: W
HStem: 238 63<107 340>
VStem: 94 259
LayerCount: 2
Fore
SplineSet
340 238 m 1
 94 238 l 1
 107 301 l 1
 353 301 l 1
 340 238 l 1
EndSplineSet
EndChar

StartChar: period
Encoding: 46 46 15
Width: 250
Flags: W
HStem: -12 144<98.2853 179.144>
VStem: 65 147<21.75 99.1107>
LayerCount: 2
Fore
SplineSet
65 44 m 0
 65 91 109 132 154 132 c 0
 189 132 212 108 212 75 c 0
 212 29 167 -12 123 -12 c 0
 89 -12 65 12 65 44 c 0
EndSplineSet
EndChar

StartChar: slash
Encoding: 47 47 16
Width: 278
Flags: W
HStem: 662 20G<374.367 448>
DStem2: -35 -108 28 -108 0.469428 0.882971<29.5739 894.707>
LayerCount: 2
Fore
SplineSet
448 682 m 1
 28 -108 l 1
 -35 -108 l 1
 385 682 l 1
 448 682 l 1
EndSplineSet
EndChar

StartChar: zero
Encoding: 48 48 17
Width: 537
Flags: W
HStem: -14 28<224.405 323.769> 650 26<361.938 450.157>
VStem: 97 87<81.11 312.577> 489 89<339.212 579.389>
LayerCount: 2
Fore
SplineSet
578 457 m 0
 578 266 466 -14 258 -14 c 0
 150 -14 97 75 97 204 c 0
 97 378 199 676 410 676 c 0
 525 676 578 587 578 457 c 0
465 326 m 0
 480 396 489 462 489 515 c 0
 489 597 467 650 410 650 c 0
 298 650 240 481 205 313 c 0
 193 255 184 197 184 148 c 0
 184 70 206 14 272 14 c 0
 385 14 433 172 465 326 c 0
EndSplineSet
EndChar

StartChar: one
Encoding: 49 49 18
Width: 537
Flags: W
HStem: 0 14<144 196.224 366.896 415> 656 20G<421.701 460.738>
VStem: 141 324
DStem2: 234.995 0 320.995 0 0.207912 0.978148<77.8458 571.512>
LayerCount: 2
Fore
SplineSet
415 0 m 1
 141 0 l 1
 144 14 l 1
 225 18 243 37 252 80 c 2
 347 528 l 2
 350 541 351 552 351 560 c 0
 351 580 344 587 329 587 c 0
 313 587 287 577 252 565 c 1
 255 579 l 1
 465 676 l 1
 338 80 l 2
 336 72 335 65 335 58 c 0
 335 30 354 17 418 14 c 1
 415 0 l 1
EndSplineSet
EndChar

StartChar: two
Encoding: 50 50 19
Width: 537
Flags: W
HStem: 0 77<167 442> 604 72<312.093 421.759>
VStem: 463 94<446.685 564.697>
DStem2: 57 14 167 77 0.758221 0.651997<124.48 425.155>
LayerCount: 2
Fore
SplineSet
527 137 m 1
 442 0 l 1
 54 0 l 1
 57 14 l 1
 264 192 l 1
 328 249 463 375 463 497 c 0
 463 563 421 604 346 604 c 0
 268 604 215 539 176 473 c 1
 156 479 l 1
 200 593 291 676 413 676 c 0
 498 676 557 618 557 538 c 0
 557 420 452 320 362 243 c 2
 167 77 l 1
 380 77 l 2
 454 77 462 80 515 143 c 1
 527 137 l 1
EndSplineSet
EndChar

StartChar: three
Encoding: 51 51 20
Width: 537
Flags: W
HStem: -14 36<162 289.791> 330 14<248 264.95> 616 60<314.034 428.054>
VStem: 423 82<166.464 284.817> 452 86<496.922 592.017>
LayerCount: 2
Fore
SplineSet
505 270 m 0xf0
 505 100 349 -14 180 -14 c 0
 144 -14 76 -11 76 33 c 0
 76 57 94 77 120 77 c 0
 170 77 192 22 252 22 c 0
 351 22 423 114 423 218 c 0xf0
 423 295 369 330 247 330 c 1
 248 344 l 1
 434 398 452 498 452 536 c 0
 452 585 418 616 363 616 c 0
 297 616 243 579 192 511 c 1
 178 516 l 1
 231 616 313 676 408 676 c 0
 497 676 538 636 538 576 c 0xe8
 538 472 440 418 412 402 c 1
 474 374 505 334 505 270 c 0xf0
EndSplineSet
EndChar

StartChar: four
Encoding: 52 52 21
Width: 537
Flags: W
HStem: 0 21G<315 396.192> 167 63<123 350 441 528> 656 20G<471.749 536>
DStem2: 83 230 123 230 0.674073 0.738665<26.9629 489.094> 315 0 392 0 0.207912 0.978148<16.0092 170.628 251.171 582.701>
LayerCount: 2
Fore
SplineSet
528 167 m 1
 427 167 l 1
 392 0 l 1
 315 0 l 1
 350 167 l 1
 69 167 l 1
 83 230 l 1
 490 676 l 1
 536 676 l 1
 441 230 l 1
 542 230 l 1
 528 167 l 1
364 230 m 1
 436 570 l 1
 123 230 l 1
 364 230 l 1
EndSplineSet
EndChar

StartChar: five
Encoding: 53 53 22
Width: 537
Flags: W
HStem: -14 36<157.5 285.049> 582 80<338 537>
VStem: 425 81<186.013 316.411>
DStem2: 178 424 269 498 0.557915 0.829898<112.183 214.811>
LayerCount: 2
Fore
SplineSet
245 22 m 0
 359 22 425 152 425 240 c 0
 425 362 299 405 188 412 c 0
 179 413 175 418 178 424 c 2
 338 662 l 1
 534 662 l 2
 565 662 573 662 598 687 c 1
 606 680 l 1
 537 582 l 1
 328 582 l 1
 269 498 l 1
 400 476 506 439 506 303 c 0
 506 105 345 -14 177 -14 c 0
 138 -14 64 -11 64 37 c 0
 64 68 88 84 118 84 c 0
 181 84 191 22 245 22 c 0
EndSplineSet
EndChar

StartChar: six
Encoding: 54 54 23
Width: 537
Flags: W
HStem: -14 28<250.071 350.227> 382 45<300.56 412.007> 664 18<570.01 611>
VStem: 106 88<81.6757 294.254> 448 95<168.693 343.125>
LayerCount: 2
Fore
SplineSet
543 281 m 0
 543 135 433 -14 283 -14 c 0
 179 -14 106 58 106 186 c 0
 106 391 271 635 553 674 c 0
 571 676 587 682 613 682 c 1
 611 664 l 1
 578 656 548 653 510 636 c 0
 412 594 305 518 256 382 c 1
 301 410 348 427 395 427 c 0
 491 427 543 373 543 281 c 0
304 14 m 0
 393 14 448 144 448 255 c 0
 448 322 425 382 348 382 c 0
 314 382 276 370 244 350 c 1
 213 324 194 209 194 158 c 0
 194 72 229 14 304 14 c 0
EndSplineSet
EndChar

StartChar: seven
Encoding: 55 55 24
Width: 537
Flags: W
HStem: -14 21G<191 265.741> 587 75<244 518>
DStem2: 191 -14 255 -14 0.473146 0.880984<30.2813 684.19>
LayerCount: 2
Fore
SplineSet
610 647 m 1
 255 -14 l 1
 191 -14 l 1
 518 587 l 1
 312 587 l 2
 239 587 219 568 168 507 c 1
 152 515 l 1
 244 662 l 1
 613 662 l 1
 610 647 l 1
EndSplineSet
EndChar

StartChar: eight
Encoding: 56 56 25
Width: 537
Flags: W
HStem: -14 25<229.895 336.714> 650 26<347.809 453.566>
VStem: 105 77<46.117 197.352> 190 82<459.806 564.831> 419 83<105.784 216.099> 492 70<489.595 623.772>
LayerCount: 2
Fore
SplineSet
502 189 m 0xf8
 502 75 390 -14 263 -14 c 0
 176 -14 105 32 105 117 c 0
 105 230 216 293 277 332 c 1
 235 383 190 414 190 484 c 0
 190 603 305 676 417 676 c 0
 489 676 562 639 562 565 c 0xf4
 562 449 426 389 389 372 c 1
 441 323 502 270 502 189 c 0xf8
364 390 m 1
 437 425 492 495 492 564 c 0
 492 617 458 650 402 650 c 0
 338 650 272 600 272 527 c 0
 272 466 322 420 364 390 c 1
283 11 m 0
 365 11 419 85 419 150 c 0xf8
 419 224 347 271 298 312 c 1
 247 281 182 212 182 116 c 0
 182 55 213 11 283 11 c 0
EndSplineSet
EndChar

StartChar: nine
Encoding: 57 57 26
Width: 537
Flags: W
HStem: -23 20<79 124.688> 237 43<270.859 378.032> 650 26<344.035 439.871>
VStem: 142 96<314.06 490.888> 486 87<370.75 585.035>
LayerCount: 2
Fore
SplineSet
411 676 m 0
 476 676 573 638 573 473 c 0
 573 400 556 341 532 292 c 0
 479 186 366 63 235 12 c 0
 172 -12 109 -23 78 -23 c 1
 79 -3 l 1
 143 8 240 35 326 124 c 0
 373 174 417 233 444 292 c 1
 385 257 333 237 283 237 c 0
 195 237 142 291 142 383 c 0
 142 515 245 676 411 676 c 0
391 650 m 0
 278 650 238 476 238 398 c 0
 238 335 260 280 333 280 c 0
 366 280 426 303 452 330 c 1
 462 357 486 445 486 516 c 0
 486 585 466 650 391 650 c 0
EndSplineSet
EndChar

StartChar: colon
Encoding: 58 58 27
Width: 278
Flags: W
HStem: -12 144<112.285 193.144> 324 144<183.856 264.319>
VStem: 79 147<21.75 99.1107> 151 147<356.889 434.256>
LayerCount: 2
Fore
SplineSet
151 381 m 0xd0
 151 420 188 468 239 468 c 0
 274 468 298 444 298 412 c 0
 298 365 254 324 209 324 c 0
 174 324 151 348 151 381 c 0xd0
79 44 m 0xe0
 79 91 123 132 168 132 c 0
 203 132 226 108 226 75 c 0
 226 29 181 -12 137 -12 c 0
 103 -12 79 12 79 44 c 0xe0
EndSplineSet
EndChar

StartChar: semicolon
Encoding: 59 59 28
Width: 278
Flags: W
HStem: 5 121<110.599 184.87> 324 144<171.501 252.824>
VStem: 69 155<5.9249 98.6825> 138 148<357.308 435.111>
LayerCount: 2
Fore
SplineSet
69 46 m 0xe0
 69 67 86 126 153 126 c 0
 207 126 224 97 224 58 c 0
 224 -23 169 -98 58 -146 c 1
 50 -118 l 1
 94 -100 153 -45 162 -6 c 0
 163 0 165 5 159 5 c 0
 153 5 142 -3 125 -3 c 0
 91 -3 69 16 69 46 c 0xe0
138 382 m 0xd0
 138 430 185 468 226 468 c 0
 261 468 286 444 286 411 c 0
 286 363 241 324 196 324 c 0
 162 324 138 349 138 382 c 0xd0
EndSplineSet
EndChar

StartChar: less
Encoding: 60 60 29
Width: 563
Flags: W
HStem: 0 21G<496.687 540.127>
DStem2: 163 261 78 233 0.891292 -0.45343<0 433.818> 89 287 163 261 0.921604 0.388131<58.1073 569.033>
LayerCount: 2
Fore
SplineSet
536 0 m 1
 78 233 l 1
 89 287 l 1
 647 522 l 1
 634 459 l 1
 163 261 l 1
 549 63 l 1
 536 0 l 1
EndSplineSet
EndChar

StartChar: equal
Encoding: 61 61 30
Width: 563
Flags: W
HStem: 132 65<73 561> 326 64<114 602>
LayerCount: 2
Fore
SplineSet
602 326 m 1
 100 326 l 1
 114 390 l 1
 616 390 l 1
 602 326 l 1
561 132 m 1
 59 132 l 1
 73 197 l 1
 575 197 l 1
 561 132 l 1
EndSplineSet
EndChar

StartChar: greater
Encoding: 62 62 31
Width: 563
Flags: W
HStem: 0 21G<32.127 75.897>
DStem2: 41 63 28 0 0.922783 0.38532<0 509.079> 139 522 126 459 0.889716 -0.456514<17.1941 449.235>
LayerCount: 2
Fore
SplineSet
586 233 m 1
 28 0 l 1
 41 63 l 1
 510 261 l 1
 126 459 l 1
 139 522 l 1
 597 287 l 1
 586 233 l 1
EndSplineSet
EndChar

StartChar: question
Encoding: 63 63 32
Width: 443
Flags: W
HStem: -14 115<189.425 260.642> 647 29<284.389 380.257>
VStem: 160 65<491.995 581.704> 166 117<8.49875 77.2752> 242 17<164 179.338> 417 91<469.917 618.876>
LayerCount: 2
Fore
SplineSet
333 647 m 0xec
 293 647 225 620 225 580 c 0
 225 560 247 548 247 521 c 0
 247 490 224 470 194 470 c 0
 168 470 160 490 160 512 c 0
 160 599 256 676 361 676 c 0
 459 676 508 616 508 549 c 0
 508 471 445 406 394 355 c 2
 356 316 l 2
 310 270 280 223 259 164 c 1
 242 164 l 1
 277 330 417 418 417 553 c 0
 417 604 391 647 333 647 c 0xec
283 54 m 0xd4
 283 17 243 -14 214 -14 c 0
 187 -14 166 7 166 33 c 0
 166 70 208 101 238 101 c 0
 262 101 283 81 283 54 c 0xd4
EndSplineSet
EndChar

StartChar: at
Encoding: 64 64 33
Width: 920
Flags: W
HStem: -155 40<342.778 603.71> 41 43<380.699 486.362 645.922 742.775> 427 46<559.627 653.791> 439 20G<704.612 800> 636 38<531.853 738.266>
VStem: 99 93<36.5236 281.344> 313 91<89.5875 231.799> 568 76<87.8613 123> 905 42<291.411 484.418>
LayerCount: 2
Fore
SplineSet
947 407 m 0xdf80
 947 215 785 40 668 40 c 0
 633 40 571 49 568 123 c 1
 523 72 453 41 410 41 c 0
 352 41 313 69 313 136 c 0
 313 286 479 473 611 473 c 0xef80
 663 473 687 436 691 410 c 1
 714 459 l 1
 800 459 l 1
 652 144 l 1
 646 135 644 125 644 116 c 0
 644 95 662 83 685 83 c 0
 761 83 905 234 905 389 c 0
 905 539 777 636 636 636 c 0
 422 636 240 421 204 249 c 0
 197 215 192 178 192 141 c 0
 192 13 250 -115 471 -115 c 0
 567 -115 690 -78 757 -23 c 1
 724 -88 l 1
 724 -88 617 -155 460 -155 c 0
 282 -155 99 -65 99 156 c 0
 99 187 102 221 110 257 c 0
 145 424 338 674 644 674 c 0
 757 674 947 607 947 407 c 0xdf80
553 147 m 0
 559 154 659 289 659 378 c 0
 659 416 639 427 616 427 c 0
 563 427 444 341 409 175 c 0
 406 159 404 145 404 133 c 0
 404 99 419 84 451 84 c 0
 486 84 538 127 553 147 c 0
EndSplineSet
EndChar

StartChar: A
Encoding: 65 65 34
Width: 721
Flags: W
HStem: 0 20<19 52.4863 169.27 214 454 513.374 672.96 705> 217 40<272 502> 656 20G<478.303 515.437>
DStem2: 185 194 246 217 0.535968 0.844238<-133.21 52.1115 99.8163 422.788> 511 676 443 531 0.216561 -0.976269<126.833 407.108 447.241 596.841>
LayerCount: 2
Fore
SplineSet
246 217 m 1
 225 181 156 86 156 53 c 0
 156 27 187 20 218 20 c 1
 214 0 l 1
 15 0 l 1
 19 20 l 1
 82 25 124 97 185 194 c 2
 491 676 l 1
 511 676 l 1
 635 117 l 2
 651 44 665 20 709 20 c 1
 705 0 l 1
 450 0 l 1
 454 20 l 1
 509 22 534 30 534 69 c 0
 534 85 530 105 524 131 c 2
 507 217 l 1
 246 217 l 1
502 257 m 1
 443 531 l 1
 272 257 l 1
 502 257 l 1
EndSplineSet
EndChar

StartChar: B
Encoding: 66 66 35
Width: 666
Flags: W
HStem: 0 37<239.182 413.768> 0 20<24 88.6361> 326 40<296 457.818> 622 40<347.191 519.078> 642 20<161 216.694>
VStem: 524 114<131.492 276.569> 567 104<445.129 584.583>
DStem2: 116.995 0 217.657 0 0.207912 0.978148<95.192 354.222 395.219 607.759>
LayerCount: 2
Fore
SplineSet
638 215 m 0x34
 638 129 564 0 335 0 c 2xb4
 20 0 l 1
 24 20 l 1
 105 20 128 51 134 80 c 2
 241 582 l 2
 242 586 242 590 242 595 c 0
 242 619 225 642 156 642 c 1
 161 662 l 1x6c
 428 662 l 2
 567 662 671 629 671 529 c 0x32
 671 466 638 379 503 347 c 1
 575 332 638 290 638 215 c 0x34
378 366 m 2
 532 366 567 464 567 525 c 0x32
 567 617 469 622 403 622 c 0
 365 622 349 616 344 593 c 2
 296 366 l 1
 378 366 l 2
520 184 m 0
 523 196 524 206 524 216 c 0
 524 308 422 326 336 326 c 2
 287 326 l 1
 237 91 l 2
 236 84 235 77 235 72 c 0
 235 49 250 37 308 37 c 0xa4
 412 37 495 68 520 184 c 0
EndSplineSet
EndChar

StartChar: C
Encoding: 67 67 36
Width: 666
Flags: W
HStem: -14 45<300.027 490.761> 450 21G<693.5 723.482> 634 42<418.481 609.689>
VStem: 94 115<131.193 370.146> 697 23<450 490.205> 737 22<658.005 674>
LayerCount: 2
Fore
SplineSet
519 634 m 0
 271 634 209 337 209 241 c 0
 209 129 262 31 393 31 c 0
 491 31 563 63 647 131 c 1
 660 111 l 1
 584 37 470 -14 373 -14 c 0
 208 -14 94 78 94 242 c 0
 94 467 278 676 519 676 c 0
 610 676 655 639 690 639 c 0
 707 639 722 647 737 674 c 1
 759 674 l 1
 720 450 l 1
 697 450 l 1
 690 559 634 634 519 634 c 0
EndSplineSet
EndChar

StartChar: D
Encoding: 68 68 37
Width: 721
Flags: W
HStem: 0 40<231.136 405.365> 0 20<24 83.0679> 624 38<342.086 515.315> 642 20<161 210.799>
VStem: 658 110<289.376 505.923>
DStem2: 107.995 0 209.657 0 0.207912 0.978148<100.244 608.945>
LayerCount: 2
Fore
SplineSet
768 414 m 0x28
 768 273 683 0 286 0 c 2xa8
 20 0 l 1
 24 20 l 1
 98 20 119 51 125 80 c 2
 232 582 l 2
 233 587 234 591 234 596 c 0
 234 620 218 642 156 642 c 1
 161 662 l 1x58
 419 662 l 2
 639 662 768 581 768 414 c 0x28
285 40 m 0
 582 40 658 281 658 407 c 0
 658 551 558 624 400 624 c 0
 353 624 342 622 332 573 c 2
 229 91 l 2
 228 86 227 81 227 77 c 0
 227 41 264 40 285 40 c 0
EndSplineSet
EndChar

StartChar: E
Encoding: 69 69 38
Width: 609
Flags: W
HStem: 0 41<218.076 493.71> 0 20<16 74.1797> 326 41<281 494.444> 621 41<335.37 600.173> 642 20<153 202.008>
VStem: 631 21<519 551.29>
DStem2: 99.9955 0 202.995 0 0.207912 0.978148<87.3661 354.638 396.613 607.804>
LayerCount: 2
Fore
SplineSet
632 169 m 1xb4
 551 0 l 1
 12 0 l 1
 16 20 l 1
 88 20 111 51 117 80 c 2
 224 582 l 2
 225 586 225 591 225 595 c 0
 225 619 209 642 148 642 c 1
 153 662 l 1
 683 662 l 1x6c
 652 519 l 1
 631 519 l 1
 631 573 608 621 539 621 c 2
 378 621 l 2
 353 621 332 607 327 582 c 2
 281 367 l 1
 421 367 l 2
 488 367 549 384 565 462 c 1
 585 462 l 1
 536 229 l 1
 516 229 l 1
 518 239 519 247 519 255 c 0
 519 311 471 326 412 326 c 2
 272 326 l 1
 220 80 l 2
 219 75 218 69 218 64 c 0
 218 52 222 41 236 41 c 2
 368 41 l 2
 448 41 525 43 604 169 c 1
 632 169 l 1xb4
EndSplineSet
EndChar

StartChar: F
Encoding: 70 70 39
Width: 556
Flags: W
HStem: 0 20<16 74.1797 239.84 292> 326 41<281 485.218> 621 41<333.732 612.164> 642 20<153 202.008>
VStem: 629 25<519 542.671>
DStem2: 99.9955 0 202.995 0 0.207912 0.978148<88.3435 354.638 396.613 607.804>
LayerCount: 2
Fore
SplineSet
654 519 m 1xd8
 629 519 l 1
 630 528 630 536 630 543 c 0
 630 617 587 621 532 621 c 2
 376 621 l 2xe8
 342 621 332 605 327 582 c 2
 281 367 l 1
 411 367 l 2
 479 367 540 384 556 462 c 1
 577 462 l 1
 528 229 l 1
 507 229 l 1
 509 238 510 247 510 255 c 0
 510 311 462 326 402 326 c 2
 272 326 l 1
 220 80 l 2
 219 75 218 70 218 65 c 0
 218 41 234 20 296 20 c 1
 292 0 l 1
 12 0 l 1
 16 20 l 1
 88 20 111 51 117 80 c 2
 224 582 l 2
 225 586 225 591 225 595 c 0
 225 619 209 642 148 642 c 1
 153 662 l 1
 685 662 l 1
 654 519 l 1xd8
EndSplineSet
EndChar

StartChar: G
Encoding: 71 71 40
Width: 721
Flags: W
HStem: -14 42<303.236 508.96> 336 20<525 576.229 727.647 774> 636 40<415.774 607.952>
VStem: 89 113<137.129 367.089> 701 22<464 504.108>
DStem2: 533.523 -14 629.909 -14 0.207912 0.978148<77.4101 308.608>
LayerCount: 2
Fore
SplineSet
514 636 m 0
 282 636 202 360 202 239 c 0
 202 121 264 28 401 28 c 0
 438 28 480 34 517 49 c 0
 549 63 551 69 557 98 c 2
 589 247 l 2
 592 263 595 277 595 289 c 0
 595 320 579 336 520 336 c 1
 525 356 l 1
 779 356 l 1
 774 336 l 1
 710 336 698 304 686 247 c 2
 645 57 l 1
 581 25 461 -14 379 -14 c 0
 230 -14 89 68 89 246 c 0
 89 462 271 676 514 676 c 0
 595 676 650 643 689 643 c 0
 709 643 724 651 738 676 c 1
 760 676 l 1
 723 464 l 1
 701 464 l 1
 685 570 633 636 514 636 c 0
EndSplineSet
EndChar

StartChar: H
Encoding: 72 72 41
Width: 721
Flags: W
HStem: 0 20<24 83.0679 246.647 298 428 487.341 651.992 702> 318 41<286 581> 642 20<158 210.799 375.205 434 565 615.16 780.094 838>
DStem2: 107.995 0 209.995 0 0.207912 0.978148<88.1356 346.397 388.164 608.945> 512.995 0 613.995 0 0.207912 0.978148<88.9051 325.19 366.957 608.011>
LayerCount: 2
Fore
SplineSet
702 0 m 1
 424 0 l 1
 428 20 l 1
 502 20 524 51 530 80 c 2
 581 318 l 1
 278 318 l 1
 227 80 l 2
 226 75 225 70 225 65 c 0
 225 41 241 20 302 20 c 1
 298 0 l 1
 20 0 l 1
 24 20 l 1
 98 20 119 51 125 80 c 2
 232 582 l 2
 233 587 234 591 234 596 c 0
 234 620 218 642 156 642 c 1
 158 662 l 1
 439 662 l 1
 434 642 l 1
 360 642 340 610 334 582 c 2
 286 359 l 1
 589 359 l 1
 637 582 l 2
 638 586 639 591 639 595 c 0
 639 619 622 642 560 642 c 1
 565 662 l 1
 843 662 l 1
 838 642 l 1
 766 642 744 610 738 582 c 2
 631 80 l 2
 630 75 629 71 629 66 c 0
 629 42 645 20 706 20 c 1
 702 0 l 1
EndSplineSet
EndChar

StartChar: I
Encoding: 73 73 42
Width: 333
Flags: W
HStem: 0 20<22 88.0708 258.515 316> 642 20<159 216.276 386.476 452>
DStem2: 116.995 0 217.995 0 0.207912 0.978148<88.9051 607.759>
LayerCount: 2
Fore
SplineSet
316 0 m 1
 18 0 l 1
 22 20 l 1
 105 20 128 51 134 80 c 2
 241 582 l 2
 242 586 242 590 242 595 c 0
 242 619 225 642 154 642 c 1
 159 662 l 1
 457 662 l 1
 452 642 l 1
 369 642 348 610 342 582 c 2
 235 80 l 2
 234 75 233 71 233 66 c 0
 233 42 250 20 320 20 c 1
 316 0 l 1
EndSplineSet
EndChar

StartChar: J
Encoding: 74 74 43
Width: 388
Flags: W
HStem: -14 39<71.5 169.56> 642 20<219 276.276 446.476 512>
VStem: 23 99<25.1645 92.7153>
DStem2: 173.793 -14 274.938 -14 0.207912 0.978148<114.489 622.119>
LayerCount: 2
Fore
SplineSet
122 82 m 0
 122 77 116 72 116 58 c 0
 116 41 125 25 140 25 c 0
 169 25 192 72 201 114 c 2
 301 582 l 2
 302 586 302 590 302 595 c 0
 302 619 285 642 214 642 c 1
 219 662 l 1
 517 662 l 1
 512 642 l 1
 429 642 408 610 402 582 c 2
 320 198 l 2
 290 57 201 -14 109 -14 c 0
 34 -14 23 26 23 48 c 0
 23 82 55 108 81 108 c 0
 106 108 122 92 122 82 c 0
EndSplineSet
EndChar

StartChar: K
Encoding: 75 75 44
Width: 721
Flags: W
HStem: 0 20<24 84.3318 250.62 303 408 471.291 665.953 708> 642 20<161 212.38 378.78 440 540 589.776 736.865 796>
DStem2: 110.995 0 211.995 0 0.207912 0.978148<88.8607 323.63 375.803 607.804>
LayerCount: 2
Fore
SplineSet
708 0 m 1
 404 0 l 1
 408 20 l 1
 451 20 484 26 484 48 c 0
 484 89 387 214 382 221 c 2
 305 316 l 1
 275 296 l 1
 229 80 l 2
 228 75 227 70 227 66 c 0
 227 42 243 20 307 20 c 1
 303 0 l 1
 20 0 l 1
 24 20 l 1
 99 20 122 51 128 80 c 2
 235 582 l 2
 236 586 236 591 236 595 c 0
 236 619 220 642 156 642 c 1
 161 662 l 1
 445 662 l 1
 440 642 l 1
 363 642 342 610 336 582 c 2
 286 347 l 1
 335 387 586 562 596 608 c 0
 597 611 597 614 597 616 c 0
 597 644 558 641 535 642 c 1
 540 662 l 1
 801 662 l 1
 796 642 l 1
 723 642 676 604 617 556 c 2
 399 376 l 1
 573 137 l 1
 613 78 641 20 712 20 c 1
 708 0 l 1
EndSplineSet
EndChar

StartChar: L
Encoding: 76 76 45
Width: 609
Flags: W
HStem: 0 41<223.232 489.206> 0 20<16 74.1797> 642 20<153 202.008 367.923 426>
DStem2: 99.9955 0 202.995 0 0.207912 0.978148<97.2172 607.804>
LayerCount: 2
Fore
SplineSet
635 174 m 1xa0
 550 0 l 1
 12 0 l 1
 16 20 l 1x60
 88 20 111 51 117 80 c 2
 224 582 l 2
 225 586 225 591 225 595 c 0
 225 619 209 642 148 642 c 1
 153 662 l 1
 431 662 l 1
 426 642 l 1
 353 642 333 610 327 582 c 2
 220 80 l 2
 220 78 219 76 219 74 c 0
 219 50 254 41 312 41 c 2
 333 41 l 2
 448 41 531 45 610 174 c 1
 635 174 l 1xa0
EndSplineSet
EndChar

StartChar: M
Encoding: 77 77 46
Width: 887
Flags: W
HStem: 0 20<24 88.6361 200.306 257 597 654.906 819.783 869> 642 20<163 217.113 946.923 1005>
DStem2: 116.995 0 159.995 0 0.207912 0.978148<76.8463 566.149> 361 662 276 545 0.238761 -0.971078<93.3215 519.523> 483 157 424 0 0.553007 0.833177<0 518.292> 679.995 0 781.995 0 0.207912 0.978148<89.0686 580.746>
LayerCount: 2
Fore
SplineSet
869 0 m 1
 593 0 l 1
 597 20 l 1
 669 20 691 51 697 80 c 2
 801 568 l 1
 424 0 l 1
 410 0 l 1
 276 545 l 1
 177 80 l 2
 176 75 175 71 175 66 c 0
 175 42 192 20 261 20 c 1
 257 0 l 1
 20 0 l 1
 24 20 l 1
 105 20 128 51 134 80 c 2
 241 582 l 2
 242 586 242 590 242 595 c 0
 242 619 225 642 158 642 c 1
 163 662 l 1
 361 662 l 1
 483 157 l 1
 811 662 l 1
 1010 662 l 1
 1005 642 l 1
 932 642 912 610 906 582 c 2
 799 80 l 2
 798 75 797 70 797 66 c 0
 797 42 813 20 873 20 c 1
 869 0 l 1
EndSplineSet
EndChar

StartChar: N
Encoding: 78 78 47
Width: 721
Flags: W
HStem: -14 21G<581.182 612.262> 0 20<16 81.0802 192.192 250> 642 20<153 199.158 611 667.485 779.637 844>
DStem2: 106.02 -14 151.02 -14 0.207912 0.978148<90.5974 571.659> 324 662 228 598 0.512224 -0.858852<0 18.3137 79.5308 557.043> 563.551 -14 608 -14 0.207912 0.978148<199.356 623.354>
LayerCount: 2
Fore
SplineSet
844 642 m 1x60
 763 642 741 610 735 582 c 2
 608 -14 l 1
 593 -14 l 1xa0
 268 536 l 1
 171 80 l 2
 170 75 169 70 169 65 c 0
 169 41 185 20 254 20 c 1
 250 0 l 1
 12 0 l 1
 16 20 l 1
 98 20 120 51 126 80 c 2
 234 587 l 1
 228 598 l 1
 206 633 197 642 148 642 c 1
 153 662 l 1
 324 662 l 1
 605 181 l 1
 691 582 l 2
 692 586 693 591 693 596 c 0
 693 619 676 642 606 642 c 1
 611 662 l 1
 849 662 l 1
 844 642 l 1x60
EndSplineSet
EndChar

StartChar: O
Encoding: 79 79 48
Width: 721
Flags: W
HStem: -14 36<282.914 438.109> 639 37<412.25 577.075>
VStem: 95 109<136.047 367.232> 657 109<296.85 532.405>
LayerCount: 2
Fore
SplineSet
766 416 m 0
 766 212 605 -14 358 -14 c 0
 206 -14 95 85 95 247 c 0
 95 441 247 676 505 676 c 0
 691 676 766 553 766 416 c 0
353 22 m 0
 555 22 657 264 657 444 c 0
 657 553 615 639 501 639 c 0
 264 639 204 332 204 219 c 0
 204 91 264 22 353 22 c 0
EndSplineSet
EndChar

StartChar: P
Encoding: 80 80 49
Width: 556
Flags: W
HStem: 0 20<15 73.8971 238.992 289> 289 38<271 424.715> 624 38<331.149 481.606> 642 20<158 203.484>
VStem: 539 111<434.961 578.629>
DStem2: 99.9955 0 200.995 0 0.207912 0.978148<88.9051 323.154 358.343 607.804>
LayerCount: 2
Fore
SplineSet
650 520 m 0xe8
 650 427 570 289 348 289 c 0
 321 289 292 290 263 293 c 1
 218 80 l 2
 217 75 216 71 216 66 c 0
 216 42 232 20 293 20 c 1
 289 0 l 1
 11 0 l 1
 15 20 l 1
 88 20 111 51 117 80 c 2
 224 582 l 2
 225 586 225 591 225 595 c 0
 225 619 210 642 153 642 c 1
 158 662 l 1xd8
 408 662 l 2
 548 662 650 616 650 520 c 0xe8
535 479 m 0
 538 492 539 504 539 515 c 0
 539 600 463 624 377 624 c 0xe8
 336 624 333 619 324 579 c 2
 271 330 l 1
 287 330 303 327 320 327 c 0
 428 327 510 364 535 479 c 0
EndSplineSet
EndChar

StartChar: Q
Encoding: 81 81 50
Width: 721
Flags: W
HStem: -177 17<601.346 662> -8 31<422 444.515> 639 37<411.051 573.728>
VStem: 95 109<125.068 359.648> 657 110<295.996 532.634>
LayerCount: 2
Fore
SplineSet
767 417 m 0
 767 194 581 -2 422 -8 c 1
 475 -100 548 -157 666 -160 c 1
 662 -177 l 1
 318 -177 310 -44 265 -8 c 1
 258 3 245 8 235 9 c 1
 139 37 95 136 95 243 c 0
 95 450 254 676 505 676 c 0
 675 676 767 568 767 417 c 0
366 23 m 0
 572 23 657 291 657 445 c 0
 657 570 598 639 497 639 c 1
 258 636 204 319 204 217 c 0
 204 92 263 23 366 23 c 0
EndSplineSet
EndChar

StartChar: R
Encoding: 82 82 51
Width: 666
Flags: W
HStem: 0 20<16 72.9158 236.03 287 618.088 653> 306 37<273 320> 624 38<331.734 492.48> 642 20<153 200.426>
VStem: 540 110<439.451 583.8>
DStem2: 96.9955 0 199.995 0 0.207912 0.978148<88.3435 334.243 372.098 608.945> 429 319 320 307 0.490935 -0.871196<0 309.331>
LayerCount: 2
Fore
SplineSet
650 523 m 0xe8
 650 463 612 344 429 319 c 1
 575 75 l 2
 594 43 613 23 657 20 c 1
 653 0 l 1
 493 0 l 1
 320 307 l 1
 265 306 l 1
 217 80 l 2
 216 75 215 70 215 65 c 0
 215 41 230 20 291 20 c 1
 287 0 l 1
 12 0 l 1
 16 20 l 1
 87 20 108 51 114 80 c 2
 221 582 l 2
 222 587 223 591 223 596 c 0
 223 620 207 642 148 642 c 1
 153 662 l 1xd8
 417 662 l 2
 565 662 650 616 650 523 c 0xe8
536 485 m 0
 539 498 540 510 540 521 c 0
 540 594 483 624 406 624 c 0xe8
 340 624 333 624 322 576 c 2
 273 343 l 1
 418 347 513 378 536 485 c 0
EndSplineSet
EndChar

StartChar: S
Encoding: 83 83 52
Width: 556
Flags: W
HStem: -14 39<199.168 346.949> 634 42<321.972 471.562>
VStem: 86 22<150.223 201> 175 95<389.379 556.763> 421 110<123.606 224.412> 542 24<462 521.92>
LayerCount: 2
Fore
SplineSet
277 25 m 0
 353 25 421 88 421 163 c 0
 421 301 175 313 175 471 c 0
 175 577 273 676 391 676 c 0
 462 676 500 643 529 643 c 0
 544 643 555 651 569 676 c 1
 591 676 l 1
 566 462 l 1
 542 462 l 1
 539 556 490 634 398 634 c 0
 305 634 270 564 270 521 c 0
 270 401 531 368 531 210 c 0
 531 91 418 -14 277 -14 c 0
 208 -14 160 19 128 19 c 0
 112 19 99 11 91 -14 c 1
 69 -14 l 1
 86 201 l 1
 108 201 l 1
 120 108 171 25 277 25 c 0
EndSplineSet
EndChar

StartChar: T
Encoding: 84 84 53
Width: 610
Flags: W
HStem: 0 19<170 225.317 398.324 444> 620 42<219.515 385 488 647.168>
VStem: 123 23<492 515.933> 675 23<492 531.667>
DStem2: 252.995 0 355.995 0 0.207912 0.978148<89.2765 633.897>
LayerCount: 2
Fore
SplineSet
385 620 m 1
 333 620 l 2
 220 620 192 601 146 492 c 1
 123 492 l 1
 164 662 l 1
 728 662 l 1
 698 492 l 1
 675 492 l 1
 674 602 656 620 542 620 c 2
 488 620 l 1
 373 80 l 2
 372 75 371 70 371 66 c 0
 371 42 387 22 448 19 c 1
 444 0 l 1
 166 0 l 1
 170 19 l 1
 250 23 264 51 270 80 c 2
 385 620 l 1
EndSplineSet
EndChar

StartChar: U
Encoding: 85 85 54
Width: 721
Flags: W
HStem: -14 45<288.511 477.475> 642 20<158 207.008 371.367 429 614 667.322 777.063 839>
VStem: 146 100<73.4666 288.492>
DStem2: 101.247 -14 202.735 -14 0.207912 0.978148<194.643 623.21> 564.272 -14 607.272 -14 0.207912 0.978148<135.25 622.064>
LayerCount: 2
Fore
SplineSet
839 642 m 1
 761 642 740 610 734 582 c 2
 667 267 l 2
 643 154 615 66 490 12 c 0
 455 -3 399 -14 356 -14 c 0
 211 -14 146 41 146 156 c 0
 146 184 150 217 158 253 c 2
 228 582 l 2
 229 586 230 591 230 596 c 0
 230 619 214 642 153 642 c 1
 158 662 l 1
 434 662 l 1
 429 642 l 1
 357 642 336 610 330 582 c 2
 258 246 l 2
 250 210 246 179 246 153 c 0
 246 66 289 31 386 31 c 0
 572 31 604 172 624 267 c 2
 691 582 l 2
 692 586 692 591 692 595 c 0
 692 619 675 642 609 642 c 1
 614 662 l 1
 844 662 l 1
 839 642 l 1
EndSplineSet
EndChar

StartChar: V
Encoding: 86 86 55
Width: 721
Flags: W
HStem: -14 21G<365.305 395.158> 642 20<161 192.094 357.708 422 637 681.585 795.811 836>
DStem2: 361 487 243 527 0.228538 -0.973535<-110.995 334.513> 436 161 383 -14 0.519436 0.854509<0 516.246>
LayerCount: 2
Fore
SplineSet
422 642 m 1
 366 642 338 633 338 597 c 0
 338 568 356 505 361 487 c 2
 436 161 l 1
 654 516 l 2
 680 560 696 589 696 608 c 0
 696 638 658 642 632 642 c 1
 637 662 l 1
 841 662 l 1
 836 642 l 1
 789 642 763 610 738 570 c 2
 383 -14 l 1
 370 -14 l 1
 243 527 l 2
 229 587 214 642 156 642 c 1
 161 662 l 1
 427 662 l 1
 422 642 l 1
EndSplineSet
EndChar

StartChar: W
Encoding: 87 87 56
Width: 943
Flags: W
HStem: -14 21G<300.136 327.502 627.714 655.267> 642 20<150 180.672 336.734 389 457 501.774 652.442 720 878 920.822 1029.62 1071>
DStem2: 322 553 241 419 0.141741 -0.989904<-42.7096 369.113> 384 189 316 -14 0.498548 0.866862<0 281.553> 637 570 550 470 0.16506 -0.986284<-24.3142 84.2682 143.288 389.957> 705 186 644 -14 0.490828 0.871257<0 479.002>
LayerCount: 2
Fore
SplineSet
720 642 m 1
 655 642 636 633 636 595 c 0
 636 584 637 574 637 570 c 2
 705 186 l 1
 895 513 l 2
 913 545 932 586 932 609 c 0
 932 640 898 641 873 642 c 1
 878 662 l 1
 1076 662 l 1
 1071 642 l 1
 1009 639 988 596 973 570 c 2
 644 -14 l 1
 631 -14 l 1
 561 412 l 1
 316 -14 l 1
 303 -14 l 1
 241 419 l 1
 211 616 204 636 145 642 c 1
 150 662 l 1
 394 662 l 1
 389 642 l 1
 376 642 l 1
 356 639 317 638 317 596 c 0
 317 584 320 561 322 553 c 2
 384 189 l 1
 550 470 l 1
 544 513 537 556 526 596 c 1
 517 633 492 642 452 642 c 1
 457 662 l 1
 725 662 l 1
 720 642 l 1
EndSplineSet
EndChar

StartChar: X
Encoding: 88 88 57
Width: 721
Flags: W
HStem: 0 20<16 58.5781 199.547 244 413 479.689 665.846 705> 642 20<166 204.619 394.348 462 600 650.907 783.256 833>
DStem2: 194 143 261 149 0.716871 0.697206<-70.1167 248.073 375.526 663.123> 439 453 313 476 0.436904 -0.899508<-161.369 54.9985 132.279 380.518>
LayerCount: 2
Fore
SplineSet
462 642 m 1
 405 642 379 635 379 605 c 0
 379 569 427 476 439 453 c 2
 464 404 l 1
 595 533 l 1
 631 567 661 593 661 615 c 0
 661 642 616 642 595 642 c 1
 600 662 l 1
 838 662 l 1
 833 642 l 1
 761 642 692 576 656 539 c 1
 480 367 l 1
 609 103 l 1
 642 40 663 20 709 20 c 1
 705 0 l 1
 409 0 l 1
 413 20 l 1
 482 20 497 35 497 57 c 0
 497 81 480 121 461 158 c 1
 400 287 l 1
 261 149 l 1
 201 94 182 70 182 54 c 0
 182 36 204 20 248 20 c 1
 244 0 l 1
 12 0 l 1
 16 20 l 1
 73 20 128 77 194 143 c 1
 382 326 l 1
 313 476 l 2
 256 598 233 639 161 642 c 1
 166 662 l 1
 467 662 l 1
 462 642 l 1
EndSplineSet
EndChar

StartChar: Y
Encoding: 89 89 58
Width: 721
Flags: W
HStem: 0 20<218 285.95 458.143 518> 642 20<164 198.465 373.076 439 625 678.759 802.77 838>
DStem2: 374 559 291 476 0.412508 -0.910954<-44.2628 232.723> 314.995 0 415.995 0 0.207912 0.978148<90.0466 299.489> 470 347 480 303 0.656524 0.754305<0 343.601>
LayerCount: 2
Fore
SplineSet
439 642 m 1
 377 642 360 634 360 602 c 0
 360 586 367 573 374 559 c 2
 470 347 l 1
 652 562 l 2
 660 572 684 596 684 618 c 0
 684 641 658 642 620 642 c 1
 625 662 l 1
 843 662 l 1
 838 642 l 1
 768 633 707 564 668 519 c 2
 480 303 l 1
 433 80 l 2
 432 76 432 71 432 67 c 0
 432 42 449 20 522 20 c 1
 518 0 l 1
 214 0 l 1
 218 20 l 1
 304 20 326 51 332 80 c 2
 377 293 l 1
 291 476 l 2
 245 574 230 641 159 642 c 1
 164 662 l 1
 444 662 l 1
 439 642 l 1
EndSplineSet
EndChar

StartChar: Z
Encoding: 90 90 59
Width: 609
Flags: W
HStem: 0 38<152 506.15> 624 38<252.762 578>
DStem2: 11 12 152 38 0.679623 0.733561<114.899 834.286>
LayerCount: 2
Fore
SplineSet
634 177 m 1
 573 0 l 1
 8 0 l 1
 11 12 l 1
 578 624 l 1
 370 624 l 2
 267 624 204 605 161 490 c 1
 135 490 l 1
 192 662 l 1
 720 662 l 1
 717 650 l 1
 152 38 l 1
 398 38 l 2
 507 38 558 66 611 177 c 1
 634 177 l 1
EndSplineSet
EndChar

StartChar: bracketleft
Encoding: 91 91 60
Width: 333
Flags: W
HStem: -157 26<150.805 267> 636 26<306.13 435>
DStem2: 55 -157 131.082 -157 0.207912 0.978148<76.0209 826.598>
LayerCount: 2
Fore
SplineSet
267 -157 m 1
 55 -157 l 1
 229 662 l 1
 441 662 l 1
 435 636 l 1
 356 636 l 2
 310 636 297 625 287 581 c 2
 150 -68 l 2
 147 -81 146 -91 146 -99 c 0
 146 -125 160 -131 196 -131 c 2
 272 -131 l 1
 267 -157 l 1
EndSplineSet
EndChar

StartChar: backslash
Encoding: 92 92 61
Width: 278
Flags: W
HStem: 0 21G<282.343 361> 662 20G<62 140.657>
VStem: 62 299
DStem2: 134 682 62 682 0.31581 -0.948822<0 696.047>
LayerCount: 2
Fore
SplineSet
361 0 m 1
 289 0 l 1
 62 682 l 1
 134 682 l 1
 361 0 l 1
EndSplineSet
EndChar

StartChar: bracketright
Encoding: 93 93 62
Width: 333
Flags: W
HStem: -157 26<6 133.5> 636 26<175 292.363>
DStem2: 136.02 -157 211 -157 0.207912 0.978148<28.1969 779.967>
LayerCount: 2
Fore
SplineSet
211 -157 m 1
 1 -157 l 1
 6 -131 l 1
 75 -131 l 1
 136 -129 143 -121 156 -63 c 2
 287 556 l 2
 292 577 296 594 296 607 c 0
 296 626 287 636 258 636 c 2
 169 636 l 1
 175 662 l 1
 385 662 l 1
 211 -157 l 1
EndSplineSet
EndChar

StartChar: asciicircum
Encoding: 94 94 63
Width: 468
Flags: W
HStem: 642 20G<330.42 413.086>
LayerCount: 2
Fore
SplineSet
511 257 m 1
 437 257 l 1
 361 593 l 1
 141 257 l 1
 69 257 l 1
 344 662 l 1
 408 662 l 1
 511 257 l 1
EndSplineSet
EndChar

StartChar: underscore
Encoding: 95 95 64
Width: 499
Flags: W
HStem: -174 59<-24 462>
LayerCount: 2
Fore
SplineSet
462 -174 m 1
 -37 -174 l 1
 -24 -115 l 1
 475 -115 l 1
 462 -174 l 1
EndSplineSet
EndChar

StartChar: grave
Encoding: 96 96 65
Width: 333
Flags: W
HStem: 507 170
VStem: 153 198
LayerCount: 2
Fore
SplineSet
351 507 m 1
 311 507 l 1
 187 598 l 1
 173 606 153 622 153 638 c 0
 153 646 161 677 192 677 c 0
 219 677 228 661 241 645 c 2
 351 507 l 1
EndSplineSet
EndChar

StartChar: a
Encoding: 97 97 66
Width: 443
Flags: W
HStem: -11 57<115 214.483 335.5 409.307> 435 23<254.777 343.274>
VStem: 55 94<59.3751 140.938> 127 91<316.339 384.513> 299 83<22.1994 119.078> 358 80<271.34 428.446>
DStem2: 280.682 -11 364.295 -11 0.207912 0.978148<96.5209 281.116 295.25 397.471>
LayerCount: 2
Fore
SplineSet
127 335 m 0xd4
 127 365 178 458 321 458 c 0
 405 458 438 431 438 364 c 0xd4
 438 343 434 317 428 287 c 2
 383 77 l 2
 382 73 382 69 382 66 c 0
 382 53 388 46 400 46 c 0
 412 46 431 54 457 69 c 1
 451 43 l 1
 432 25 385 -11 357 -11 c 0
 314 -11 299 16 299 47 c 0
 299 53 300 60 301 66 c 1
 248 25 184 -11 141 -11 c 0
 89 -11 55 25 55 73 c 0xe8
 55 210 275 265 345 290 c 1
 353 328 358 357 358 380 c 0
 358 419 342 435 302 435 c 0
 282 435 245 425 231 407 c 1
 221 386 225 378 218 349 c 0
 213 326 188 304 165 304 c 0
 139 304 127 317 127 335 c 0xd4
339 264 m 1
 278 241 149 217 149 107 c 0xe0
 149 75 166 49 205 49 c 0
 225 49 288 71 303 94 c 1
 339 264 l 1
EndSplineSet
EndChar

StartChar: b
Encoding: 98 98 67
Width: 499
Flags: W
HStem: -11 34<194.444 326.072> 396 62<309.59 402.328> 619 18<144 181.706> 662 20G<243.182 300.724>
VStem: 437 94<193.674 359.469>
DStem2: 71.1838 -11 157.783 -11 0.207912 0.978148<76.4702 410.875 415.598 621.851>
LayerCount: 2
Fore
SplineSet
531 300 m 0
 531 145 393 -11 241 -11 c 0
 165 -11 79 24 85 54 c 2
 193 559 l 2
 197 576 199 589 199 598 c 0
 199 617 190 619 169 619 c 2
 141 619 l 1
 144 637 l 1
 183 647 209 651 237 660 c 2
 305 682 l 1
 240 378 l 1
 278 430 340 458 398 458 c 0
 492 458 531 382 531 300 c 0
262 23 m 0
 384 23 437 169 437 271 c 0
 437 335 415 396 342 396 c 0
 268 396 235 353 226 309 c 2
 175 70 l 2
 170 46 211 23 262 23 c 0
EndSplineSet
EndChar

StartChar: c
Encoding: 99 99 68
Width: 443
Flags: W
HStem: -11 71<201.012 300.724> 429 29<267.269 369.818>
VStem: 64 88<113.816 265.934> 385 90<328.669 418.868>
LayerCount: 2
Fore
SplineSet
321 429 m 0
 220 429 152 304 152 203 c 0
 152 128 186 60 270 60 c 0
 336 60 387 106 431 157 c 1
 444 149 l 1
 383 63 313 -11 210 -11 c 0
 119 -11 64 61 64 157 c 0
 64 273 153 458 346 458 c 0
 400 458 475 430 475 370 c 0
 475 334 440 316 420 316 c 0
 399 316 382 334 382 353 c 0
 382 358 385 368 385 378 c 0
 385 408 366 429 321 429 c 0
EndSplineSet
EndChar

StartChar: d
Encoding: 100 100 69
Width: 499
Flags: W
HStem: -11 49<195.722 288.831> 45 15<475.866 500> 427 31<271.455 378.167> 619 18<408 446.397> 662 20G<507.182 564.736>
VStem: 64 91<80.0165 256.427>
DStem2: 336.155 -14 420.682 -14 0.207912 0.978148<116.046 362.561 441.655 626.747>
LayerCount: 2
Fore
SplineSet
64 149 m 0
 64 302 197 458 334 458 c 0
 384 458 418 433 428 418 c 1
 458 559 l 2
 462 578 464 591 464 600 c 0
 464 617 456 619 434 619 c 2
 405 619 l 1
 408 637 l 1
 448 647 474 651 501 660 c 2
 569 682 l 1
 443 91 l 2
 442 88 442 85 442 82 c 0
 442 62 460 60 480 60 c 2
 503 60 l 1
 500 45 l 1
 449 31 395 12 336 -14 c 1
 352 60 l 1
 317 20 261 -11 210 -11 c 0
 109 -11 64 61 64 149 c 0
326 427 m 0
 224 427 155 285 155 168 c 0
 155 84 194 38 258 38 c 0
 315 38 357 83 364 117 c 2
 403 300 l 2
 406 315 408 329 408 342 c 0
 408 392 383 427 326 427 c 0
EndSplineSet
EndChar

StartChar: e
Encoding: 101 101 70
Width: 443
Flags: W
HStem: -11 68<197.029 301.372> 276 31<159 366.75> 422 36<236.602 343.673>
VStem: 62 81<117.711 267.615> 367 98<307 398.278>
LayerCount: 2
Fore
SplineSet
62 157 m 0
 62 278 156 458 323 458 c 0
 415 458 465 399 465 318 c 0
 465 304 464 290 461 276 c 1
 150 276 l 1
 146 256 143 234 143 213 c 0
 143 134 176 57 265 57 c 0
 331 57 396 109 439 164 c 1
 455 158 l 1
 404 68 310 -11 210 -11 c 0
 114 -11 62 63 62 157 c 0
365 307 m 1
 367 317 367 328 367 338 c 0
 367 384 348 422 294 422 c 0
 224 422 182 370 159 307 c 1
 365 307 l 1
EndSplineSet
EndChar

StartChar: f
Encoding: 102 102 71
Width: 332
Flags: W
HStem: 0 15<23 73.3333 224.137 279> 417 33<116 191 281 397> 655 28<347.599 449.5>
DStem2: 101.894 0 185.894 0 0.207912 0.978148<77.8906 426.414 477.405 602.419>
LayerCount: 2
Fore
SplineSet
516 630 m 0
 516 603 489 580 463 580 c 0
 418 580 436 655 381 655 c 0
 343 655 318 624 305 565 c 2
 281 450 l 1
 404 450 l 1
 397 417 l 1
 275 417 l 1
 208 104 l 2
 204 85 201 70 201 58 c 0
 201 24 222 17 282 15 c 1
 279 0 l 1
 20 0 l 1
 23 15 l 1
 95 19 109 31 124 104 c 2
 191 417 l 1
 109 417 l 1
 116 450 l 1
 198 450 l 1
 216 530 230 565 266 609 c 1
 302 656 361 683 422 683 c 0
 477 683 516 662 516 630 c 0
EndSplineSet
EndChar

StartChar: g
Encoding: 103 103 72
Width: 499
Flags: W
HStem: -217 56<103.184 274.579> -14 77<152.418 410.28> 147 27<248.928 336.788> 386 35<471.759 552> 430 28<272.05 357.192>
VStem: 3 75<-137.675 -78.7327> 84 68<34 91.0132> 128 89<199.273 345.047> 391 83<252.788 384.86> 420 34<-83.563 23.5>
LayerCount: 2
Fore
SplineSet
128 263 m 0xfd
 128 362 221 458 341 458 c 0
 415 458 424 421 510 421 c 0
 524 421 541 422 560 424 c 1
 552 386 l 1
 469 386 l 1
 473 372 474 356 474 342 c 0xfd80
 474 225 378 147 275 147 c 0
 258 147 242 151 223 154 c 1
 204 149 152 110 152 87 c 0
 152 66 212 66 236 63 c 1
 355 58 454 66 454 -19 c 0
 454 -160 245 -217 154 -217 c 0
 48 -217 3 -164 3 -125 c 0
 3 -78 66 -45 126 2 c 1
 108 10 84 22 84 46 c 0xfe40
 84 93 171 146 198 163 c 1
 154 183 128 215 128 263 c 0xfd
292 174 m 0
 363 174 391 253 391 316 c 0
 391 369 373 430 321 430 c 0
 238 430 217 339 217 277 c 0
 217 225 234 174 292 174 c 0
206 -161 m 0
 364 -161 420 -99 420 -58 c 0xfc40
 420 -17 357 -15 295 -14 c 0
 250 -14 191 -12 146 -3 c 1
 108 -38 78 -70 78 -101 c 0
 78 -132 113 -161 206 -161 c 0
EndSplineSet
EndChar

StartChar: h
Encoding: 104 104 73
Width: 499
Flags: W
HStem: 0 14<12 45.0716 192.358 220 283 315.642 462.358 490> 404 54<315.329 402.435> 619 18<144 179.827> 662 20G<240.182 297.724>
VStem: 412 86<232.75 394.348>
DStem2: 71.9955 0 156.995 0 0.207912 0.978148<75.6823 397.193 404.046 609.573> 342.995 0 426.995 0 0.207912 0.978148<75.4744 351.959>
LayerCount: 2
Fore
SplineSet
490 0 m 1
 280 0 l 1
 283 14 l 1
 331 18 351 37 360 80 c 2
 404 287 l 2
 409 308 412 328 412 346 c 0
 412 379 399 404 352 404 c 0
 296 404 266 376 230 344 c 1
 174 80 l 2
 172 71 171 63 171 56 c 0
 171 30 186 17 223 14 c 1
 220 0 l 1
 9 0 l 1
 12 14 l 1
 61 18 80 37 89 80 c 2
 191 559 l 2
 195 576 197 589 197 597 c 0
 197 616 188 619 167 619 c 2
 141 619 l 1
 144 637 l 1
 181 647 207 651 234 660 c 2
 302 682 l 1
 237 378 l 1
 280 422 338 458 398 458 c 0
 471 458 498 427 498 368 c 0
 498 345 495 319 488 289 c 2
 444 80 l 2
 442 71 441 63 441 56 c 0
 441 30 456 17 493 14 c 1
 490 0 l 1
EndSplineSet
EndChar

StartChar: i
Encoding: 105 105 74
Width: 278
Flags: W
HStem: 0 14<26 66.319 223.203 260> 390 14<109 130.68> 438 20G<216.667 275.767> 579 103<232.959 301.764>
VStem: 216 103<596.236 665.325>
DStem2: 97.9955 0 182.995 0 0.207912 0.978148<76.6604 378.187>
LayerCount: 2
Fore
SplineSet
319 641 m 0
 319 608 287 579 257 579 c 0
 231 579 216 596 216 619 c 0
 216 650 243 682 279 682 c 0
 302 682 319 665 319 641 c 0
260 0 m 1
 23 0 l 1
 26 14 l 1
 87 18 106 37 115 80 c 2
 167 323 l 2
 171 344 174 360 174 371 c 0
 174 391 167 398 150 398 c 0
 140 398 125 395 106 390 c 1
 109 404 l 1
 280 458 l 1
 200 80 l 2
 198 72 197 64 197 57 c 0
 197 30 214 17 263 14 c 1
 260 0 l 1
EndSplineSet
EndChar

StartChar: j
Encoding: 106 106 75
Width: 278
Flags: W
HStem: -217 33<-22.5 70.2599> 390 14<134 155.907> 438 20G<240.407 298.785> 579 103<261.592 330.325>
VStem: 244 103<595.541 665.325>
DStem2: 74.8555 -217 160.325 -217 0.207912 0.978148<114.518 600.386>
LayerCount: 2
Fore
SplineSet
347 641 m 0
 347 608 316 579 284 579 c 0
 261 579 244 596 244 619 c 0
 244 653 276 682 306 682 c 0
 330 682 347 665 347 641 c 0
-90 -168 m 0
 -90 -133 -57 -118 -38 -118 c 0
 0 -118 -15 -156 31 -181 c 0
 35 -183 40 -184 44 -184 c 0
 74 -184 94 -129 101 -94 c 2
 194 343 l 2
 196 354 198 363 198 371 c 0
 198 388 190 394 170 394 c 0
 160 394 147 392 131 390 c 1
 134 404 l 1
 303 458 l 1
 209 12 l 2
 176 -140 101 -217 -11 -217 c 0
 -34 -217 -90 -207 -90 -168 c 0
EndSplineSet
EndChar

StartChar: k
Encoding: 107 107 76
Width: 499
Flags: W
HStem: 0 14<5 44.8892 200.921 237 286 315.992 473.091 499> 433 14<365 405.737 516.769 567> 619 18<146 184.112> 662 20G<244.182 301.752>
DStem2: 76.9955 0 160.995 0 0.207912 0.978148<77.3855 270.087 286.361 614.767> 290 283 214 247 0.479166 -0.877724<-2.5504 242.761>
LayerCount: 2
Fore
SplineSet
499 0 m 1
 283 0 l 1
 286 14 l 1
 320 14 333 30 321 51 c 2
 214 247 l 1
 178 80 l 2
 176 72 175 64 175 58 c 0
 175 30 192 17 240 14 c 1
 237 0 l 1
 2 0 l 1
 5 14 l 1
 65 18 85 37 94 80 c 2
 200 579 l 2
 202 589 203 596 203 602 c 0
 203 616 195 619 176 619 c 2
 143 619 l 1
 146 637 l 1
 186 647 212 651 238 660 c 2
 306 682 l 1
 217 263 l 1
 366 373 l 2
 400 398 409 409 409 419 c 0
 409 429 396 433 362 433 c 1
 365 447 l 1
 570 447 l 1
 567 433 l 1
 464 433 398 362 290 283 c 1
 396 98 l 2
 418 58 451 17 502 14 c 1
 499 0 l 1
EndSplineSet
EndChar

StartChar: l
Encoding: 108 108 77
Width: 278
Flags: W
HStem: 0 14<23 64.9566 222.759 260> 624 13<155 185.705> 662 20G<303.5 323.747>
VStem: 20 308
DStem2: 96.9955 0 182.995 0 0.207912 0.978148<76.8676 614.582>
LayerCount: 2
Fore
SplineSet
260 0 m 1
 20 0 l 1
 23 14 l 1
 87 18 105 37 114 80 c 2
 216 559 l 2
 220 579 223 592 223 602 c 0
 223 622 213 624 187 624 c 2
 153 624 l 1
 155 637 l 1
 206 647 279 665 328 682 c 1
 200 80 l 2
 198 71 197 64 197 57 c 0
 197 30 213 17 263 14 c 1
 260 0 l 1
EndSplineSet
EndChar

StartChar: m
Encoding: 109 109 78
Width: 777
Flags: W
HStem: 0 14<17 49.6418 196.358 224 286 318.642 465.358 493 556 589.072 735.358 763> 404 54<330.383 438.5 592.182 679.025>
VStem: 686 84<229.047 396.924>
DStem2: 76.9955 0 160.995 0 0.207912 0.978148<76.4518 365.149> 345.995 0 429.995 0 0.207912 0.978148<75.4744 352.891> 615.995 0 699.995 0 0.207912 0.978148<76.4518 358.078>
LayerCount: 2
Fore
SplineSet
246 383 m 0
 253 383 329 458 413 458 c 0
 464 458 496 421 498 373 c 1
 544 415 615 458 671 458 c 0
 749 458 770 415 770 360 c 0
 770 331 764 298 757 267 c 2
 717 80 l 2
 715 71 714 64 714 57 c 0
 714 30 729 17 766 14 c 1
 763 0 l 1
 553 0 l 1
 556 14 l 1
 605 18 624 37 633 80 c 2
 676 283 l 2
 682 312 686 335 686 352 c 0
 686 392 668 404 624 404 c 0
 578 404 534 381 503 344 c 1
 447 80 l 2
 445 71 444 63 444 56 c 0
 444 30 459 17 496 14 c 1
 493 0 l 1
 283 0 l 1
 286 14 l 1
 334 18 354 37 363 80 c 2
 407 287 l 2
 411 307 415 328 415 347 c 0
 415 379 404 404 362 404 c 0
 321 404 265 381 235 346 c 1
 178 80 l 2
 176 71 175 64 175 57 c 0
 175 30 190 17 227 14 c 1
 224 0 l 1
 14 0 l 1
 17 14 l 1
 65 18 85 37 94 80 c 2
 146 323 l 2
 149 338 151 349 151 358 c 0
 151 384 137 389 97 389 c 1
 100 406 l 1
 258 458 l 1
 244 392 l 2
 243 385 243 383 246 383 c 0
EndSplineSet
EndChar

StartChar: n
Encoding: 110 110 79
Width: 499
Flags: W
HStem: 0 14<12 45.0716 192.358 220 283 315.642 462.358 490> 396 14<96 118.976> 404 54<321.016 437>
VStem: 413 85<231.523 394.055>
DStem2: 71.9955 0 156.995 0 0.207912 0.978148<75.6823 379.165> 342.995 0 426.995 0 0.207912 0.978148<75.4744 353.282>
LayerCount: 2
Fore
SplineSet
490 0 m 1xb0
 280 0 l 1
 283 14 l 1
 331 18 351 37 360 80 c 2
 406 295 l 2
 410 314 413 332 413 347 c 0
 413 381 399 404 352 404 c 0xb0
 304 404 262 373 231 347 c 1
 174 80 l 2
 172 71 171 63 171 56 c 0
 171 30 186 17 223 14 c 1
 220 0 l 1
 9 0 l 1
 12 14 l 1
 61 18 80 37 89 80 c 2
 141 324 l 2
 145 346 148 361 148 372 c 0
 148 392 139 396 118 396 c 2
 93 396 l 1
 96 410 l 1xd0
 254 458 l 1
 237 378 l 1
 282 416 337 458 407 458 c 0
 467 458 498 425 498 360 c 0
 498 341 495 320 490 296 c 2
 444 80 l 2
 442 71 441 63 441 56 c 0
 441 30 456 17 493 14 c 1
 490 0 l 1xb0
EndSplineSet
EndChar

StartChar: o
Encoding: 111 111 80
Width: 499
Flags: W
HStem: -11 31<217.758 320.528> 427 31<269.797 375.189>
VStem: 72 96<74.7274 272.989> 428 99<189.07 376.853>
LayerCount: 2
Fore
SplineSet
527 290 m 0
 527 162 414 -11 244 -11 c 0
 134 -11 72 68 72 167 c 0
 72 280 162 458 343 458 c 0
 457 458 527 392 527 290 c 0
268 20 m 0
 373 20 428 161 428 280 c 0
 428 354 404 427 324 427 c 0
 199 427 168 249 168 164 c 0
 168 78 199 20 268 20 c 0
EndSplineSet
EndChar

StartChar: p
Encoding: 112 112 81
Width: 499
Flags: W
HStem: -217 14<-40 -0.108093 154.452 197> -11 34<211.089 325.123> 396 14<90 113.67> 402 56<309.291 447.753>
VStem: 436 93<197.801 369.543>
DStem2: 28.9955 -217 113.995 -217 0.207912 0.978148<76.6597 275.186 331.87 600.217>
LayerCount: 2
Fore
SplineSet
529 311 m 0xd8
 529 147 398 -11 251 -11 c 0
 216 -11 185 9 167 35 c 1
 131 -137 l 2
 129 -146 128 -153 128 -160 c 0
 128 -188 145 -201 200 -203 c 1
 197 -217 l 1
 -43 -217 l 1
 -40 -203 l 1
 17 -200 37 -181 46 -137 c 2
 145 327 l 2
 149 345 152 360 152 371 c 0
 152 389 143 398 114 398 c 0
 107 398 97 397 87 396 c 1
 90 410 l 1xe8
 257 458 l 1
 243 389 l 2
 242 387 242 386 243 386 c 0
 249 386 296 458 403 458 c 0
 491 458 529 395 529 311 c 0xd8
268 23 m 0
 360 23 436 149 436 282 c 0
 436 345 416 402 343 402 c 0xd8
 314 402 283 389 258 369 c 1
 235 352 234 347 229 324 c 2
 182 103 l 2
 181 98 180 94 180 90 c 0
 180 45 234 23 268 23 c 0
EndSplineSet
EndChar

StartChar: q
Encoding: 113 113 82
Width: 499
Flags: W
HStem: -217 14<214 260.179 415.643 452> -11 62<187.415 272.9> 433 25<285.09 390.382>
VStem: 62 92<85.3583 256.655> 415 104<357.909 453.5>
DStem2: 292.995 -217 377.995 -217 0.207912 0.978148<75.6823 283.215 294.784 600.012>
LayerCount: 2
Fore
SplineSet
62 138 m 0
 62 321 202 458 347 458 c 0
 387 458 422 447 449 425 c 1
 504 456 l 2
 508 458 511 459 513 459 c 0
 518 459 519 456 519 451 c 0
 519 448 518 443 517 439 c 2
 395 -137 l 2
 393 -146 392 -154 392 -161 c 0
 392 -188 408 -201 455 -203 c 1
 452 -217 l 1
 211 -217 l 1
 214 -203 l 1
 281 -200 301 -181 310 -137 c 2
 352 60 l 1
 301 23 247 -11 192 -11 c 0
 93 -11 62 59 62 138 c 0
336 433 m 0
 215 433 154 274 154 171 c 0
 154 99 184 51 244 51 c 0
 281 51 353 68 364 117 c 2
 411 338 l 2
 413 348 415 360 415 371 c 0
 415 402 401 433 336 433 c 0
EndSplineSet
EndChar

StartChar: r
Encoding: 114 114 83
Width: 333
Flags: W
HStem: 0 14<8 48.319 203.921 240> 389 15<91 113.037> 396 62<300 396.867>
DStem2: 79.9955 0 163.995 0 0.207912 0.978148<77.3855 367.389>
LayerCount: 2
Fore
SplineSet
422 420 m 0xa0
 422 408 417 361 370 361 c 0
 335 361 334 396 310 396 c 0xa0
 290 396 238 347 232 318 c 2
 181 80 l 2
 179 72 178 64 178 58 c 0
 178 30 195 17 243 14 c 1
 240 0 l 1
 5 0 l 1
 8 14 l 1
 69 18 88 37 97 80 c 2
 143 298 l 2
 149 325 152 346 152 361 c 0
 152 386 143 395 124 395 c 0
 115 395 103 393 88 389 c 1
 91 404 l 1xc0
 261 458 l 1
 242 367 l 1
 269 402 324 458 375 458 c 0
 404 458 422 445 422 420 c 0xa0
EndSplineSet
EndChar

StartChar: s
Encoding: 115 115 84
Width: 388
Flags: W
HStem: -11 25<148.913 248.983> -3 21G<50 66> 429 20G<397 410> 435 23<236.457 324.958>
VStem: 50 14<-3 6.63226> 84 17<121.676 154> 119 73<254.5 381.194> 298 77<73.8211 196.697> 367 15<313 346.972> 398 12<441 449>
LayerCount: 2
Fore
SplineSet
119 310 m 0x8f40
 119 387 193 458 287 458 c 0x9f40
 332 458 351 436 376 436 c 0
 392 436 396 445 398 449 c 1
 410 449 l 1
 382 313 l 1
 367 313 l 1x2ec0
 362 382 349 435 281 435 c 0
 231 435 192 397 192 357 c 0
 192 273 375 247 375 144 c 0
 375 82 314 -11 198 -11 c 0x9f40
 153 -11 124 13 90 13 c 0
 71 13 68 3 64 -3 c 1
 50 -3 l 1x4f40
 84 154 l 1
 101 154 l 1
 101 138 l 2
 101 71 124 14 201 14 c 0
 260 14 298 58 298 98 c 0
 298 185 119 199 119 310 c 0x8f40
EndSplineSet
EndChar

StartChar: t
Encoding: 116 116 85
Width: 278
Flags: W
HStem: -11 54<126.5 221.786> 416 31<252 343>
VStem: 87 92<43.9966 179.039>
DStem2: 68.2421 -11 154.629 -11 0.207912 0.978148<115.757 436.539>
LayerCount: 2
Fore
SplineSet
209 43 m 0
 221 43 251 47 283 80 c 1
 294 68 l 1
 247 20 196 -11 149 -11 c 0
 104 -11 87 7 87 50 c 0
 87 70 91 96 98 129 c 2
 159 416 l 1
 129 416 l 2
 124 416 118 415 113 415 c 0
 107 415 102 416 102 421 c 0
 102 423 103 426 106 430 c 1
 170 468 220 524 280 579 c 1
 252 447 l 1
 350 447 l 1
 343 416 l 1
 245 416 l 1
 188 146 l 2
 183 121 179 100 179 83 c 0
 179 58 187 43 209 43 c 0
EndSplineSet
EndChar

StartChar: u
Encoding: 117 117 86
Width: 499
Flags: W
HStem: -11 59<157.376 269.048> 37 14<463.689 487> 433 14<104 143.782 355 401.51>
VStem: 94 88<57.8729 161.145>
DStem2: 69.6044 -11 154.542 -11 0.207912 0.978148<138.226 420.29> 335.295 -11 414.155 -11 0.207912 0.978148<111.388 418.854>
LayerCount: 2
Fore
SplineSet
487 37 m 1x70
 444 25 387 6 336 -11 c 1
 354 77 l 1
 327 54 l 1
 301 29 251 -11 187 -11 c 0
 123 -11 94 25 94 83 c 0
 94 98 96 114 100 132 c 2
 149 361 l 2
 152 378 155 391 155 401 c 0
 155 427 141 433 101 433 c 1
 104 447 l 1
 252 447 l 1
 186 137 l 2
 184 126 182 115 182 106 c 0
 182 71 199 48 242 48 c 0xb0
 270 48 302 63 327 80 c 0
 350 96 355 107 358 124 c 2
 408 359 l 2
 412 377 414 390 414 401 c 0
 414 427 399 433 352 433 c 1
 355 447 l 1
 511 447 l 1
 442 120 l 2
 438 104 436 91 436 81 c 0
 436 60 447 51 479 51 c 2
 490 51 l 1
 487 37 l 1x70
EndSplineSet
EndChar

StartChar: v
Encoding: 118 118 87
Width: 499
Flags: W
HStem: -11 21G<243 248> 433 14<106 126.263 263.239 298 424 451.349 535.312 559>
DStem2: 296 120 234 17 0.213214 -0.977006<-277.855 0> 296 120 270 17 0.526714 0.850043<0 332.803>
LayerCount: 2
Fore
SplineSet
298 433 m 1
 263 433 246 421 246 394 c 0
 246 383 249 371 250 358 c 1
 296 120 l 1
 416 323 l 2
 437 357 458 394 458 412 c 0
 458 426 447 433 421 433 c 1
 424 447 l 1
 562 447 l 1
 559 433 l 1
 522 433 501 390 472 343 c 2
 270 17 l 2
 265 9 251 -11 245 -11 c 0
 241 -11 235 9 234 17 c 2
 155 379 l 2
 146 416 126 433 103 433 c 1
 106 447 l 1
 301 447 l 1
 298 433 l 1
EndSplineSet
EndChar

StartChar: w
Encoding: 119 119 88
Width: 721
Flags: W
HStem: -11 21G<231.5 234.5 484.5 488> 433 14<117 136.707 256.648 293 358 382.668 506.959 556 665 693.858 771.35 785>
DStem2: 262 244 161 343 0.184632 -0.982808<-145.146 129.063> 285 117 243 -3 0.567305 0.823508<0 205.218> 495 343 429 267 0.178565 -0.983928<62.9933 223.25> 533 123 495 -3 0.526512 0.850168<0 332.565>
LayerCount: 2
Fore
SplineSet
548 433 m 2
 505 433 491 423 491 388 c 0
 491 375 492 361 495 343 c 2
 533 123 l 1
 659 323 l 2
 679 356 701 393 701 411 c 0
 701 426 689 433 662 433 c 1
 665 447 l 1
 788 447 l 1
 785 433 l 1
 757 424 738 387 726 370 c 1
 495 -3 l 2
 494 -6 490 -11 486 -11 c 0
 483 -11 480 -7 478 -3 c 1
 429 267 l 1
 243 -3 l 2
 242 -6 236 -11 233 -11 c 0
 230 -11 227 -6 226 -3 c 2
 161 343 l 2
 149 406 150 433 114 433 c 1
 117 447 l 1
 296 447 l 1
 293 433 l 1
 284 433 l 2
 248 433 239 409 239 389 c 0
 239 355 258 267 262 244 c 2
 285 117 l 1
 416 310 l 1
 408 396 404 433 355 433 c 1
 358 447 l 1
 559 447 l 1
 556 433 l 1
 548 433 l 2
EndSplineSet
EndChar

StartChar: x
Encoding: 120 120 89
Width: 499
Flags: W
HStem: 0 14<20 49.8794 130.281 163 281 319.385 455.546 479> 433 14<120 151.793 289.914 324 371 396.46 491.112 525>
DStem2: 113 77 167 84 0.661201 0.750209<-27.2977 189.205 300.287 443.604> 313 301 195 362 0.405868 -0.913932<-108.255 0 33.6082 40.5371 74.7555 249.934>
LayerCount: 2
Fore
SplineSet
479 0 m 1
 278 0 l 1
 281 14 l 1
 306 16 337 21 337 38 c 0
 337 42 336 45 334 49 c 2
 263 197 l 1
 167 84 l 2
 142 55 128 35 128 27 c 0
 128 17 140 14 166 14 c 1
 163 0 l 1
 17 0 l 1
 20 14 l 1
 57 14 80 40 113 77 c 2
 253 230 l 1
 195 362 l 2
 179 398 180 430 117 433 c 1
 120 447 l 1
 327 447 l 1
 324 433 l 1
 285 433 276 416 276 404 c 0
 276 384 306 317 313 301 c 1
 336 328 403 388 403 414 c 0
 403 430 381 433 368 433 c 1
 371 447 l 1
 528 447 l 1
 525 433 l 1
 488 433 453 407 427 379 c 2
 326 270 l 1
 408 84 l 2
 426 45 447 14 482 14 c 1
 479 0 l 1
EndSplineSet
EndChar

StartChar: y
Encoding: 121 121 90
Width: 499
Flags: W
HStem: -217 82<31.0182 124.631> 433 14<110 130.228 266.401 313 436 464.495 550.433 568>
DStem2: 252 367 154 390 0.244431 -0.969667<-28.9771 259.747> 225 -23 274 -8 0.506839 0.862041<-131.405 44.8686 161.688 500.195>
LayerCount: 2
Fore
SplineSet
-4 -169 m 0
 -4 -138 21 -117 58 -117 c 0
 78 -117 108 -135 122 -135 c 0
 146 -135 174 -108 225 -23 c 0
 233 -10 246 11 246 17 c 0
 246 20 246 27 245 29 c 2
 154 390 l 2
 147 416 136 430 107 433 c 1
 110 447 l 1
 316 447 l 1
 313 433 l 1
 260 433 247 418 247 396 c 0
 247 388 249 378 252 367 c 2
 311 114 l 1
 469 392 l 2
 471 395 476 403 476 410 c 0
 476 422 465 431 433 433 c 1
 436 447 l 1
 571 447 l 1
 568 433 l 1
 548 433 518 399 504 376 c 2
 274 -8 l 2
 229 -83 157 -217 57 -217 c 0
 21 -217 -4 -198 -4 -169 c 0
EndSplineSet
EndChar

StartChar: z
Encoding: 122 122 91
Width: 443
Flags: W
HStem: 0 31<141 365.76> 416 31<182.184 381>
DStem2: 28 14 141 31 0.66193 0.749566<87.5407 534.987>
LayerCount: 2
Fore
SplineSet
267 31 m 2
 384 31 395 58 429 140 c 1
 447 135 l 1
 404 0 l 1
 25 0 l 1
 28 14 l 1
 381 416 l 1
 255 416 l 2
 169 416 159 384 141 330 c 1
 124 330 l 1
 152 447 l 1
 499 447 l 1
 496 433 l 1
 141 31 l 1
 267 31 l 2
EndSplineSet
EndChar

StartChar: braceleft
Encoding: 123 123 92
Width: 479
Flags: W
HStem: 662 20G<436 451.5>
VStem: 174 69<-141.831 30.9062> 223 69<73.9375 238.319>
DStem2: 150.754 -164 223.281 -164 0.207912 0.978148<93.1385 365.486 475.94 823.224>
LayerCount: 2
Fore
SplineSet
306 -164 m 1xc0
 290 -164 l 2
 211 -164 174 -146 174 -81 c 0xc0
 174 -63 177 -42 182 -17 c 2
 216 143 l 2
 220 163 223 180 223 195 c 0
 223 227 209 245 166 257 c 1
 230 275 251 307 265 370 c 2
 302 544 l 2
 327 662 386 682 486 682 c 1
 417 665 391 627 377 559 c 2
 340 384 l 2
 325 313 304 275 232 257 c 1
 278 244 292 220 292 183 c 0xa0
 292 166 289 145 284 121 c 2
 249 -43 l 2
 245 -60 243 -76 243 -89 c 0
 243 -130 261 -155 306 -164 c 1xc0
EndSplineSet
EndChar

StartChar: bar
Encoding: 124 124 93
Width: 199
Flags: W
HStem: 0 21G<68 136.252> 662 20G<208.748 277>
VStem: 68 209
DStem2: 68 0 132 0 0.207912 0.978148<13.3063 697.244>
LayerCount: 2
Fore
SplineSet
132 0 m 1
 68 0 l 1
 213 682 l 1
 277 682 l 1
 132 0 l 1
EndSplineSet
EndChar

StartChar: braceright
Encoding: 125 125 94
Width: 479
Flags: W
HStem: 662 20G<307.5 326.5>
VStem: 297 69<274.938 443.781> 347 68<479.227 656.88>
DStem2: 188.281 -164 257.754 -164 0.207912 0.978148<52.7614 400.111 515.862 784.552>
LayerCount: 2
Fore
SplineSet
425 257 m 1xc0
 355 240 337 209 323 143 c 2
 289 -17 l 2
 264 -134 221 -164 121 -164 c 2
 105 -164 l 1
 171 -152 199 -111 214 -43 c 2
 249 121 l 2
 264 194 281 238 358 257 c 1
 312 269 297 291 297 326 c 0xc0
 297 343 300 362 305 384 c 2
 342 559 l 2
 346 576 347 591 347 605 c 0
 347 645 330 669 285 682 c 1
 368 682 415 668 415 597 c 0xa0
 415 582 413 564 409 544 c 2
 372 370 l 2
 368 353 366 338 366 325 c 0
 366 290 382 270 425 257 c 1xc0
EndSplineSet
EndChar

StartChar: asciitilde
Encoding: 126 126 95
Width: 540
Flags: W
HStem: 198 63<369.007 495.097> 267 65<159.883 291.977>
LayerCount: 2
Fore
SplineSet
587 307 m 1
 547 253 487 198 423 198 c 0
 346 198 286 267 217 267 c 0
 161 267 123 217 92 177 c 1
 64 217 l 1
 106 270 160 332 231 332 c 0
 300 332 384 261 437 261 c 0
 482 261 533 309 561 347 c 1
 587 307 l 1
EndSplineSet
EndChar

StartChar: uni0E10.descless
Encoding: 63232 63232 96
Width: 508
Flags: W
HStem: -8 43<271.344 336.838> 190 39<154.896 219.367> 319 39<165.046 238.661> 492 71<382.253 520.804> 530 68<231.171 370.769>
VStem: 111 40<232.282 305.074> 198 71<37.0711 110.78> 242 70<241.714 316.62> 401 80<300.98 373.984>
DStem2: 182 476 122 443 0.965188 -0.261558<0 245.192> 176.769 -8 251.72 -8 0.207912 0.978148<92.8145 210.487> 327.933 -8 405.769 -8 0.207912 0.978148<53.1615 361.134>
LayerCount: 2
Fore
SplineSet
577 585 m 0xf680
 577 572 537 492 447 492 c 0xf680
 391 492 338 530 269 530 c 0
 231 530 205 512 182 476 c 1
 444 405 l 2
 457 402 481 395 481 357 c 0
 481 350 480 341 478 332 c 2
 430 106 l 2
 416 41 368 -8 290 -8 c 0
 234 -8 198 32 198 82 c 0xee80
 198 90 199 98 201 106 c 2
 220 198 l 1
 207 192 194 190 178 190 c 0
 134 190 111 219 111 255 c 0
 111 303 152 358 214 358 c 0
 284 358 312 330 312 291 c 0xed80
 312 284 312 277 310 270 c 2
 270 78 l 2
 269 74 269 70 269 67 c 0
 269 50 278 35 299 35 c 0
 325 35 342 58 346 77 c 2
 398 321 l 2
 400 331 401 339 401 346 c 0
 401 361 395 370 380 374 c 2
 122 443 l 1
 142 481 200 598 306 598 c 0xee80
 359 598 436 563 497 563 c 0
 553 563 560 591 573 591 c 0
 575 591 577 589 577 585 c 0xf680
206 319 m 0
 173 319 151 289 151 265 c 0
 151 246 162 229 187 229 c 0
 221 229 242 258 242 285 c 0xe580
 242 303 231 319 206 319 c 0
EndSplineSet
EndChar

StartChar: uni0E34.left
Encoding: 63233 63233 97
Width: 0
Flags: W
HStem: 740 40<-464.842 -285.608> 844 49<-401.707 -231.09>
LayerCount: 2
Back
SplineSet
-116 654 m 1
 -138 667 -249 722 -320 731 c 0
 -414 746 -503 733 -522 728 c 1
 -473 834 -373 900 -271 892 c 0
 -159 885 -94 796 -116 654 c 1
-154 719 m 1
 -168 803 -213 834 -285 843 c 0
 -346 851 -408 820 -439 779 c 1
 -439 779 -366 785 -300 773 c 0
 -209 756 -154 719 -154 719 c 1
EndSplineSet
Fore
Refer: 180 3636 N 1 0 0 1 -173 0 2
EndChar

StartChar: uni0E35.left
Encoding: 63234 63234 98
Width: 0
Flags: W
HStem: 740 40<-464.842 -285.608> 844 49<-401.707 -230.097>
DStem2: -216.086 651 -140.256 651 0.207912 0.978148<202.423 306.769>
LayerCount: 2
Back
SplineSet
-116 654 m 1
 -138 667 -249 720 -320 731 c 0
 -417 746 -503 733 -522 728 c 1
 -482 820 -382 900 -280 892 c 0
 -246 891 -201 883 -166 852 c 1
 -145 951 l 1
 -78 951 l 1
 -118 762 l 1
 -118 762 -107 720 -116 654 c 1
-154 719 m 1
 -168 803 -213 834 -285 843 c 0
 -346 851 -408 820 -439 779 c 1
 -439 779 -366 785 -300 773 c 0
 -209 756 -154 719 -154 719 c 1
EndSplineSet
Fore
Refer: 181 3637 N 1 0 0 1 -173 0 2
EndChar

StartChar: uni0E36.left
Encoding: 63235 63235 99
Width: 0
Flags: W
HStem: 740 40<-498.898 -288.293> 844 50<-400.229 -229.732> 906 45<-166.647 -90.1349>
VStem: -88 46<831.41 903.576>
LayerCount: 2
Back
SplineSet
-143 822 m 0
 -116 822 -99 843 -94 864 c 0
 -90 884 -99 905 -126 905 c 0
 -152 905 -169 884 -173 864 c 0
 -178 843 -169 822 -143 822 c 0
-154 719 m 17
 -168 803 -213 834 -285 843 c 0
 -346 851 -408 820 -439 779 c 1
 -439 779 -366 785 -300 773 c 0
 -209 756 -154 719 -154 719 c 17
-116 654 m 1
 -138 667 -249 720 -320 731 c 0
 -417 746 -503 733 -522 728 c 1
 -481 822 -377 900 -277 892 c 0
 -236 889 -210 877 -210 877 c 1
 -205 908 -168 946 -114 946 c 0
 -66 946 -40 908 -49 865 c 0
 -57 829 -85 791 -124 783 c 1
 -124 783 -102 733 -116 654 c 1
EndSplineSet
Fore
Refer: 182 3638 N 1 0 0 1 -173 0 2
EndChar

StartChar: uni0E37.left
Encoding: 63236 63236 100
Width: 0
Flags: W
HStem: 736 40<-469.125 -289.103> 830 46<-411.703 -297>
DStem2: -209.898 648 -139.193 648 0.207912 0.978148<187.088 309.872>
LayerCount: 2
Back
SplineSet
-116 654 m 1
 -138 667 -249 720 -320 731 c 0
 -417 746 -503 733 -522 728 c 1
 -466 851 -349 902 -275 889 c 1
 -260 951 l 1
 -205 951 l 1
 -220 877 l 1
 -187 869 -163 845 -163 845 c 1
 -141 951 l 1
 -82 951 l 1
 -119 763 l 1
 -119 763 -104 723 -116 654 c 1
-154 719 m 1
 -168 803 -213 834 -285 843 c 0
 -346 851 -408 820 -439 779 c 1
 -439 779 -366 785 -300 773 c 0
 -209 756 -154 719 -154 719 c 1
EndSplineSet
Fore
Refer: 183 3639 N 1 0 0 1 -173 0 2
EndChar

StartChar: ellipsis
Encoding: 8230 8230 101
Width: 998
Flags: W
HStem: -14 115<140.882 212.552 472.633 545.825 805.882 877.552>
VStem: 119 116<7.88312 79.6143> 451 118<9.28319 79.6143> 784 116<7.88312 79.6143>
LayerCount: 2
Fore
SplineSet
900 55 m 0
 900 21 866 -14 828 -14 c 0
 801 -14 784 6 784 32 c 0
 784 71 823 101 852 101 c 0
 880 101 900 80 900 55 c 0
569 55 m 0
 569 24 536 -14 496 -14 c 0
 468 -14 451 7 451 32 c 0
 451 71 489 101 520 101 c 0
 548 101 569 80 569 55 c 0
235 55 m 0
 235 21 201 -14 163 -14 c 0
 136 -14 119 6 119 32 c 0
 119 71 158 101 187 101 c 0
 215 101 235 80 235 55 c 0
EndSplineSet
EndChar

StartChar: uni0E48.low_left
Encoding: 63237 63237 102
Width: 0
Flags: W
HStem: 670 244<-166 -143>
VStem: -201 127
LayerCount: 2
Back
SplineSet
-78 926 m 1
 -144 685 l 1
 -195 685 l 1
 -159 926 l 1
 -78 926 l 1
EndSplineSet
Fore
Refer: 107 63242 N 1 0 0 1 -173 0 2
EndChar

StartChar: uni0E49.low_left
Encoding: 63238 63238 103
Width: 0
Flags: W
HStem: 668 48<-299 -207.625> 776 37<-343.385 -285.533> 919 36<-328.195 -247.992>
VStem: -390 41<817.755 899.861> -241 43<830.557 913.495> -32 81<902.091 952>
LayerCount: 2
Back
SplineSet
-31 931 m 17
 -140 637 -429 667 -460 670 c 1
 -453 703 l 1
 -443 707 -382 734 -353 780 c 1
 -353 780 -363 776 -379 776 c 0
 -434 776 -453 816 -444 856 c 0
 -435 897 -400 937 -345 937 c 0
 -259 937 -273 857 -273 857 c 1
 -292 765 -364 716 -364 716 c 1
 -363 714 l 1
 -298 723 -156 766 -112 931 c 1
 -31 931 l 17
-370 811 m 0
 -340 811 -320 834 -315 856 c 0
 -310 879 -320 902 -350 902 c 0
 -381 902 -401 879 -406 856 c 0
 -411 834 -401 811 -370 811 c 0
EndSplineSet
Fore
Refer: 108 63243 N 1 0 0 1 -173 0 2
EndChar

StartChar: uni0E4A.low_left
Encoding: 63239 63239 104
Width: 0
Flags: W
HStem: 668 30<-407.485 -342.815> 782 32<-396.171 -331.45> 876 56<-382.303 -339>
VStem: -467 43<777 832.681> -467 55<700.527 809.711> -327 35<711.775 777.883> -180 56<761.963 871.227> -44 76<860.423 926>
LayerCount: 2
Back
SplineSet
-53 906 m 17
 -75 768 -164 684 -294 670 c 1
 -288 694 l 1
 -259 710 -239 744 -232 776 c 0
 -225 810 -233 842 -258 849 c 1
 -323 811 l 1
 -368 849 l 1
 -405 849 -442 806 -444 768 c 1
 -444 768 -428 800 -378 800 c 0
 -340 800 -318 770 -325 737 c 0
 -334 697 -363 667 -406 667 c 0
 -469 667 -497 720 -481 793 c 0
 -471 843 -409 903 -356 903 c 1
 -311 857 l 1
 -247 902 l 1
 -181 884 -171 839 -179 798 c 0
 -185 771 -199 745 -211 728 c 1
 -146 766 -116 834 -117 906 c 1
 -53 906 l 17
-357 733 m 0
 -352 758 -368 770 -386 770 c 0
 -405 770 -427 758 -432 733 c 0
 -438 708 -421 696 -402 696 c 0
 -384 696 -363 708 -357 733 c 0
EndSplineSet
Fore
Refer: 109 63244 N 1 0 0 1 -173 0 2
EndChar

StartChar: uni0E4B.low_left
Encoding: 63240 63240 105
Width: 0
Flags: W
HStem: 677 21<-203 -138.4> 779 60<-284 -183 -105 -7>
VStem: -296 301
DStem2: -203 677 -143 677 0.207912 0.978148<12.4747 101.973 179.813 270.021>
LayerCount: 2
Back
SplineSet
-68 777 m 1
 -182 776 l 1
 -205 676 l 1
 -262 676 l 1
 -242 776 l 1
 -357 777 l 1
 -345 834 l 1
 -231 836 l 1
 -211 935 l 1
 -145 935 l 1
 -168 836 l 1
 -56 834 l 1
 -68 777 l 1
EndSplineSet
Fore
Refer: 110 63245 N 1 0 0 1 -173 0 2
EndChar

StartChar: uni0E4C.low_left
Encoding: 63241 63241 106
Width: 0
Flags: W
HStem: 668 39<-265.223 -190.377>
VStem: -310 41<710.949 780.58> -178 44<717.112 792.34>
LayerCount: 2
Back
SplineSet
-23 954 m 1
 -59 846 -181 826 -226 816 c 1
 -198 811 -188 777 -194 748 c 0
 -203 707 -242 670 -291 670 c 0
 -340 670 -365 707 -356 748 c 0
 -348 786 -325 831 -216 860 c 0
 -164 876 -102 906 -92 968 c 1
 -23 954 l 1
-284 703 m 0
 -255 703 -236 724 -231 746 c 0
 -227 767 -237 788 -266 788 c 0
 -295 788 -314 767 -318 746 c 0
 -323 724 -313 703 -284 703 c 0
EndSplineSet
Fore
Refer: 111 63246 N 1 0 0 1 -173 0 2
EndChar

StartChar: uni0E48.low
Encoding: 63242 63242 107
Width: 0
Flags: W
HStem: 670 244<7 30>
VStem: -28 127
AnchorPoint: "AboveMark" 65 968 basemark 0
AnchorPoint: "AboveBase" 31 645 mark 0
LayerCount: 2
Back
SplineSet
99 914 m 1
 30 670 l 1
 -28 670 l 1
 7 914 l 1
 99 914 l 1
EndSplineSet
Fore
SplineSet
99 914 m 1
 30 670 l 1
 -28 670 l 1
 7 914 l 1
 99 914 l 1
EndSplineSet
EndChar

StartChar: uni0E49.low
Encoding: 63243 63243 108
Width: 0
Flags: W
HStem: 668 48<-126 -34.6252> 776 37<-170.385 -112.533> 919 36<-155.195 -74.9924>
VStem: -217 41<817.755 899.861> -68 43<830.557 913.495> 141 81<902.091 952>
AnchorPoint: "AboveMark" 17 968 basemark 0
AnchorPoint: "AboveBase" 31 645 mark 0
LayerCount: 2
Fore
SplineSet
-217 846 m 0
 -217 899 -172 955 -104 955 c 0
 -34 955 -25 908 -25 882 c 0
 -25 873 -26 867 -26 866 c 0
 -47 765 -126 716 -126 716 c 1
 -124 716 l 1
 -124 716 84 722 141 952 c 1
 222 952 l 17
 143 696 -77 668 -175 668 c 0
 -199 668 -215 669 -222 670 c 1
 -214 705 l 1
 -205 708 -142 733 -112 780 c 1
 -112 780 -125 776 -142 776 c 0
 -194 776 -217 809 -217 846 c 0
-112 919 m 0
 -150 919 -176 885 -176 854 c 0
 -176 832 -164 813 -134 813 c 0
 -94 813 -68 847 -68 878 c 0
 -68 900 -82 919 -112 919 c 0
EndSplineSet
EndChar

StartChar: uni0E4A.low
Encoding: 63244 63244 109
Width: 0
Flags: W
HStem: 668 30<-234.485 -169.815> 782 32<-223.171 -158.45> 876 56<-209.303 -166>
VStem: -294 55<700.527 809.711> -294 43<777 832.681> -154 35<711.775 777.883> -7 56<761.963 871.227> 129 76<860.423 926>
AnchorPoint: "AboveMark" -62 968 basemark 0
AnchorPoint: "AboveBase" 31 645 mark 0
LayerCount: 2
Fore
SplineSet
16 739 m 1xf7
 37 750 129 814 129 926 c 1
 205 926 l 17
 177 793 78 691 -81 670 c 1
 -74 699 l 1
 -32 721 -7 777 -7 820 c 0
 -7 847 -17 869 -38 876 c 1
 -112 831 l 1
 -166 876 l 1
 -205 876 -251 820 -251 777 c 1xef
 -250 777 l 1
 -250 777 -231 814 -179 814 c 0
 -144 814 -119 789 -119 758 c 0
 -119 723 -150 668 -210 668 c 0
 -266 668 -294 710 -294 767 c 0
 -294 871 -201 931 -151 932 c 1
 -149 931 -99 885 -99 883 c 1
 -29 932 l 1
 32 914 49 877 49 840 c 0
 49 789 15 742 14 739 c 1
 16 739 l 1xf7
-206 698 m 0
 -182 698 -154 716 -154 750 c 0
 -154 771 -170 782 -188 782 c 0
 -219 782 -239 754 -239 729 c 0xf7
 -239 709 -223 698 -206 698 c 0
EndSplineSet
EndChar

StartChar: uni0E4B.low
Encoding: 63245 63245 110
Width: 0
Flags: W
HStem: 677 21G<-30 34.6> 779 60<-111 -10 68 166>
VStem: -123 301
DStem2: -30 677 30 677 0.207912 0.978148<12.4747 101.973 179.813 270.021>
AnchorPoint: "AboveMark" 62 968 basemark 0
AnchorPoint: "AboveBase" 31 645 mark 0
LayerCount: 2
Fore
SplineSet
166 779 m 1
 53 777 l 1
 30 677 l 1
 -30 677 l 1
 -10 777 l 1
 -123 779 l 1
 -111 839 l 1
 2 840 l 1
 22 942 l 1
 91 942 l 1
 68 840 l 1
 178 839 l 1
 166 779 l 1
EndSplineSet
EndChar

StartChar: uni0E4C.low
Encoding: 63246 63246 111
Width: 0
Flags: W
HStem: 668 39<-92.223 -17.3767>
VStem: -137 41<710.949 780.58> -5 44<717.112 792.34>
AnchorPoint: "AboveMark" -1 968 basemark 0
AnchorPoint: "AboveBase" 31 645 mark 0
LayerCount: 2
Fore
SplineSet
39 770 m 0
 39 714 -12 668 -65 668 c 0
 -115 668 -137 696 -137 732 c 0
 -137 816 -56 852 7 871 c 0
 63 888 112 917 134 971 c 1
 202 949 l 1
 156 851 42 835 0 825 c 1
 29 820 39 796 39 770 c 0
-38 794 m 0
 -73 794 -96 766 -96 742 c 0
 -96 724 -84 707 -57 707 c 0
 -25 707 -5 734 -5 761 c 0
 -5 779 -15 794 -38 794 c 0
EndSplineSet
EndChar

StartChar: uni0E0D.descless
Encoding: 63247 63247 112
Width: 800
Flags: W
HStem: -8 40<185.704 261.961 502.449 608.774> 121 41<208.533 272.835> 392 44<190 212 260.662 350> 547 51<291.294 449.233>
VStem: 115 67<34.7101 109.175> 276 41<45.8759 117.765> 417 74<40.6941 191.992> 486 78<382.239 511.09>
DStem2: 93.1309 -8 173.566 -8 0.207912 0.978148<182.343 403.695> 393.493 -8 469.831 -8 0.207912 0.978148<111.471 462.761> 615.044 -8 692.194 -8 0.207912 0.978148<72.1759 550.144>
LayerCount: 2
Fore
SplineSet
317 97 m 0xfd
 317 47 271 -8 210 -8 c 0
 132 -8 115 38 115 78 c 0
 115 89 116 100 118 109 c 2
 164 324 l 2
 175 375 212 392 212 392 c 1
 128 392 l 1
 161 527 286 598 397 598 c 0
 495 598 564 536 564 449 c 0xfd
 564 438 563 425 560 413 c 2
 493 101 l 2
 492 96 491 90 491 85 c 0
 491 53 513 29 550 29 c 0
 594 29 630 60 638 100 c 2
 730 530 l 1
 790 588 l 2
 794 592 801 594 806 594 c 0
 812 594 816 591 816 580 c 0
 816 576 816 572 815 567 c 2
 716 104 l 2
 705 54 629 -8 540 -8 c 0
 464 -8 417 36 417 91 c 0xfe
 417 98 417 105 419 112 c 2
 482 407 l 2
 485 421 486 434 486 446 c 0
 486 517 436 547 376 547 c 0
 298 547 219 500 190 436 c 1
 360 436 l 1
 350 392 l 1
 301 392 l 2
 259 392 249 347 248 342 c 2
 208 154 l 1
 224 159 239 162 251 162 c 0
 296 162 317 132 317 97 c 0xfd
238 121 m 0
 203 121 182 91 182 66 c 0
 182 48 194 32 219 32 c 0
 253 32 276 60 276 87 c 0
 276 106 265 121 238 121 c 0
EndSplineSet
EndChar

StartChar: quoteleft
Encoding: 8216 8216 113
Width: 333
Flags: W
VStem: 203 153<483.504 573.531>
LayerCount: 2
Fore
SplineSet
356 538 m 0
 356 515 339 456 272 456 c 0
 222 456 203 494 203 534 c 0
 203 631 313 706 367 728 c 1
 375 700 l 1
 333 679 271 624 263 588 c 0
 262 582 260 578 266 578 c 0
 273 578 283 585 299 585 c 0
 332 585 356 569 356 538 c 0
EndSplineSet
EndChar

StartChar: quoteright
Encoding: 8217 8217 114
Width: 333
Flags: W
HStem: 455 21G<210.333 245>
VStem: 227 154<609.832 699.2>
LayerCount: 2
Fore
SplineSet
227 645 m 0
 227 678 253 727 312 727 c 0
 362 727 381 690 381 649 c 0
 381 553 273 478 217 455 c 1
 208 482 l 1
 250 504 313 559 320 594 c 0
 322 601 324 605 318 605 c 0
 311 605 301 598 285 598 c 0
 251 598 227 614 227 645 c 0
EndSplineSet
EndChar

StartChar: bullet
Encoding: 8226 8226 117
Width: 385
Flags: W
HStem: 189 261<212.403 308.184>
VStem: 128 266<273.217 367.197>
LayerCount: 2
Fore
SplineSet
394 347 m 0
 394 269 321 189 232 189 c 0
 170 189 128 233 128 292 c 0
 128 379 208 450 288 450 c 0
 352 450 394 406 394 347 c 0
EndSplineSet
EndChar

StartChar: endash
Encoding: 8211 8211 118
Width: 768
Flags: W
HStem: 214 47<89 779>
LayerCount: 2
Fore
SplineSet
779 214 m 1
 79 214 l 1
 89 261 l 1
 789 261 l 1
 779 214 l 1
EndSplineSet
EndChar

StartChar: emdash
Encoding: 8212 8212 119
Width: 1536
Flags: W
HStem: 214 47<77 1559>
LayerCount: 2
Fore
SplineSet
1559 214 m 1
 67 214 l 1
 77 261 l 1
 1569 261 l 1
 1559 214 l 1
EndSplineSet
EndChar

StartChar: uni0E31.left
Encoding: 63248 63248 120
Width: 0
Flags: W
HStem: 676 52<-242.286 -67.0363> 874 41<-300.347 -224.178>
VStem: -364 49<785.056 860.52> -221 46<795.077 871.8>
LayerCount: 2
Back
SplineSet
259 908 m 17
 186 750 16 677 -121 677 c 0
 -262 677 -334 752 -318 826 c 0
 -309 871 -267 912 -210 912 c 1
 -161 915 -128 877 -139 822 c 0
 -151 767 -204 745 -204 745 c 1
 -172 734 -140 729 -109 729 c 0
 31 729 148 833 171 908 c 1
 259 908 l 17
-236 780 m 0
 -206 780 -187 803 -182 826 c 0
 -178 848 -187 871 -217 871 c 0
 -248 871 -268 848 -272 826 c 0
 -277 803 -267 780 -236 780 c 0
EndSplineSet
Fore
Refer: 177 3633 N 1 0 0 1 -173 0 2
EndChar

StartChar: uni0E4D.left
Encoding: 63249 63249 121
Width: 0
Flags: W
HStem: 668 43<-199.602 -118.761> 813 46<-187.602 -105.751>
VStem: -250 46<715.216 796.821> -101 46<728.213 808.848>
LayerCount: 2
Back
SplineSet
-206 676 m 0
 -268 676 -290 723 -280 770 c 0
 -271 816 -229 863 -167 863 c 0
 -105 863 -84 816 -94 769 c 0
 -104 722 -143 676 -206 676 c 0
-198 717 m 0
 -164 717 -140 743 -135 768 c 0
 -129 794 -142 820 -176 820 c 0
 -212 820 -234 794 -240 768 c 0
 -245 743 -234 717 -198 717 c 0
EndSplineSet
Fore
Refer: 203 3661 N 1 0 0 1 -173 0 2
EndChar

StartChar: uni0E47.left
Encoding: 63250 63250 122
Width: 0
Flags: W
HStem: 668 44<-202.713 -128.29> 757 57<-377.329 -299.535> 795 39<-192.796 -121.734> 886 52<-302.516 -112.174> 898 49<-373.863 -187.145>
VStem: -469 60<763.047 862.129> -119 40<722.818 791.849> -84 79<970.749 1028>
LayerCount: 2
Back
SplineSet
-24 995 m 17x40
 -45 895 -106 837 -258 868 c 0
 -321 880 -366 882 -389 822 c 0
 -401 794 -399 763 -393 753 c 1x40
 -393 753 -374 800 -322 800 c 0x20
 -269 800 -257 746 -234 734 c 1
 -234 734 -236 740 -234 748 c 0
 -224 796 -183 820 -147 820 c 0x10
 -110 820 -78 795 -89 745 c 0
 -100 693 -145 668 -177 668 c 0
 -277 668 -275 745 -326 745 c 0xa0
 -378 745 -383 684 -373 668 c 1
 -409 668 l 1
 -444 702 -463 773 -428 846 c 0
 -409 891 -351 952 -231 923 c 0
 -152 905 -107 911 -95 995 c 1
 -24 995 l 17x40
-125 745 m 0xa0
 -119 771 -135 784 -154 784 c 0x10
 -173 784 -195 771 -201 745 c 0
 -206 720 -190 708 -171 708 c 0
 -152 708 -130 720 -125 745 c 0xa0
EndSplineSet
Fore
Refer: 197 3655 N 1 0 0 1 -149 0 2
EndChar

StartChar: uni0E48.left
Encoding: 63251 63251 123
Width: 0
Flags: W
HStem: 1009 201<-98 -75>
VStem: -129 109
LayerCount: 2
Back
SplineSet
-15 1226 m 1
 -75 1006 l 1
 -129 1006 l 1
 -94 1226 l 1
 -15 1226 l 1
EndSplineSet
Fore
Refer: 198 3656 N 1 0 0 1 -177 0 2
EndChar

StartChar: uni0E49.left
Encoding: 63252 63252 124
Width: 0
Flags: W
HStem: 1063 37<-259.124 -216.28> 1184 34<-246.847 -176.785>
VStem: -299 37<1103.91 1170.08> -173 39<1112.54 1181.49> 50 80<1165.19 1213>
LayerCount: 2
Back
SplineSet
184 1229 m 17
 120 1052 -45 975 -224 997 c 1
 -218 1026 l 1
 -190 1034 -156 1049 -132 1081 c 1
 -132 1081 -141 1078 -146 1078 c 0
 -199 1078 -217 1116 -209 1154 c 0
 -201 1191 -167 1229 -114 1229 c 0
 -35 1229 -50 1154 -50 1154 c 1
 -67 1072 -132 1035 -132 1035 c 1
 -133 1032 l 1
 -23 1038 72 1098 109 1229 c 1
 184 1229 l 17
-139 1111 m 0
 -111 1111 -92 1132 -88 1153 c 0
 -83 1174 -93 1195 -121 1195 c 0
 -151 1195 -170 1174 -175 1153 c 0
 -179 1132 -169 1111 -139 1111 c 0
EndSplineSet
Fore
Refer: 199 3657 N 1 0 0 1 -262 0 2
EndChar

StartChar: uni0E4A.left
Encoding: 63253 63253 125
Width: 0
Flags: W
HStem: 989 29<-203.241 -142.652> 1093 30<-193.396 -133.551> 1172 54<-188.108 -141>
VStem: -259 42<1091 1138.56> -259 52<1019.3 1118.6> -130 32<1029.71 1089.3> -3 53<1070.74 1169.09> 109 64<1151.91 1229>
LayerCount: 2
Back
SplineSet
181 1229 m 17
 160 1091 66 1012 -59 995 c 1
 -53 1020 l 1
 -24 1036 -4 1070 3 1101 c 0
 10 1135 2 1168 -22 1175 c 1
 -87 1137 l 1
 -132 1175 l 1
 -169 1175 -206 1132 -208 1094 c 1
 -208 1094 -193 1126 -143 1126 c 0
 -105 1126 -83 1095 -90 1063 c 0
 -99 1023 -128 994 -171 994 c 0
 -234 994 -262 1046 -246 1118 c 0
 -236 1169 -174 1229 -121 1229 c 1
 -121 1229 -75 1185 -76 1183 c 1
 -12 1229 l 1
 54 1211 65 1166 56 1124 c 0
 50 1097 37 1071 24 1054 c 1
 89 1092 119 1157 117 1229 c 1
 181 1229 l 17
-122 1058 m 0
 -117 1084 -133 1096 -151 1096 c 0
 -170 1096 -192 1084 -197 1058 c 0
 -202 1034 -186 1023 -167 1023 c 0
 -149 1023 -127 1034 -122 1058 c 0
EndSplineSet
Fore
Refer: 200 3658 N 1 0 0 1 -209 0 2
EndChar

StartChar: uni0E4B.left
Encoding: 63254 63254 126
Width: 0
Flags: HW
HStem: 1081 57<-210 -115 -41 50>
VStem: -222 284
DStem2: -132 992 -75 992 0.207912 0.978148<11.851 89.6115 163.686 241.177>
LayerCount: 2
Back
SplineSet
50 1081 m 1
 -54 1080 l 1
 -75 992 l 1
 -132 992 l 1
 -114 1080 l 1
 -222 1081 l 1
 -210 1138 l 1
 -104 1140 l 1
 -86 1229 l 1
 -20 1229 l 1
 -41 1140 l 1
 62 1138 l 1
 50 1081 l 1
EndSplineSet
Fore
Refer: 201 3659 N 1 0 0 1 -171 0 2
EndChar

StartChar: uni0E4C.left
Encoding: 63255 63255 127
Width: 0
Flags: W
HStem: 902 29<-147.758 -84.0624>
VStem: -189 36<934.366 1000.15> -67 34<945.73 1010.4>
LayerCount: 2
Back
SplineSet
147 1164 m 17
 103 1085 5 1069 -56 1060 c 1
 -31 1048 -24 1023 -29 997 c 0
 -37 960 -71 923 -119 923 c 0
 -168 923 -190 954 -181 997 c 0
 -168 1057 -114 1091 -41 1103 c 0
 -14 1107 76 1140 91 1193 c 1
 147 1164 l 17
-114 952 m 0
 -86 952 -67 973 -63 994 c 0
 -58 1014 -68 1035 -96 1035 c 0
 -124 1035 -142 1014 -147 994 c 0
 -151 973 -142 952 -114 952 c 0
EndSplineSet
Fore
Refer: 202 3660 N 1 0 0 1 -147 0 2
EndChar

StartChar: uni0E01
Encoding: 3585 3585 129
Width: 602
Flags: W
HStem: 0 21G<95 179.223 422 503.262> 392 44<190 212 260.641 350> 550 49<299.028 468.456>
VStem: 513 78<329.898 508.987>
DStem2: 95 0 175 0 0.207912 0.978148<16.6329 395.778> 422 0 499 0 0.207912 0.978148<16.0092 451.734>
LayerCount: 2
Fore
SplineSet
499 0 m 1
 422 0 l 1
 509 407 l 2
 512 420 513 432 513 443 c 0
 513 517 456 550 388 550 c 0
 313 550 226 508 190 436 c 1
 360 436 l 1
 350 392 l 1
 301 392 l 2
 258 392 248 343 247 341 c 2
 175 0 l 1
 95 0 l 1
 164 324 l 2
 174 373 212 392 212 392 c 1
 128 392 l 1
 157 528 294 599 412 599 c 0
 506 599 591 543 591 449 c 0
 591 437 590 425 587 413 c 2
 499 0 l 1
EndSplineSet
EndChar

StartChar: uni0E02
Encoding: 3586 3586 130
Width: 585
Flags: W
HStem: -8 43<333.952 407.073> 319 33<165.882 232.745> 438 34<176.493 245.064> 547 51<212.975 321.867>
VStem: 118 44<354.291 460.003> 249 36<367.19 434.185> 255 76<37.2331 176.516> 334 80<421.039 535.594>
DStem2: 233.769 -8 313.72 -8 0.207912 0.978148<95.6705 499.718> 401.933 -8 480.769 -8 0.207912 0.978148<57.4728 550.167>
LayerCount: 2
Fore
SplineSet
118 406 m 0xfd
 118 500 184 598 297 598 c 0
 375 598 414 551 414 487 c 0
 414 475 413 462 410 449 c 2
 332 78 l 2
 331 75 331 72 331 69 c 0
 331 51 344 35 366 35 c 0
 391 35 416 58 420 77 c 2
 517 530 l 1
 578 588 l 2
 582 591 587 594 592 594 c 0
 598 594 604 590 604 578 c 0
 604 575 604 571 603 567 c 2
 505 106 l 18
 491 40 437 -8 357 -8 c 0
 294 -8 255 29 255 81 c 0
 255 89 256 97 258 106 c 2
 331 453 l 2xfb
 333 463 334 473 334 482 c 0
 334 520 316 547 276 547 c 0
 224 547 181 513 167 453 c 1
 188 468 198 472 221 472 c 0
 265 471 285 444 285 413 c 0
 285 369 248 319 191 319 c 0
 136 319 118 360 118 406 c 0xfd
214 438 m 0
 182 438 162 410 162 385 c 0
 162 367 173 352 196 352 c 0
 228 352 249 381 249 404 c 0xfd
 249 422 239 438 214 438 c 0
EndSplineSet
EndChar

StartChar: uni0E03
Encoding: 3587 3587 131
Width: 634
Flags: W
HStem: -8 43<379.896 457.028> 280 32<153.778 221.711> 399 34<163.701 234.644> 452 21G<264.722 304.444> 573 21G<184.5 253.59 639.5 644.5>
VStem: 103 46<314.033 430.429> 239 33<328.58 394.428> 304 74<37.4793 173.156> 386 78<429.938 522.199>
DStem2: 281.769 -8 360.72 -8 0.207912 0.978148<94.4851 515.13> 293 515 280 452 0.788234 0.615376<0 67.6196> 449.933 -8 528.769 -8 0.207912 0.978148<57.4728 550.167>
LayerCount: 2
Fore
SplineSet
272 375 m 0
 272 329 234 280 175 280 c 0
 122 280 103 320 103 370 c 0
 103 422 129 563 240 593 c 1
 293 515 l 1
 384 591 l 1
 437 588 464 554 464 501 c 0
 464 488 463 475 460 461 c 2
 379 78 l 2
 378 75 378 71 378 68 c 0
 378 51 389 35 414 35 c 0
 442 35 464 58 468 77 c 2
 565 530 l 1
 626 588 l 2
 630 591 637 594 642 594 c 0
 647 594 652 590 652 579 c 0
 652 576 652 572 651 567 c 2
 553 106 l 2
 539 40 485 -8 405 -8 c 0
 342 -8 304 33 304 83 c 0
 304 91 304 98 306 106 c 2
 381 461 l 2
 384 474 386 486 386 497 c 0
 386 513 381 524 368 524 c 1
 280 452 l 1
 225 524 l 1
 211 524 167 512 156 413 c 1
 156 413 173 433 209 433 c 0
 253 433 272 406 272 375 c 0
183 312 m 0
 217 312 239 341 239 365 c 0
 239 383 228 399 202 399 c 0
 170 399 149 372 149 345 c 0
 149 327 160 312 183 312 c 0
EndSplineSet
EndChar

StartChar: uni0E04
Encoding: 3588 3588 132
Width: 589
Flags: W
HStem: 0 21G<101 184.279 412 492.239> 273 36<285.996 364.133> 407 37<299.152 378.02> 553 46<277.696 461.706>
VStem: 118 47<325.189 453.403> 383 35<327.836 401.436> 503 76<370.154 511.964>
DStem2: 101 0 180 0 0.207912 0.978148<16.425 237.959> 412 0 488 0 0.207912 0.978148<15.8013 456.486>
LayerCount: 2
Fore
SplineSet
342 407 m 0
 305 407 281 376 281 347 c 0
 281 327 293 309 321 309 c 0
 359 309 383 340 383 369 c 0
 383 389 371 407 342 407 c 0
364 553 m 0
 272 553 165 480 165 378 c 0
 165 351 174 331 192 321 c 1
 215 376 263 444 346 444 c 0
 395 444 418 413 418 378 c 0
 418 329 377 273 308 273 c 0
 270 273 254 301 254 301 c 1
 241 280 232 246 229 229 c 2
 180 0 l 1
 101 0 l 1
 149 224 l 2
 150 227 150 230 150 233 c 0
 150 266 118 302 118 367 c 0
 118 501 242 599 374 599 c 0
 483 599 579 565 579 453 c 0
 579 437 577 420 573 401 c 2
 488 0 l 1
 412 0 l 1
 497 401 l 2
 501 418 503 434 503 448 c 0
 503 530 441 553 364 553 c 0
EndSplineSet
EndChar

StartChar: uni0E05
Encoding: 3589 3589 133
Width: 588
Flags: W
HStem: 0 21G<101 184.25 410 491.261> 273 36<286.229 364.133> 407 37<299.457 378.02> 574 20G<245.5 316.857 441.143 485.5>
VStem: 118 49<325.35 457.04> 383 35<327.836 401.436> 505 73<342.891 520.975>
DStem2: 101 0 180 0 0.207912 0.978148<16.425 243.99> 296 594 280 538 0.73994 -0.672673<15.9462 101.103> 369 524 357 468 0.829588 0.558376<0 91.4646> 410 0 487 0 0.207912 0.978148<16.0092 474.649>
LayerCount: 2
Fore
SplineSet
418 378 m 0
 418 329 377 273 308 273 c 0
 273 273 258 295 258 295 c 1
 245 287 237 267 231 240 c 2
 180 0 l 1
 101 0 l 1
 150 229 l 2
 151 232 151 235 151 239 c 0
 151 272 118 308 118 371 c 0
 118 471 195 566 296 594 c 1
 369 524 l 1
 470 594 l 1
 501 589 578 561 578 455 c 0
 578 438 576 420 572 399 c 2
 487 0 l 1
 410 0 l 1
 495 399 l 2
 500 424 505 446 505 466 c 0
 505 494 495 518 461 538 c 1
 357 468 l 1
 280 538 l 1
 237 526 167 463 167 379 c 0
 167 351 177 331 194 321 c 1
 221 390 263 444 346 444 c 0
 395 444 418 413 418 378 c 0
342 407 m 0
 305 407 281 376 281 347 c 0
 281 327 293 309 321 309 c 0
 359 309 383 340 383 369 c 0
 383 389 371 407 342 407 c 0
EndSplineSet
EndChar

StartChar: uni0E06
Encoding: 3590 3590 134
Width: 757
Flags: W
HStem: -8 53<249.125 299.96> 0 21G<545 655.268> 141 49<407 465.75> 144 54<266.189 318> 280 32<158.459 225.991> 399 34<168.325 238.705> 452 21G<269.444 309.167> 573 21G<188.5 257.846 761.5 767>
VStem: 107 47<313.907 471.131> 201 47<45.9892 126.781> 243 34<328.438 394.396> 390 79<383.852 523.085>
DStem2: 285.691 -8 367.43 -8 0.207912 0.978148<50.5117 155.396 218.895 516.124> 298 515 285 452 0.789538 0.613702<0 66.5669> 571.933 -8 649.3 -8 0.207912 0.978148<86.8989 550.167>
LayerCount: 2
Fore
SplineSet
318 144 m 1x9fd0
 262 144 248 100 248 77 c 0
 248 55 260 45 274 45 c 0
 286 45 298 53 301 68 c 2
 318 144 l 1x9fd0
201 67 m 0
 201 125 248 198 329 198 c 1x9fd0
 385 461 l 2
 388 475 390 487 390 498 c 0
 390 514 385 524 372 524 c 1
 285 452 l 1
 229 524 l 1
 182 524 160 433 160 413 c 1
 160 413 178 433 213 433 c 0
 257 433 277 406 277 374 c 0
 277 329 238 280 180 280 c 0
 126 280 107 320 107 370 c 0
 107 420 133 561 244 593 c 1
 298 515 l 1
 389 591 l 1
 442 588 469 554 469 501 c 0
 469 488 468 475 465 461 c 2
 407 190 l 1
 407 190 535 170 590 77 c 1
 687 530 l 1
 749 588 l 2
 753 592 759 594 764 594 c 0
 770 594 774 591 774 581 c 0
 774 577 773 573 772 567 c 2
 651 0 l 1
 570 0 l 1
 520 134 399 141 399 141 c 1x6fb0
 394 117 l 2
 379 45 360 -8 282 -8 c 0
 225 -8 201 26 201 67 c 0
206 399 m 0
 173 399 154 371 154 345 c 0
 154 327 164 312 187 312 c 0
 221 312 243 341 243 365 c 0x0fb0
 243 383 232 399 206 399 c 0
EndSplineSet
EndChar

StartChar: uni0E07
Encoding: 3591 3591 135
Width: 479
Flags: W
HStem: 0 21G<280.725 382.262> 418 37<313.243 389.377> 556 38<327.102 408.741>
VStem: 268 40<459.986 538.202> 415 71<471.759 551.544>
DStem2: 298.169 0 378 0 0.207912 0.978148<100.189 441.652>
LayerCount: 2
Fore
SplineSet
268 486 m 0
 268 536 314 594 390 594 c 0
 472 594 486 552 486 521 c 0
 486 505 483 492 482 488 c 2
 378 0 l 1
 295 0 l 1
 103 269 l 1
 117 326 l 1
 319 98 l 1
 390 432 l 1
 376 419 359 418 346 418 c 0
 293 418 268 450 268 486 c 0
371 556 m 0
 330 556 308 522 308 493 c 0
 308 473 321 455 350 455 c 0
 390 455 415 488 415 516 c 0
 415 537 401 556 371 556 c 0
EndSplineSet
EndChar

StartChar: uni0E08
Encoding: 3592 3592 136
Width: 565
Flags: W
HStem: -5 43<312.607 388.799> 276 40<211.847 275.619> 406 41<222.426 297.902> 544 54<275.574 435.597>
VStem: 169 40<318.968 391.958> 236 73<41.8697 113.508> 301 70<328.48 403.522> 474 81<335.625 507.744>
DStem2: 214.146 -5 291.72 -5 0.207912 0.978148<96.1537 297.501> 380.933 -5 460.769 -5 0.207912 0.978148<57.6807 461.06>
LayerCount: 2
Fore
SplineSet
169 344 m 0xfd
 169 402 221 447 279 447 c 0
 350 447 371 417 371 381 c 0xfb
 371 372 370 364 368 355 c 2
 310 81 l 2
 310 78 309 76 309 73 c 0
 309 55 322 38 346 38 c 0
 375 38 395 61 399 80 c 2
 471 419 l 2
 473 429 474 438 474 447 c 0
 474 507 429 544 359 544 c 0
 250 544 174 464 158 439 c 1
 128 453 l 1
 162 508 258 598 370 598 c 0
 485 598 555 549 555 457 c 0
 555 443 553 429 550 413 c 2
 485 109 l 2
 471 43 417 -5 337 -5 c 0
 279 -5 236 37 236 88 c 0
 236 95 237 102 238 109 c 2
 276 286 l 1
 263 280 251 276 237 276 c 0
 192 276 169 307 169 344 c 0xfd
264 406 m 0
 229 406 209 376 209 350 c 0
 209 331 220 316 245 316 c 0
 280 316 301 346 301 371 c 0
 301 390 289 406 264 406 c 0
EndSplineSet
EndChar

StartChar: uni0E09
Encoding: 3593 3593 137
Width: 615
Flags: W
HStem: -8 40<439.916 517.59> 0 21G<177 256> 121 51<449.284 469> 233 39<162.351 227.236> 364 40<172.998 247.574> 544 54<301.017 475.028>
VStem: 117 42<274.828 351.268> 251 69<284.999 360.769> 398 39<35.9252 106.601> 523 79<331.508 500.266> 531 42<44.2648 117.619>
DStem2: 175.3 -8 250.957 -8 0.207912 0.978148<23.7721 72.6168 116.942 253.538> 430.74 -8 507.827 -8 0.207912 0.978148<188.885 457.025>
LayerCount: 2
Fore
SplineSet
573 97 m 0x7fa0
 573 48 532 -8 465 -8 c 0xbfa0
 423 -8 398 23 398 59 c 0
 398 99 428 126 428 127 c 1
 315 106 260 14 252 0 c 1
 177 0 l 1
 228 240 l 1
 212 235 199 233 187 233 c 0
 139 233 117 265 117 301 c 0
 117 359 164 404 236 404 c 0
 298 404 320 376 320 332 c 0
 320 320 318 306 315 292 c 2
 272 91 l 1
 279 89 l 1
 279 89 335 166 469 172 c 1
 520 415 l 2
 522 424 523 432 523 440 c 0
 523 502 471 544 386 544 c 0
 280 544 191 464 173 439 c 1
 144 453 l 1
 213 551 321 598 409 598 c 0
 516 598 602 546 602 452 c 0x7fc0
 602 441 601 429 598 416 c 2
 548 181 l 2
 546 169 530 164 530 164 c 1
 529 161 l 1
 559 154 573 127 573 97 c 0x7fa0
214 364 m 0
 180 364 159 336 159 307 c 0
 159 288 170 272 195 272 c 0
 228 272 251 301 251 328 c 0
 251 347 240 364 214 364 c 0
493 121 m 0
 458 121 437 91 437 66 c 0
 437 48 449 32 474 32 c 0
 510 32 531 61 531 86 c 0
 531 105 519 121 493 121 c 0
EndSplineSet
EndChar

StartChar: uni0E0A
Encoding: 3594 3594 138
Width: 583
Flags: W
HStem: 0 49<179 243 323 402.631> 319 33<163.614 232.735> 398 52<409 456.846> 438 34<174.487 244.213> 547 49<209.734 320.852>
VStem: 115 44<355.051 458.711> 248 35<366.746 434.121> 333 79<450 534.906> 479 66<170.516 380.111> 578 86<553.536 591>
DStem2: 232.585 0 312.585 0 0.207912 0.978148<66.7276 426.957 476.845 494.82>
LayerCount: 2
Fore
SplineSet
115 406 m 0xdfc0
 115 497 181 596 294 596 c 0
 396 596 412 526 412 483 c 0
 412 466 410 453 409 450 c 1
 521 450 568 551 578 591 c 1
 664 591 l 17
 599 447 488 421 488 421 c 1
 528 410 545 359 545 296 c 0
 545 167 473 0 370 0 c 2
 169 0 l 1
 179 49 l 1
 243 49 l 1
 329 453 l 2
 331 464 333 475 333 485 c 0
 333 520 316 547 268 547 c 0
 207 547 167 486 167 450 c 1xefc0
 182 467 201 472 223 472 c 1
 265 470 283 444 283 413 c 0
 283 367 246 319 191 319 c 0
 137 319 115 358 115 406 c 0xdfc0
214 438 m 0xdfc0
 180 438 159 410 159 385 c 0
 159 368 171 352 196 352 c 0
 227 352 248 381 248 404 c 0
 248 422 238 438 214 438 c 0xdfc0
365 49 m 2
 426 49 479 199 479 299 c 0
 479 387 444 398 398 398 c 1xefc0
 323 49 l 1
 365 49 l 2
EndSplineSet
EndChar

StartChar: uni0E0B
Encoding: 3595 3595 139
Width: 649
Flags: W
HStem: 0 49<233 296 376 454.824> 280 32<158.459 225.991> 399 51<462 509.657> 399 34<168.325 238.705> 452 21G<269.444 309.167> 573 20G<188.5 257.846>
VStem: 107 47<313.907 471.131> 243 34<328.438 394.396> 389 79<452.749 523.354> 528 67<167.733 381.521> 630 86<550.406 591>
DStem2: 285.585 0 365.585 0 0.207912 0.978148<66.7276 427.699 476.845 509.135> 298 515 285 452 0.789538 0.613702<0 65.5234>
LayerCount: 2
Fore
SplineSet
417 49 m 1xdfe0
 479 50 528 201 528 300 c 0
 528 385 497 399 451 399 c 1
 376 49 l 1
 417 49 l 1xdfe0
595 293 m 0
 595 165 526 0 422 0 c 2
 223 0 l 1
 233 49 l 1
 296 49 l 1
 384 461 l 2
 387 475 389 489 389 499 c 0
 389 514 385 524 372 524 c 1
 285 452 l 1
 229 524 l 1
 182 524 160 433 160 413 c 1
 160 413 178 433 213 433 c 0xdfe0
 257 433 277 406 277 374 c 0
 277 329 238 280 180 280 c 0
 126 280 107 320 107 370 c 0
 107 420 133 561 244 593 c 1
 298 515 l 1
 389 591 l 1
 441 588 468 559 468 503 c 0
 468 487 466 470 462 450 c 1xefe0
 574 450 618 547 630 591 c 1
 716 591 l 1
 659 456 542 422 542 422 c 1
 579 407 595 356 595 293 c 0
206 399 m 0
 173 399 154 371 154 345 c 0
 154 327 164 312 187 312 c 0
 221 312 243 341 243 365 c 0
 243 383 232 399 206 399 c 0
EndSplineSet
EndChar

StartChar: uni0E0C
Encoding: 3596 3596 140
Width: 815
Flags: W
HStem: -8 39<170.952 246.126 387.993 430.271> 0 21G<631 714.268> 121 37<208.956 256.604> 126 40<401.969 449> 392 44<190 212 260.662 350> 550 49<299.075 470.134>
VStem: 115 52<33.4658 108.745> 261 41<45.0529 117.385> 347 38<35.6258 109.677> 513 78<382.298 507.123>
DStem2: 93.1309 -8 173.566 -8 0.207912 0.978148<182.343 403.695> 420.517 -8 497.793 -8 0.207912 0.978148<40.9083 136.994 190.827 459.868> 631.319 -8 708.3 -8 0.207912 0.978148<104.279 550.087>
LayerCount: 2
Fore
SplineSet
302 94 m 0x2fc0
 302 46 264 -8 196 -8 c 0xafc0
 132 -8 115 41 115 81 c 0
 115 91 116 101 118 109 c 2
 164 324 l 2
 175 375 212 392 212 392 c 1
 128 392 l 1
 158 527 293 599 411 599 c 0
 505 599 591 547 591 450 c 0
 591 438 590 426 587 413 c 2
 534 163 l 1
 534 163 628 149 653 94 c 1
 746 530 l 1
 805 588 l 2
 809 592 816 594 821 594 c 0
 827 594 832 590 832 579 c 0
 832 575 832 572 831 567 c 2
 710 0 l 9
 631 0 l 17x4fc0
 634 111 525 120 525 120 c 1
 510 52 491 -8 416 -8 c 0
 368 -8 347 21 347 56 c 0
 347 105 385 166 457 166 c 1x9fc0
 509 407 l 2
 512 420 513 432 513 443 c 0
 513 517 456 550 389 550 c 0
 314 550 226 508 190 436 c 1
 360 436 l 1
 350 392 l 1
 301 392 l 2
 259 392 249 347 248 342 c 2
 208 154 l 1
 219 157 230 158 239 158 c 0
 282 158 302 128 302 94 c 0x2fc0
449 126 m 1x1fc0
 401 126 385 90 385 65 c 0
 385 46 396 35 409 35 c 0
 420 35 431 43 435 61 c 2
 449 126 l 1x1fc0
223 121 m 0xafc0
 189 121 167 91 167 66 c 0
 167 47 179 31 204 31 c 0
 238 31 261 61 261 86 c 0
 261 105 249 121 223 121 c 0xafc0
EndSplineSet
EndChar

StartChar: uni0E0D
Encoding: 3597 3597 141
Width: 800
Flags: W
HStem: -230 32<431.35 545.014> -169 28<422.74 482.619> -66 28<432.919 493.347> -8 40<185.704 261.961 502.449 608.774> 121 41<208.533 272.835> 392 44<190 212 260.662 350> 547 51<291.294 449.233>
VStem: 115 67<34.7101 109.175> 276 41<45.8759 117.765> 374 45<-163.851 -75.5432> 417 74<40.6941 191.992> 486 78<382.239 511.09> 497 29<-127.2 -69.6931>
DStem2: 45.9433 -230 126.378 -230 0.207912 0.978148<409.302 630.654> 346.306 -230 422.644 -230 0.207912 0.978148<338.43 689.721> 574.643 -230 645.068 -230 0.207912 0.978148<71.8531 182.085 297.724 775.693>
LayerCount: 2
Fore
SplineSet
317 97 m 0xffd0
 317 47 271 -8 210 -8 c 0
 132 -8 115 38 115 78 c 0
 115 89 116 100 118 109 c 2
 164 324 l 2
 175 375 212 392 212 392 c 1
 128 392 l 1
 161 527 286 598 397 598 c 0
 495 598 564 536 564 449 c 0xffd0
 564 438 563 425 560 413 c 2
 493 101 l 2
 492 96 491 90 491 85 c 0
 491 53 513 29 550 29 c 0
 594 29 630 60 638 100 c 2
 730 530 l 1
 790 588 l 2
 794 592 801 594 806 594 c 0
 812 594 816 591 816 580 c 0
 816 576 816 572 815 567 c 2
 716 104 l 2
 705 54 629 -8 540 -8 c 0
 464 -8 417 36 417 91 c 0xffa0
 417 98 417 105 419 112 c 2
 482 407 l 2
 485 421 486 434 486 446 c 0
 486 517 436 547 376 547 c 0
 298 547 219 500 190 436 c 1
 360 436 l 1
 350 392 l 1
 301 392 l 2
 259 392 249 347 248 342 c 2
 208 154 l 1
 224 159 239 162 251 162 c 0
 296 162 317 132 317 97 c 0xffd0
238 121 m 0
 203 121 182 91 182 66 c 0
 182 48 194 32 219 32 c 0
 253 32 276 60 276 87 c 0
 276 106 265 121 238 121 c 0
374 -139 m 0
 374 -91 408 -38 474 -38 c 0
 509 -38 526 -58 526 -88 c 0
 526 -138 482 -169 446 -169 c 0
 429 -169 420 -163 412 -157 c 1
 420 -180 445 -198 491 -198 c 0xffa8
 545 -198 592 -152 601 -106 c 1
 613 -52 l 1
 683 -52 l 1
 671 -108 l 2
 661 -155 604 -230 484 -230 c 0
 393 -230 374 -176 374 -139 c 0
450 -141 m 0
 471 -141 497 -124 497 -94 c 0
 497 -75 483 -66 466 -66 c 0
 445 -66 419 -82 419 -112 c 0xffc8
 419 -131 433 -141 450 -141 c 0
EndSplineSet
Substitution2: "'ccmp' Pali-Sanskrit Descender Removal" uni0E0D.descless
Substitution2: "Thai Descender Removal Single Substitution" uni0E0D.descless
EndChar

StartChar: uni0E0E
Encoding: 3598 3598 142
Width: 612
Flags: W
HStem: -212 43<99.9892 200.91> -83 43<110.28 241.999> -8 40<73.5708 148.104> 121 42<84.5523 141> 392 44<199 221 269.725 361> 550 49<306.616 479.599>
VStem: 30 40<35.2678 107.668> 52 46<-164.118 -97.1551> 523 79<375.28 507.447>
DStem2: 55.1272 -241 132.769 -241 0.207912 0.978148<413.026 645.301> 380.783 -241 459 -241 0.207912 0.978148<82.8096 698.116>
AnchorPoint: "BelowBase" 458 -246 basechar 0
LayerCount: 2
Fore
SplineSet
30 57 m 0xfe80
 30 106 71 163 135 163 c 2
 141 163 l 1
 177 332 l 2
 186 378 221 392 221 392 c 1
 137 392 l 1
 171 531 303 599 418 599 c 0
 516 599 602 549 602 449 c 0
 602 436 600 422 597 407 c 2
 459 -241 l 1
 381 -241 l 1
 381 -217 343 -141 280 -111 c 1
 280 -111 227 -212 139 -212 c 0
 88 -212 52 -190 52 -146 c 0
 52 -82 116 -40 187 -40 c 0
 210 -40 236 -44 261 -55 c 1
 261 -55 288 -3 329 12 c 1
 361 -5 l 1
 314 -34 300 -69 300 -69 c 1
 374 -97 398 -160 398 -160 c 1
 519 407 l 2
 522 420 523 432 523 443 c 0
 523 517 466 550 398 550 c 0
 323 550 235 509 199 436 c 1
 371 436 l 1
 361 392 l 1
 313 392 l 2
 266 392 257 343 256 341 c 2
 201 80 l 2
 189 25 145 -8 98 -8 c 0xfd80
 51 -8 30 23 30 57 c 0xfe80
126 121 m 0
 91 121 70 91 70 66 c 0xfe80
 70 48 82 32 107 32 c 0
 141 32 162 62 162 87 c 0
 162 106 151 121 126 121 c 0
171 -83 m 0
 126 -83 98 -104 98 -136 c 0xfd80
 98 -164 127 -169 148 -169 c 0
 196 -169 229 -121 243 -95 c 1
 219 -86 192 -83 171 -83 c 0
EndSplineSet
EndChar

StartChar: uni0E0F
Encoding: 3599 3599 143
Width: 612
Flags: W
HStem: -241 43<-8.89705 73.6828> -163 48<260.887 360.627> -111 43<-0.819618 109.309> -8 40<73.5708 148.104> 121 42<83.2313 141> 392 44<199 223 270.009 361> 550 49<306.616 479.599>
VStem: -57 45<-194.758 -122.661> 30 40<35.8123 107.446> 173 46<-240 -206.453> 385 74<-241 -208.13> 523 79<375.28 507.447>
DStem2: 55.1272 -241 132.769 -241 0.207912 0.978148<413.026 644.555> 380.72 -241 459 -241 0.207912 0.978148<87.9213 698.129>
AnchorPoint: "BelowBase" 458 -246 basechar 0
LayerCount: 2
Fore
SplineSet
126 121 m 0
 91 121 70 91 70 66 c 0
 70 48 82 32 107 32 c 0
 141 32 162 62 162 87 c 0
 162 106 151 121 126 121 c 0
57 -111 m 0
 0 -111 -12 -143 -12 -163 c 0
 -12 -180 -2 -198 29 -198 c 0
 61 -198 76 -179 110 -129 c 1
 93 -117 74 -111 57 -111 c 0
30 57 m 0
 30 105 68 163 135 163 c 2
 141 163 l 1
 177 332 l 2
 187 381 223 392 223 392 c 1
 137 392 l 1
 171 531 303 599 418 599 c 0
 516 599 602 549 602 449 c 0
 602 436 600 422 597 407 c 2
 459 -241 l 1
 385 -241 l 1
 377 -189 348 -163 314 -163 c 0
 281 -163 244 -189 219 -240 c 1
 173 -240 l 1
 173 -235 l 2
 173 -206 159 -179 139 -157 c 1
 113 -194 78 -241 15 -241 c 0
 -41 -241 -57 -201 -57 -171 c 0
 -57 -115 -4 -68 67 -68 c 0
 92 -68 115 -75 136 -89 c 1
 156 -63 180 -40 217 -26 c 1
 241 -54 l 1
 209 -66 185 -89 168 -115 c 1
 189 -137 205 -164 209 -187 c 1
 239 -139 285 -115 325 -115 c 0
 355 -115 382 -128 399 -155 c 1
 519 407 l 2
 522 420 523 432 523 443 c 0
 523 517 466 550 398 550 c 0
 323 550 235 509 199 436 c 1
 371 436 l 1
 361 392 l 1
 313 392 l 2
 268 392 258 347 256 341 c 2
 201 80 l 2
 189 25 145 -8 98 -8 c 0
 51 -8 30 22 30 57 c 0
EndSplineSet
EndChar

StartChar: uni0E10
Encoding: 3600 3600 144
Width: 508
Flags: W
HStem: -276 53<168 282.848> -233 35<11.279 68.9155> -192 35<241.797 285.687> -127 33<19.964 85.8238> -83 37<248.019 310.987> -8 43<271.344 336.838> 190 39<154.896 219.367> 319 39<165.046 238.661> 492 71<382.253 520.804> 530 68<231.171 370.769>
VStem: -23 32<-195.006 -138.91> 86 31<-179.373 -149> 111 40<232.282 305.074> 130 42<-223 -149.703> 198 71<37.0711 110.78> 202 36<-154.399 -93.7247> 242 70<241.714 316.62> 313 67<-150.964 -84.8301> 401 80<300.98 373.984>
DStem2: 119.803 -276 194.755 -276 0.207912 0.978148<366.802 484.474> 182 476 122 443 0.965188 -0.261558<0 245.192> 267.058 -276 348.672 -276 0.207912 0.978148<50.2999 91.9715 327.962 635.934>
LayerCount: 2
Back
SplineSet
202 -136 m 0xbf3560
 202 -94 238 -46 292 -46 c 0
 355 -46 380 -75 380 -118 c 0
 380 -122 379 -126 379 -131 c 1
 361 -218 l 2
 355 -243 337 -276 296 -276 c 2
 115 -276 l 1xbf3560
 126 -226 l 2
 128 -215 130 -204 130 -194 c 0
 130 -179 127 -164 117 -149 c 1
 117 -161 102 -233 30 -233 c 0x7f3560
 -2 -233 -20 -214 -23 -178 c 0
 -23 -139 13 -94 68 -94 c 0
 76 -94 84 -95 93 -97 c 1
 93 -97 97 -72 111 -57 c 1
 145 -61 l 1
 127.462 -77.3691 128 -98.8834 128 -111 c 1
 164 -125 171 -163 171 -190 c 0
 171 -209 168 -223 168 -223 c 1
 251 -223 l 2
 262 -223 280 -215 283 -201 c 2
 286 -186 l 1
 283 -186 276 -192 259 -192 c 0
 221 -192 202 -166 202 -136 c 0xbf3560
285 -83 m 0
 257 -83 238 -107 238 -127 c 0
 238 -142 248 -157 270 -157 c 0
 296 -157 313 -134 313 -111 c 0
 313 -96 304 -83 285 -83 c 0
50 -127 m 0
 30 -129 9 -148 9 -170 c 0
 9 -185 18 -198 38 -198 c 0x7f3060
 61 -198 85 -170 86 -132 c 1
 86 -132 65 -127 50 -127 c 0
EndSplineSet
Fore
SplineSet
577 585 m 0x3fa260
 577 572 537 492 447 492 c 0x3fa260
 391 492 338 530 269 530 c 0
 231 530 205 512 182 476 c 1
 444 405 l 2
 457 402 481 395 481 357 c 0
 481 350 480 341 478 332 c 2
 430 106 l 2
 416 41 368 -8 290 -8 c 0
 234 -8 198 32 198 82 c 0x3f6260
 198 90 199 98 201 106 c 2
 220 198 l 1
 207 192 194 190 178 190 c 0
 134 190 111 219 111 255 c 0
 111 303 152 358 214 358 c 0
 284 358 312 330 312 291 c 0x3f68e0
 312 284 312 277 310 270 c 2
 270 78 l 2
 269 74 269 70 269 67 c 0
 269 50 278 35 299 35 c 0
 325 35 342 58 346 77 c 2
 398 321 l 2
 400 331 401 339 401 346 c 0
 401 361 395 370 380 374 c 2
 122 443 l 1
 142 481 200 598 306 598 c 0x3f6260
 359 598 436 563 497 563 c 0
 553 563 560 591 573 591 c 0
 575 591 577 589 577 585 c 0x3fa260
206 319 m 0
 173 319 151 289 151 265 c 0
 151 246 162 229 187 229 c 0
 221 229 242 258 242 285 c 0x3f28e0
 242 303 231 319 206 319 c 0
145 -61 m 1
 132 -74 128 -89 128 -111 c 1
 164 -125 172 -162 172 -189 c 0
 172 -206 169 -220 168 -223 c 1
 251 -223 l 2
 262 -223 280 -215 283 -201 c 2
 286 -186 l 1
 283 -186 276 -192 259 -192 c 0
 223 -192 202 -168 202 -136 c 0
 202 -92 239 -46 293 -46 c 0
 349 -46 380 -70 380 -118 c 0
 380 -122 379 -126 379 -131 c 1
 361 -218 l 2
 355 -243 337 -276 296 -276 c 2
 115 -276 l 1xbf2560
 126 -226 l 2
 128 -215 130 -204 130 -194 c 0
 130 -179 127 -164 117 -149 c 1
 117 -166 100 -233 30 -233 c 0x7f3560
 -14 -233 -23 -197 -23 -175 c 0
 -23 -136 16 -94 68 -94 c 0
 76 -94 85 -95 93 -97 c 1
 96 -85 99 -69 111 -57 c 1
 145 -61 l 1
285 -83 m 0
 257 -83 238 -107 238 -127 c 0
 238 -142 248 -157 270 -157 c 0
 296 -157 313 -134 313 -111 c 0
 313 -96 304 -83 285 -83 c 0
50 -127 m 1
 30 -129 9 -148 9 -170 c 0
 9 -185 18 -198 38 -198 c 0
 57 -198 86 -176 86 -132 c 1x7f3060
 86 -132 65 -127 50 -127 c 1
EndSplineSet
Substitution2: "'ccmp' Pali-Sanskrit Descender Removal" uni0E10.descless
Substitution2: "Thai Descender Removal Single Substitution" uni0E10.descless
EndChar

StartChar: uni0E11
Encoding: 3601 3601 145
Width: 780
Flags: W
HStem: 0 21G<287 371.295 596 678.267> 280 32<158.459 225.991> 399 34<168.325 238.705> 452 21G<269.444 309.167> 531 62<615.917 695.219>
VStem: 107 47<313.907 471.131> 243 34<328.438 394.396> 390 79<430.222 522.199> 698 79<435.882 528.306>
DStem2: 287 0 366.89 0 0.207912 0.978148<15.5934 52.8986 204.721 508.027> 298 515 285 452 0.789538 0.613702<0 66.5669> 406 184 362 0 0.421443 0.906855<0 396.886> 596 0 674 0 0.207912 0.978148<16.2171 502.134>
LayerCount: 2
Fore
SplineSet
277 374 m 0
 277 329 238 280 180 280 c 0
 126 280 107 320 107 370 c 0
 107 420 133 561 244 593 c 1
 298 515 l 1
 389 591 l 1
 442 588 469 554 469 501 c 0
 469 488 468 475 465 461 c 2
 406 184 l 1
 556 498 l 1
 583 563 639 593 688 593 c 0
 740 593 777 563 777 502 c 0
 777 491 776 478 773 464 c 2
 674 0 l 1
 596 0 l 1
 695 468 l 2
 697 477 698 485 698 492 c 0
 698 522 680 531 659 531 c 0
 634 531 603 514 586 482 c 1
 362 0 l 1
 287 0 l 1
 385 461 l 2
 388 475 390 487 390 498 c 0
 390 514 385 524 372 524 c 1
 285 452 l 1
 229 524 l 1
 182 524 160 433 160 413 c 1
 160 413 178 433 213 433 c 0
 257 433 277 406 277 374 c 0
206 399 m 0
 173 399 154 371 154 345 c 0
 154 327 164 312 187 312 c 0
 221 312 243 341 243 365 c 0
 243 383 232 399 206 399 c 0
EndSplineSet
EndChar

StartChar: uni0E12
Encoding: 3602 3602 146
Width: 801
Flags: W
HStem: -8 52<377.907 418.779> 0 21G<101 184.186 614 698.268> 151 46<402.321 438> 257 36<276.853 308.045> 395 40<289.171 367.963> 574 20G<226 318.857 443.143 493.5 804.5 809.5>
VStem: 114 50<251.099 440.297> 129 70<166.142 276.061> 231 40<296.804 377.361> 327 50<44.3667 127.238> 373 49<309.616 390.707> 500 76<341.391 526.942>
DStem2: 99.2995 -8 178.3 -8 0.207912 0.978148<24.6037 169.98> 298 594 281 538 0.744242 -0.66791<16.8323 101.083> 371 524 359 468 0.829588 0.558376<0 91.2472> 404.204 -8 482.204 -8 0.207912 0.978148<50.84 162.552 217.635 487.621> 614.595 -8 692.3 -8 0.207912 0.978148<98.1447 550.03>
LayerCount: 2
Fore
SplineSet
331 395 m 0x3cb0
 295 395 271 362 271 332 c 0
 271 311 282 293 309 293 c 0
 349 293 373 326 373 357 c 0
 373 377 360 395 331 395 c 0x3cb0
438 151 m 1
 402 151 377 98 377 73 c 0
 377 54 388 44 399 44 c 0xbcd0
 408 44 417 50 419 63 c 2
 438 151 l 1
231 323 m 0
 231 375 274 435 339 435 c 0
 389 435 422 408 422 364 c 0
 422 241 218 175 198 86 c 1
 180 0 l 1
 101 0 l 1
 121 94 l 2
 127 123 129 149 129 174 c 0x7db0
 129 238 114 289 114 340 c 0
 114 408 154 550 298 594 c 1
 371 524 l 1
 472 594 l 1
 515 584 576 558 576 461 c 0
 576 442 573 421 568 396 c 2
 525 194 l 1
 525 194 618 158 635 88 c 1
 729 530 l 1
 792 588 l 2
 796 592 802 594 807 594 c 0
 812 594 816 591 816 580 c 0
 816 576 816 572 815 567 c 2
 694 0 l 1
 614 0 l 1x7e90
 614 7 l 2
 614 64 557 132 516 151 c 1
 501 81 l 2
 491 32 468 -8 400 -8 c 0
 349 -8 327 24 327 62 c 0
 327 116 371 192 448 197 c 1
 491 401 l 2
 497 430 500 453 500 471 c 0
 500 504 489 523 463 538 c 1
 359 468 l 1
 281 538 l 1
 194 501 164 404 164 360 c 0xbed0
 164 280 199 241 199 182 c 0
 199 174 198 169 199 166 c 1xbd90
 221 197 307 249 308 256 c 0
 309 257 308 257 307 257 c 0
 255 257 231 286 231 323 c 0
EndSplineSet
EndChar

StartChar: uni0E13
Encoding: 3603 3603 147
Width: 800
Flags: W
HStem: -8 40<186.1 261.357 628.515 704.296> 0 21G<392 477.5> 121 49<637.377 652> 121 41<208.532 273.236> 392 44<190 214 260.954 350> 547 51<293.217 448.002>
VStem: 115 67<34.3952 109.175> 276 41<45.485 117.765> 483 81<384.944 511.117> 585 40<35.523 107.185> 718 39<46.9257 117.671>
DStem2: 93.1309 -8 173.353 -8 0.207912 0.978148<183.321 403.427> 390.3 -8 469.831 -8 0.207912 0.978148<25.0196 84.5037 127.971 465.736> 614.378 -8 691.827 -8 0.207912 0.978148<185.466 550.075>
LayerCount: 2
Fore
SplineSet
317 97 m 0x5fe0
 317 55 279 -8 203 -8 c 0
 132 -8 115 40 115 79 c 0
 115 90 116 101 118 109 c 2
 164 326 l 2
 175 376 214 392 214 392 c 1
 128 392 l 1
 160 525 289 598 398 598 c 0
 488 598 564 544 564 454 c 0
 564 442 563 429 560 416 c 2
 493 101 l 1
 493 101 547 170 637 170 c 0
 642 170 647 169 652 169 c 1
 729 530 l 1
 790 588 l 2
 794 592 801 594 806 594 c 0
 812 594 816 591 816 580 c 0
 816 576 816 572 815 567 c 2
 732 181 l 2
 730 169 716 160 716 160 c 1
 745 153 757 128 757 99 c 0
 757 49 719 -8 654 -8 c 0xafe0
 599 -8 585 28 585 56 c 0
 585 98 618 131 618 132 c 1
 530 118 482 18 473 0 c 1
 392 0 l 1
 479 410 l 2
 482 424 483 437 483 449 c 0
 483 518 434 547 375 547 c 0
 304 547 219 504 190 436 c 1
 360 436 l 1
 350 392 l 1
 301 392 l 2
 259 392 248 343 246 336 c 2
 208 155 l 1
 224 160 238 162 250 162 c 0
 295 162 317 132 317 97 c 0x5fe0
682 121 m 0x9fe0
 646 121 625 91 625 66 c 0
 625 48 637 32 663 32 c 0
 697 32 718 62 718 87 c 0
 718 106 707 121 682 121 c 0x9fe0
238 121 m 0
 203 121 182 91 182 66 c 0
 182 48 194 32 219 32 c 0
 253 32 276 60 276 87 c 0
 276 106 265 121 238 121 c 0
EndSplineSet
EndChar

StartChar: uni0E14
Encoding: 3604 3604 148
Width: 609
Flags: W
HStem: 0 21G<114 194.186 430 511.242> 273 36<298.927 331.999> 409 40<309.906 391.749> 551 47<298.792 472.385>
VStem: 128 49<251.848 434.034> 143 70<166 274.359> 255 37<315.029 388.686> 396 48<323.887 405.411> 519 78<365.2 506.981>
DStem2: 114 0 190 0 0.207912 0.978148<15.8013 163.201> 430 0 507 0 0.207912 0.978148<16.0092 446.291>
LayerCount: 2
Fore
SplineSet
387 551 m 0xfb80
 280 551 177 465 177 352 c 0xfb80
 177 289 215 233 213 166 c 1
 236 201 332 265 332 272 c 0
 332 273 331 273 329 273 c 0
 281 273 255 300 255 339 c 0
 255 392 294 449 364 449 c 0
 412 449 444 422 444 379 c 0
 444 254 228 176 208 86 c 1
 190 0 l 1
 114 0 l 1
 134 94 l 2
 140 124 143 150 143 175 c 0xf780
 143 238 128 289 128 339 c 0
 128 494 275 598 397 598 c 0
 479 598 597 571 597 447 c 0
 597 432 595 415 591 396 c 2
 507 0 l 1
 430 0 l 1
 514 396 l 2
 517 410 519 424 519 438 c 0
 519 500 483 551 387 551 c 0xfb80
356 409 m 0
 318 409 292 377 292 348 c 0
 292 327 305 309 335 309 c 0
 374 309 396 343 396 371 c 0
 396 392 384 409 356 409 c 0
EndSplineSet
EndChar

StartChar: uni0E15
Encoding: 3605 3605 149
Width: 609
Flags: W
HStem: 0 21G<114 194.324 430 511.242> 258 35<288.273 317> 395 40<301.551 381.883> 574 20G<287.5 336.857 461.143 511>
VStem: 128 49<253.713 438.521> 240 43<296.671 378.831> 386 47<309.222 390.988> 525 73<348.75 521.398>
DStem2: 114 0 190 0 0.207912 0.978148<15.8013 150.267> 316 594 300 538 0.73994 -0.672673<16.1582 101.103> 389 524 377 468 0.829588 0.558376<0 91.7767> 430 0 507 0 0.207912 0.978148<16.0092 476.88>
LayerCount: 2
Fore
SplineSet
240 325 m 0
 240 378 280 435 353 435 c 0
 400 435 433 408 433 364 c 0
 433 241 225 163 206 74 c 2
 190 0 l 1
 114 0 l 1
 134 94 l 2
 140 124 143 150 143 175 c 0
 143 238 128 289 128 339 c 0
 128 354 130 369 133 384 c 0
 163 527 259 574 316 594 c 1
 389 524 l 1
 490 594 l 1
 532 586 598 554 598 456 c 0
 598 438 596 418 591 396 c 2
 507 0 l 1
 430 0 l 1
 518 416 l 2
 522 437 525 454 525 468 c 0
 525 506 508 521 481 538 c 1
 377 468 l 1
 300 538 l 1
 245 523 177 437 177 356 c 0
 177 328 183 293 192 272 c 1
 218 201 216 173 219 173 c 1
 220 174 l 1
 240 201 317 251 317 257 c 0
 317 258 317 258 316 258 c 0
 270 258 240 283 240 325 c 0
345 395 m 0
 308 395 283 362 283 332 c 0
 283 311 295 293 323 293 c 0
 361 293 386 326 386 357 c 0
 386 378 373 395 345 395 c 0
EndSplineSet
EndChar

StartChar: uni0E16
Encoding: 3606 3606 150
Width: 602
Flags: W
HStem: -8 40<184.031 261.63> 0 21G<421 502.231> 121 41<207.906 272.197> 392 44<188 210 259.853 349> 550 49<296.416 471.121>
VStem: 114 67<34.6797 108.892> 275 41<45.5412 117.38> 512 78<384.348 508.477>
DStem2: 92.1309 -8 172.353 -8 0.207912 0.978148<183.321 404.609> 419.3 -8 496.3 -8 0.207912 0.978148<24.1879 462.847>
LayerCount: 2
Fore
SplineSet
316 98 m 0x7f
 316 47 271 -8 203 -8 c 0xbf
 131 -8 114 40 114 80 c 0
 114 90 115 101 117 109 c 2
 163 326 l 2
 174 375 210 392 210 392 c 1
 126 392 l 1
 156 527 291 599 408 599 c 0
 499 599 590 548 590 452 c 0
 590 441 589 429 586 416 c 2
 498 0 l 1
 421 0 l 1
 508 410 l 2
 511 423 512 435 512 446 c 0
 512 518 457 550 387 550 c 0
 311 550 222 507 188 436 c 1
 359 436 l 1
 349 392 l 1
 300 392 l 2
 259 392 248 346 245 336 c 2
 207 155 l 1
 223 160 237 162 249 162 c 0
 295 162 316 133 316 98 c 0x7f
238 121 m 0
 203 121 181 92 181 66 c 0
 181 48 193 32 219 32 c 0
 253 32 275 60 275 86 c 0
 275 105 263 121 238 121 c 0
EndSplineSet
EndChar

StartChar: uni0E17
Encoding: 3607 3607 151
Width: 655
Flags: W
HStem: 0 21G<166 247.32 475 555.24> 420 37<183.66 256.329> 534 62<496.645 573.747> 558 38<196.838 276.366>
VStem: 141 37<463.109 538.968> 282 70<473.681 554.426> 577 78<439.608 529.965>
DStem2: 166 0 243.377 0 0.207912 0.978148<14.9696 50.0724 197.042 436.589> 281 177 238 0 0.422374 0.906422<0 407.337> 475 0 551 0 0.207912 0.978148<15.8013 503.114>
LayerCount: 2
Fore
SplineSet
141 486 m 0xee
 141 537 183 596 258 596 c 0xde
 338 596 352 554 352 524 c 0
 352 509 349 497 348 494 c 2
 281 177 l 1
 433 501 l 2
 464 566 521 596 569 596 c 0
 619 596 655 569 655 509 c 0
 655 496 653 482 650 467 c 2
 551 0 l 1
 475 0 l 1
 575 472 l 2
 577 480 577 486 577 493 c 0
 577 526 556 534 538 534 c 0
 512 534 481 517 464 485 c 1
 238 0 l 1
 166 0 l 1
 257 427 l 1
 243 420 226 420 213 420 c 0
 163 420 141 450 141 486 c 0xee
242 558 m 0
 202 558 178 526 178 495 c 0
 178 475 191 457 220 457 c 0
 258 457 282 491 282 519 c 0
 282 540 270 558 242 558 c 0
EndSplineSet
EndChar

StartChar: uni0E18
Encoding: 3608 3608 152
Width: 508
Flags: W
HStem: 0 45<62 107 185 329.047> 492 72<381.053 519.956> 530 68<231.22 369.789>
VStem: 401 80<301.255 373.984>
DStem2: 97.435 0 175.435 0 0.207912 0.978148<62.2224 371.964> 182 476 122 443 0.965188 -0.261558<0 245.192> 329.769 0 407.044 0 0.207912 0.978148<57.9963 352.927>
LayerCount: 2
Fore
SplineSet
447 492 m 0xd0
 391 492 337 530 269 530 c 1
 228 529 205 512 182 476 c 1
 444 405 l 2
 457 402 481 395 481 357 c 0
 481 350 480 341 478 332 c 2
 430 108 l 2
 414 35 370 0 306 0 c 2
 52 0 l 1
 62 45 l 1
 107 45 l 1
 174 364 l 1
 252 364 l 1
 185 45 l 1
 260 45 l 2
 314 45 344 66 354 114 c 2
 398 321 l 2
 400 331 401 339 401 346 c 0
 401 361 395 370 380 374 c 2
 122 443 l 1
 142 481 200 598 306 598 c 0xb0
 365 598 431 564 495 564 c 0
 551 564 562 591 573 591 c 0
 575 591 577 589 577 585 c 0
 577 572 537 492 447 492 c 0xd0
EndSplineSet
EndChar

StartChar: uni0E19
Encoding: 3609 3609 153
Width: 663
Flags: W
HStem: -8 40<477.227 553.46> 0 21G<166 254> 121 51<486.284 505> 418 38<181.639 256.126> 558 40<193.626 275.172>
VStem: 139 37<461.732 537.754> 281 71<472.399 553.82> 433 41<35.2103 107.557> 568 40<46.32 117.719>
DStem2: 164.3 -8 240.933 -8 0.207912 0.978148<23.1484 70.7421 102.832 444.768> 466.74 -8 545.764 -8 0.207912 0.978148<187.702 547.835>
LayerCount: 2
Fore
SplineSet
608 97 m 0x7f80
 608 49 568 -8 500 -8 c 0xbf80
 446 -8 433 31 433 59 c 0
 433 103 464 130 464 131 c 1
 345 131 270 43 238 0 c 1
 166 0 l 1
 257 427 l 1
 244 419 227 418 215 418 c 0
 151 418 139 457 139 486 c 0
 139 538 182 598 256 598 c 0
 337 598 352 555 352 524 c 0
 352 514 350 505 349 499 c 2
 259 77 l 1
 273 96 344 172 505 172 c 1
 580 528 l 1
 643 588 l 2
 647 592 653 594 658 594 c 0
 664 594 669 590 669 579 c 0
 669 575 668 571 667 565 c 2
 587 186 l 2
 584 172 565 163 565 163 c 1
 594 154 608 127 608 97 c 0x7f80
240 558 m 0
 199 558 176 523 176 495 c 0
 176 474 189 456 218 456 c 0
 256 456 281 490 281 518 c 0
 281 539 269 558 240 558 c 0
530 121 m 0
 495 121 474 91 474 66 c 0
 474 48 486 32 511 32 c 0
 545 32 568 60 568 87 c 0
 568 106 557 121 530 121 c 0
EndSplineSet
EndChar

StartChar: uni0E1A
Encoding: 3610 3610 154
Width: 649
Flags: W
HStem: 0 45<121 176 253 465.566> 418 38<181.691 255.717> 558 38<195.26 275.842>
VStem: 135 41<460.488 539.67> 281 71<474.946 554.145>
DStem2: 166.435 0 243.435 0 0.207912 0.978148<62.0145 434.334> 466.918 0 545.469 0 0.207912 0.978148<56.9857 540.743>
LayerCount: 2
Fore
SplineSet
135 487 m 0
 135 537 182 596 258 596 c 0
 338 596 352 554 352 524 c 0
 352 514 350 505 349 499 c 2
 253 45 l 1
 409 45 l 2
 443 45 480 62 492 118 c 2
 579 529 l 1
 643 588 l 2
 647 592 653 594 658 594 c 0
 664 594 667 591 667 582 c 0
 667 578 667 573 665 566 c 2
 568 106 l 2
 559 64 522 0 441 0 c 2
 111 0 l 1
 121 45 l 1
 176 45 l 1
 256 425 l 1
 247 421 226 418 213 418 c 0
 160 418 135 450 135 487 c 0
240 558 m 0
 199 558 176 523 176 495 c 0
 176 474 189 456 218 456 c 0
 256 456 281 490 281 518 c 0
 281 539 269 558 240 558 c 0
EndSplineSet
EndChar

StartChar: uni0E1B
Encoding: 3611 3611 155
Width: 665
Flags: W
HStem: 0 45<121 176 253 477.89> 418 38<181.691 255.717> 558 38<195.26 275.842>
VStem: 135 41<460.488 539.67> 281 71<474.946 554.145>
DStem2: 166.435 0 243.435 0 0.207912 0.978148<62.0145 434.334> 481.918 0 561.469 0 0.207912 0.978148<57.1743 931.444>
AnchorPoint: "AboveBase" 523 645 basechar 0
LayerCount: 2
Fore
SplineSet
135 487 m 0
 135 537 182 596 258 596 c 0
 338 596 352 554 352 524 c 0
 352 514 350 505 349 499 c 2
 253 45 l 1
 425 45 l 2
 459 45 496 64 507 118 c 2
 676 911 l 1
 739 969 l 2
 743 973 750 975 755 975 c 0
 761 975 765 972 765 962 c 0
 765 958 764 954 763 948 c 2
 584 106 l 2
 575 64 538 0 456 0 c 2
 111 0 l 1
 121 45 l 1
 176 45 l 1
 256 425 l 1
 247 421 226 418 213 418 c 0
 160 418 135 450 135 487 c 0
240 558 m 0
 199 558 176 523 176 495 c 0
 176 474 189 456 218 456 c 0
 256 456 281 490 281 518 c 0
 281 539 269 558 240 558 c 0
EndSplineSet
EndChar

StartChar: uni0E1C
Encoding: 3612 3612 156
Width: 649
Flags: W
HStem: 0 21G<92 176.545 467 549.266> 428 38<280.096 359.095> 563 35<296.143 371.615>
VStem: 377 33<486.192 557.577>
DStem2: 92 0 172 0 0.207912 0.978148<16.6329 100.966 134.11 463.419> 196 115 195 58 0.588172 0.808736<0 274.309> 404 401 386 316 0.29693 -0.954899<75.8217 296.366> 467 0 545 0 0.207912 0.978148<16.2171 34.3218 120.619 541.912>
LayerCount: 2
Fore
SplineSet
410 534 m 0
 410 484 369 428 308 428 c 0
 295 428 281 431 265 437 c 1
 196 115 l 1
 404 401 l 1
 492 118 l 1
 580 530 l 1
 643 588 l 2
 647 591 654 594 659 594 c 0
 664 594 668 591 668 581 c 0
 668 578 668 576 667 572 c 2
 545 0 l 1
 467 0 l 1
 472 22 l 2
 473 27 473 30 473 34 c 0
 473 46 469 53 467 58 c 2
 386 316 l 1
 195 58 l 2
 191 51 182 45 177 22 c 2
 172 0 l 1
 92 0 l 1
 197 494 l 2
 206 538 245 598 336 598 c 0
 396 598 410 563 410 534 c 0
338 563 m 0
 301 563 276 532 276 503 c 0
 276 483 288 466 317 466 c 0
 353 466 377 497 377 526 c 0
 377 546 365 563 338 563 c 0
EndSplineSet
EndChar

StartChar: uni0E1D
Encoding: 3613 3613 157
Width: 665
Flags: W
HStem: 0 21G<92 176 482 565.257> 428 38<280.096 359.095> 563 35<296.143 371.615>
VStem: 377 33<486.192 557.577>
DStem2: 92 0 172 0 0.207912 0.978148<16.6329 98.0937 136.274 463.419> 197 117 194 54 0.599116 0.800662<0 286.562> 414 407 396 326 0.306329 -0.951926<71.5921 303.595> 482 0 561 0 0.207912 0.978148<16.425 29.2231 120.619 922.208>
AnchorPoint: "AboveBase" 523 645 basechar 0
LayerCount: 2
Fore
SplineSet
410 534 m 0
 410 484 369 428 308 428 c 0
 295 428 281 431 265 437 c 1
 197 117 l 1
 414 407 l 1
 507 118 l 1
 674 902 l 1
 737 960 l 2
 741 963 746 966 751 966 c 0
 757 966 762 962 762 950 c 0
 762 946 761 941 760 935 c 2
 561 0 l 1
 482 0 l 1
 486 17 l 2
 487 22 487 25 487 29 c 0
 487 41 483 48 481 54 c 2
 396 326 l 1
 194 54 l 1
 190 46 181 40 176 17 c 2
 172 0 l 1
 92 0 l 1
 197 494 l 2
 206 538 245 598 336 598 c 0
 396 598 410 563 410 534 c 0
338 563 m 0
 301 563 276 532 276 503 c 0
 276 483 288 466 317 466 c 0
 353 466 377 497 377 526 c 0
 377 546 365 563 338 563 c 0
EndSplineSet
EndChar

StartChar: uni0E1E
Encoding: 3614 3614 158
Width: 723
Flags: W
HStem: 0 21G<167 259.122 534.408 623.266> 420 39<183.3 257.527> 560 38<196.706 277.084>
VStem: 142 36<465.027 540.32> 282 72<476.488 556.888>
DStem2: 167 0 243.556 0 0.207912 0.978148<17.0488 64.3073 133.486 437.567> 268 115 249 0 0.451578 0.892231<0 437.998> 532 588 497 490 0.0793409 -0.996848<94.9141 474.206> 541.556 0 619 0 0.207912 0.978148<117.569 542.005>
LayerCount: 2
Fore
SplineSet
142 488 m 0
 142 538 185 598 259 598 c 0
 339 598 354 557 354 527 c 0
 354 517 352 509 351 503 c 2
 268 115 l 1
 504 588 l 1
 532 588 l 1
 566 115 l 1
 655 530 l 1
 718 588 l 2
 722 591 729 594 733 594 c 0
 738 594 742 591 742 582 c 0
 742 579 742 576 741 572 c 2
 619 0 l 1
 536 0 l 1
 497 490 l 1
 249 0 l 1
 167 0 l 1
 258 428 l 1
 250 423 227 420 215 420 c 0
 164 420 142 452 142 488 c 0
242 560 m 0
 204 560 178 528 178 499 c 0
 178 477 191 459 221 459 c 0
 260 459 282 493 282 522 c 0
 282 543 270 560 242 560 c 0
EndSplineSet
EndChar

StartChar: uni0E1F
Encoding: 3615 3615 159
Width: 723
Flags: W
HStem: 0 21G<167 259.122 534.408 623.248> 420 39<183.3 257.527> 560 38<196.706 277.084>
VStem: 142 36<465.027 540.32> 282 72<476.363 556.888>
DStem2: 167 0 244.406 0 0.207912 0.978148<17.0488 63.4258 129.573 437.567> 268 111 249 0 0.451578 0.892231<0 441.567> 533 591 497 490 0.0793409 -0.996848<97.8253 481.105> 542.406 0 619 0 0.207912 0.978148<113.48 922.124>
AnchorPoint: "AboveBase" 581 645 basechar 0
LayerCount: 2
Fore
SplineSet
142 488 m 0
 142 538 185 598 259 598 c 0
 339 598 354 557 354 527 c 0
 354 517 352 509 351 503 c 2
 268 111 l 1
 505 591 l 1
 533 591 l 1
 566 111 l 1
 734 902 l 1
 797 962 l 2
 801 965 806 967 810 967 c 0
 815 967 820 964 820 952 c 0
 820 948 819 943 818 937 c 2
 619 0 l 1
 536 0 l 1
 497 490 l 1
 249 0 l 1
 167 0 l 1
 258 428 l 1
 250 423 227 420 215 420 c 0
 164 420 142 452 142 488 c 0
242 560 m 0
 204 560 178 528 178 499 c 0
 178 477 191 459 221 459 c 0
 260 459 282 493 282 522 c 0
 282 543 270 560 242 560 c 0
EndSplineSet
EndChar

StartChar: uni0E20
Encoding: 3616 3616 160
Width: 619
Flags: W
HStem: -5 40<95.6604 171.669> 124 42<104.401 164> 392 44<205 244 290.991 370> 549 50<314.244 487.751>
VStem: 53 39<38.6979 109.69> 529 79<384.348 508.554>
DStem2: 127.653 -5 205.295 -5 0.207912 0.978148<174.82 403.72> 436.937 -5 514.937 -5 0.207912 0.978148<21.3288 458.803>
LayerCount: 2
Fore
SplineSet
53 61 m 0
 53 110 92 166 158 166 c 2
 164 166 l 1
 200 332 l 2
 210 379 244 392 244 392 c 1
 143 392 l 1
 173 528 309 599 426 599 c 0
 523 599 608 547 608 453 c 0
 608 441 607 429 604 416 c 2
 516 0 l 9
 438 0 l 1
 525 410 l 2
 528 423 529 434 529 445 c 0
 529 517 473 549 406 549 c 0
 329 549 239 508 205 436 c 1
 380 436 l 1
 370 392 l 1
 333 392 l 2
 287 392 279 343 278 341 c 2
 224 83 l 2
 212 28 168 -5 122 -5 c 0
 75 -5 53 26 53 61 c 0
149 124 m 0
 113 124 92 95 92 70 c 0
 92 51 104 35 130 35 c 0
 165 35 186 65 186 90 c 0
 186 108 174 124 149 124 c 0
EndSplineSet
EndChar

StartChar: uni0E21
Encoding: 3617 3617 161
Width: 646
Flags: W
HStem: -5 49<124.262 179.123> 158 51<141.472 199> 420 39<181.576 256.359> 560 38<194.984 276.038>
VStem: 74 47<45.2857 136.536> 141 35<465.283 538.625> 281 71<474.097 555.935>
DStem2: 164.483 -5 242.657 -5 0.207912 0.978148<46.597 165.636 227.2 442.773> 463.933 -5 540.937 -5 0.207912 0.978148<86.8989 545.839>
LayerCount: 2
Fore
SplineSet
141 488 m 0
 141 538 183 598 258 598 c 0
 339 598 352 555 352 525 c 0
 352 515 351 507 350 502 c 2
 286 203 l 1
 286 203 413 174 482 80 c 1
 577 529 l 1
 641 589 l 2
 645 592 650 594 655 594 c 0
 661 594 664 591 664 583 c 0
 664 579 664 573 662 566 c 2
 542 0 l 9
 462 0 l 17
 414 127 275 147 275 147 c 1
 262 86 l 2
 251 34 223 -5 159 -5 c 0
 100 -5 74 31 74 74 c 0
 74 136 128 209 208 209 c 2
 210 209 l 1
 257 428 l 1
 247 422 226 420 213 420 c 0
 163 420 141 452 141 488 c 0
240 560 m 0
 202 560 176 528 176 499 c 0
 176 477 189 459 219 459 c 0
 259 459 281 493 281 522 c 0
 281 543 268 560 240 560 c 0
189 158 m 0
 146 158 121 118 121 82 c 0
 121 56 136 44 151 44 c 0
 164 44 177 53 180 68 c 2
 199 157 l 1
 195 157 193 158 189 158 c 0
EndSplineSet
EndChar

StartChar: uni0E22
Encoding: 3618 3618 162
Width: 580
Flags: W
HStem: -8 54<221.233 378.202> 309 41<262.363 332> 422 39<273.232 355.594> 562 36<288.145 367.171>
VStem: 116 77<73.8119 238.491> 165 84<361.89 435.124> 374 35<481.469 555.291>
DStem2: 84.7156 -8 161.991 -8 0.207912 0.978148<155.863 308.255> 397.266 -8 474.566 -8 0.207912 0.978148<92.5711 545.977>
LayerCount: 2
Fore
SplineSet
165 408 m 0xf6
 165 486 221 598 339 598 c 0
 387 598 409 567 409 531 c 0
 409 482 367 423 302 422 c 0
 265 422 253 436 253 436 c 1
 251 428 249 420 249 409 c 0xf6
 249 375 270 350 311 350 c 2
 340 350 l 1
 332 309 l 1
 304 309 l 2
 261 309 223 276 213 232 c 2
 196 152 l 2
 194 143 193 135 193 128 c 0
 193 76 233 46 296 46 c 0
 371 46 417 83 430 146 c 2
 511 526 l 1
 572 588 l 2
 576 591 582 594 587 594 c 0
 594 594 598 590 598 579 c 0
 598 575 597 570 596 563 c 2
 509 154 l 2
 487 52 397 -8 282 -8 c 0
 182 -8 116 38 116 120 c 0xfa
 116 132 117 145 120 158 c 2
 134 226 l 2
 146 283 193 313 229 324 c 1
 213 326 165 338 165 408 c 0xf6
331 562 m 0
 291 562 269 528 269 499 c 0
 269 478 282 461 310 461 c 0
 349 461 374 494 374 522 c 0
 374 543 360 562 331 562 c 0
EndSplineSet
EndChar

StartChar: uni0E23
Encoding: 3619 3619 163
Width: 462
Flags: W
HStem: -3 38<197.053 277.009> 138 37<211.654 290.905> 500 68<365.527 498.236> 534 64<236.014 372.963>
VStem: 152 39<40.3774 118.105> 344 80<274.141 391.057>
DStem2: 181 476 126 446 0.963993 -0.265929<0 185.458> 266.716 -3 343.595 -3 0.207912 0.978148<169.709 379.618>
LayerCount: 2
Fore
SplineSet
152 65 m 0xdc
 152 116 196 175 263 175 c 0
 275 175 292 174 302 163 c 1
 341 348 l 2
 342 355 344 362 344 369 c 0
 344 379 340 387 324 391 c 2
 126 446 l 1
 143 480 207 598 310 598 c 0xdc
 362 598 419 568 469 568 c 0
 519 568 530 596 542 596 c 0
 545 596 547 594 547 589 c 0
 547 577 511 500 431 500 c 0xec
 388 500 334 534 273 534 c 0
 232 534 207 516 181 476 c 1
 384 420 l 2
 397 417 424 406 424 380 c 0
 424 377 424 374 423 371 c 2
 364 93 l 2
 358 67 336 -3 229 -3 c 0
 175 -3 152 29 152 65 c 0xdc
255 138 m 0
 217 138 191 104 191 75 c 0
 191 54 204 35 233 35 c 0
 272 35 296 69 296 99 c 0
 296 120 283 138 255 138 c 0
EndSplineSet
EndChar

StartChar: uni0E24
Encoding: 3620 3620 164
Width: 597
Flags: W
HStem: -5 40<182.405 259.823> 124 41<206.38 270.525> 392 44<188 209 258.361 347> 549 50<297.327 468.428>
VStem: 113 67<37.1861 112.175> 274 39<49.4008 119.834> 509 79<378.338 509.278>
DStem2: 40.755 -242 120.977 -242 0.207912 0.978148<425.615 643.026> 366.261 -242 444.396 -242 0.207912 0.978148<81.6751 702.138>
LayerCount: 2
Fore
SplineSet
313 101 m 0
 313 51 274 -5 201 -5 c 0
 130 -5 113 43 113 82 c 0
 113 93 114 104 116 112 c 2
 161 324 l 2
 171 373 209 392 209 392 c 1
 126 392 l 1
 159 530 293 599 408 599 c 0
 504 599 588 550 588 452 c 0
 588 439 586 425 583 410 c 2
 458 -178 l 1
 395 -237 l 2
 391 -240 385 -242 380 -242 c 0
 374 -242 370 -239 370 -230 c 0
 370 -226 371 -221 372 -215 c 2
 505 410 l 2
 508 423 509 435 509 446 c 0
 509 517 453 549 386 549 c 0
 311 549 224 508 188 436 c 1
 357 436 l 1
 347 392 l 1
 298 392 l 2
 257 392 245 344 243 335 c 2
 206 158 l 1
 222 163 235 165 247 165 c 0
 292 165 313 135 313 101 c 0
235 124 m 0
 201 124 180 94 180 69 c 0
 180 50 191 35 216 35 c 0
 252 35 274 64 274 90 c 0
 274 108 261 124 235 124 c 0
EndSplineSet
EndChar

StartChar: uni0E25
Encoding: 3621 3621 165
Width: 579
Flags: W
HStem: -5 37<168.54 246.587> 129 36<197.483 258.756> 401 49<288.252 430.174> 539 59<281.602 456.24>
VStem: 105 59<35.1452 114.199> 264 41<46.621 125.014> 490 81<397.484 505.897>
DStem2: 82.9811 -5 162.353 -5 0.207912 0.978148<183.144 385.457> 397.937 -5 474.937 -5 0.207912 0.978148<21.1209 324.211 409.36 454.796>
LayerCount: 2
Fore
SplineSet
305 102 m 0
 305 53 264 -5 195 -5 c 0
 126 -5 105 45 105 85 c 0
 105 93 105 101 107 108 c 2
 146 293 l 2
 163 372 250 450 353 450 c 0
 446 450 485 395 485 395 c 1
 489 412 490 428 490 441 c 0
 490 521 432 539 368 539 c 0
 290 539 210 505 154 444 c 1
 131 467 l 1
 213 562 309 598 394 598 c 0
 493 598 571 543 571 462 c 0
 571 453 570 443 568 433 c 2
 476 0 l 1
 399 0 l 1
 460 289 l 2
 462 297 463 305 463 313 c 0
 463 364 422 401 363 401 c 0
 291 401 237 347 224 289 c 1
 197 158 l 1
 213 163 227 165 239 165 c 0
 284 165 305 136 305 102 c 0
224 129 m 0
 186 129 164 97 164 69 c 0
 164 49 176 32 204 32 c 0
 241 32 264 62 264 91 c 0
 264 112 252 129 224 129 c 0
EndSplineSet
EndChar

StartChar: uni0E26
Encoding: 3622 3622 166
Width: 611
Flags: W
HStem: -5 40<73.5404 149.047> 124 42<84.0188 141> 392 44<201 223 271.044 361> 549 50<308.861 481.204>
VStem: 26 45<37.4422 112.267> 523 79<378.338 509.679>
DStem2: 54.2769 -242 132.919 -242 0.207912 0.978148<417.115 643.078> 380.261 -242 458.396 -242 0.207912 0.978148<81.6751 701.16>
LayerCount: 2
Fore
SplineSet
26 62 m 0
 26 111 66 166 135 166 c 2
 141 166 l 1
 175 326 l 2
 186 375 223 392 223 392 c 1
 138 392 l 1
 171 530 305 599 420 599 c 0
 517 599 602 551 602 452 c 0
 602 439 600 425 597 410 c 2
 472 -178 l 1
 409 -237 l 2
 405 -240 399 -242 394 -242 c 0
 389 -242 385 -239 385 -228 c 0
 385 -224 385 -220 386 -215 c 2
 519 410 l 2
 522 423 523 434 523 445 c 0
 523 518 465 549 398 549 c 0
 322 549 234 507 201 436 c 1
 371 436 l 1
 361 392 l 1
 313 392 l 2
 268 392 256 341 255 336 c 2
 202 83 l 2
 190 28 146 -5 99 -5 c 0
 49 -5 26 26 26 62 c 0
126 124 m 0
 92 124 71 94 71 69 c 0
 71 50 82 35 107 35 c 0
 142 35 163 65 163 90 c 0
 163 108 151 124 126 124 c 0
EndSplineSet
EndChar

StartChar: uni0E27
Encoding: 3623 3623 167
Width: 505
Flags: W
HStem: -5 36<252.112 329.644> 131 35<266.614 343.83> 545 53<238.238 383.277>
VStem: 209 37<36.4039 111.569> 418 79<351.281 512.049>
DStem2: 321.991 -5 399.856 -5 0.207912 0.978148<163.574 473.501>
LayerCount: 2
Fore
SplineSet
209 61 m 0
 209 114 255 166 311 166 c 0
 333 166 342 163 356 155 c 1
 416 438 l 2
 418 445 418 452 418 459 c 0
 418 511 372 545 314 545 c 0
 227 545 168 484 154 470 c 1
 120 479 l 1
 130 502 208 598 344 598 c 0
 429 598 497 545 497 468 c 0
 497 458 496 448 494 438 c 2
 426 118 l 2
 410 41 369 -5 275 -5 c 0
 243 -5 209 16 209 61 c 0
308 131 m 0
 271 131 246 98 246 70 c 0
 246 49 259 31 287 31 c 0
 327 31 349 65 349 94 c 0
 349 114 336 131 308 131 c 0
EndSplineSet
EndChar

StartChar: uni0E28
Encoding: 3624 3624 168
Width: 589
Flags: W
HStem: 0 21G<101 184.279 412 492.239> 273 36<285.996 364.41> 407 37<299.152 377.875> 553 46<277.696 460.721>
VStem: 118 47<325.189 453.403> 383 35<328.125 385.577> 500 80<332.078 422> 597 75<579.467 641>
DStem2: 101 0 180 0 0.207912 0.978148<16.425 237.959> 412 0 488 0 0.207912 0.978148<15.8013 430.451>
LayerCount: 2
Fore
SplineSet
342 407 m 0
 305 407 281 376 281 347 c 0
 281 327 293 309 321 309 c 0
 359 309 383 340 383 369 c 0
 383 389 371 407 342 407 c 0
364 553 m 0
 272 553 165 480 165 378 c 0
 165 351 174 331 192 321 c 1
 215 376 263 444 346 444 c 0
 377 444 398 432 407 415 c 1
 437 427 468 447 499 473 c 1
 487 535 431 553 364 553 c 0
118 367 m 0
 118 501 242 599 374 599 c 0
 450 599 517 584 553 536 c 1
 573 565 589 601 597 641 c 1
 672 641 l 1
 660 582 623 528 577 482 c 1
 579 474 580 465 580 455 c 0
 580 439 577 421 573 401 c 2
 488 0 l 1
 412 0 l 1
 497 401 l 2
 499 409 500 415 500 422 c 1
 473 404 445 390 418 378 c 1
 418 325 373 273 308 273 c 0
 270 273 254 301 254 301 c 1
 241 280 232 246 229 229 c 2
 180 0 l 1
 101 0 l 1
 149 224 l 2
 150 227 150 230 150 233 c 0
 150 266 118 302 118 367 c 0
EndSplineSet
EndChar

StartChar: uni0E29
Encoding: 3625 3625 169
Width: 665
Flags: W
HStem: 0 45<121 174 253 484.332> 166 44<354.11 469.349> 346 41<323.35 386.715> 422 37<184.99 254.247> 560 38<197.753 279.172>
VStem: 141 38<465.17 540.96> 284 68<474.55 555.935> 389 47<267.568 344.174>
DStem2: 164.435 0 243.435 0 0.207912 0.978148<62.4304 233.058 402.707 438.455> 484.532 0 561.107 0 0.207912 0.978148<55.2768 245.456 277.425 540.824>
LayerCount: 2
Fore
SplineSet
243 560 m 0
 204 560 179 527 179 499 c 0
 179 478 193 459 222 459 c 0
 262 459 284 493 284 522 c 0
 284 543 271 560 243 560 c 0
354 346 m 0
 320 346 297 316 297 289 c 0
 297 271 308 255 334 255 c 0
 368 255 389 286 389 312 c 0
 389 330 379 346 354 346 c 0
288 212 m 9
 253 45 l 1
 432 45 l 2
 466 45 500 69 506 101 c 2
 536 240 l 1
 509 197 443 166 383 166 c 0
 344 166 308 179 288 212 c 9
141 490 m 0
 141 538 184 598 258 598 c 0
 339 598 352 555 352 525 c 0
 352 515 351 507 350 502 c 2
 323 378 l 1
 331 382 341 387 365 387 c 0
 390 387 436 378 436 324 c 0
 436 277 405 226 353 221 c 1
 368 214 384 210 399 210 c 0
 473 210 546 285 558 344 c 2
 597 529 l 1
 661 589 l 2
 664 591 668 594 673 594 c 0
 678 594 683 591 683 580 c 0
 683 576 682 572 681 566 c 2
 583 103 l 2
 572 51 535 0 473 0 c 2
 111 0 l 1
 121 45 l 1
 174 45 l 1
 255 429 l 1
 242 422 227 422 214 422 c 0
 164 422 141 453 141 490 c 0
EndSplineSet
EndChar

StartChar: uni0E2A
Encoding: 3626 3626 170
Width: 579
Flags: W
HStem: -5 37<168.54 246.587> 129 36<197.483 258.756> 538 60<279.61 453.064>
VStem: 105 59<35.1452 113.84> 264 41<46.621 125.014> 493 78<359.5 464.735>
DStem2: 82.9811 -5 162.353 -5 0.207912 0.978148<183.144 361.717> 397.937 -5 474.937 -5 0.207912 0.978148<21.1209 286.311 369.549 460.542>
LayerCount: 2
Fore
SplineSet
224 129 m 0
 186 129 164 97 164 69 c 0
 164 49 176 32 204 32 c 0
 241 32 264 62 264 91 c 0
 264 112 252 129 224 129 c 0
305 102 m 0
 305 53 264 -5 195 -5 c 0
 126 -5 105 45 105 85 c 0
 105 93 105 101 107 108 c 2
 141 270 l 2
 155 335 225 413 320 425 c 1
 367 442 422 467 472 501 c 1
 448 526 409 538 366 538 c 0
 291 538 204 503 154 444 c 1
 131 467 l 1
 216 565 312 598 392 598 c 0
 453 598 504 578 533 551 c 1
 558 576 582 607 597 641 c 1
 672 641 l 1
 652 588 609 545 561 510 c 1
 568 493 571 477 571 461 c 0
 571 450 569 440 567 429 c 2
 476 0 l 1
 399 0 l 1
 452 250 l 2
 454 259 455 267 455 276 c 0
 455 331 417 378 358 378 c 0
 286 378 232 324 220 266 c 2
 197 158 l 1
 213 163 227 165 239 165 c 0
 284 165 305 136 305 102 c 0
382 424 m 1
 457 409 477 356 477 356 c 1
 491 422 l 2
 493 430 493 438 493 446 c 0
 493 453 493 459 492 465 c 1
 451 445 410 430 382 424 c 1
EndSplineSet
EndChar

StartChar: uni0E2B
Encoding: 3627 3627 171
Width: 654
Flags: W
HStem: 0 21G<157 239.22 472 554.227> 422 37<172.709 249.351> 560 38<185.97 267.31 564.56 642.649>
VStem: 131 36<464.711 540.297> 272 71<474.449 555.676> 515 39<478.688 551.939> 554 80<296.969 425.572> 645 36<490.832 560.738>
DStem2: 157 0 235 0 0.207912 0.978148<16.2171 215.205 265.281 445.808> 472 0 550 0 0.207912 0.978148<16.2171 401.277>
LayerCount: 2
Fore
SplineSet
681 539 m 0xfd
 681 500 656 459 619 445 c 1
 619 445 634 429 634 403 c 0
 634 399 633 393 632 388 c 2
 550 0 l 1
 472 0 l 1
 553 380 l 2
 554 385 554 389 554 393 c 0xfb
 554 415 543 426 543 426 c 1
 412 356 295 190 284 172 c 1
 271 147 262 127 258 109 c 2
 235 0 l 1
 157 0 l 1
 250 436 l 1
 236 423 219 422 204 422 c 0
 154 422 131 454 131 491 c 0
 131 541 175 598 250 598 c 0
 329 598 343 557 343 527 c 0
 343 517 341 509 340 503 c 2
 285 244 l 1
 385 379 527 460 527 460 c 1
 519 472 515 485 515 499 c 0
 515 547 560 598 615 598 c 0
 662 598 681 571 681 539 c 0xfd
608 565 m 0
 575 565 554 538 554 509 c 0xfd
 554 491 565 476 589 476 c 0
 622 476 645 503 645 529 c 0
 645 549 634 565 608 565 c 0
230 560 m 0
 192 560 167 528 167 499 c 0
 167 477 180 459 209 459 c 0
 250 459 272 493 272 522 c 0
 272 542 259 560 230 560 c 0
EndSplineSet
EndChar

StartChar: uni0E2C
Encoding: 3628 3628 172
Width: 715
Flags: W
HStem: 0 21G<158 247.729 527.894 615.263> 422 37<174.337 250.296> 475 41<604.84 632> 560 38<187.527 266.843> 607 38<615.535 688.186>
VStem: 133 36<464.447 540.012> 273 73<475.931 555.876> 559 42<519.159 593.906> 692 43<562.518 604.488> 773 66<599.124 659>
DStem2: 158 0 237.281 0 0.207912 0.978148<16.425 59.5724 140.187 445.808> 263 121 237 0 0.467421 0.884035<0 363.166> 493 556 465 425 0.149465 -0.988767<125.343 434.885> 531.218 0 611 0 0.207912 0.978148<128.815 485.574>
LayerCount: 2
Fore
SplineSet
732 562 m 1
 758 593 773 626 773 659 c 1
 839 659 l 1
 810 536 718 502 718 502 c 1
 611 0 l 1
 531 0 l 1
 465 425 l 1
 237 0 l 1
 158 0 l 1
 251 436 l 1
 237 423 217 422 205 422 c 0
 156 422 133 454 133 491 c 0
 133 540 176 598 251 598 c 0
 332 598 346 556 346 525 c 0
 346 515 344 506 343 501 c 2
 263 121 l 1
 493 556 l 1
 558 126 l 1
 632 475 l 1
 582 475 559 506 559 542 c 0
 559 590 598 645 665 645 c 0
 724 645 735 612 735 587 c 0
 735 576 733 567 732 562 c 1
657 607 m 0
 624 607 601 579 601 552 c 0
 601 533 612 516 638 516 c 0
 672 516 692 546 692 573 c 0
 692 591 682 607 657 607 c 0
231 560 m 0
 194 560 169 528 169 498 c 0
 169 477 181 459 210 459 c 0
 248 459 273 491 273 522 c 0
 273 542 260 560 231 560 c 0
EndSplineSet
EndChar

StartChar: uni0E2D
Encoding: 3629 3629 173
Width: 580
Flags: W
HStem: -8 44<214.38 369.177> 272 37<228.914 309.841> 409 36<243.706 323.029> 550 46<269.364 447.799>
VStem: 110 77<62.4988 222.562> 329 35<329.399 402.79> 490 83<346.047 509.354>
DStem2: 81.0537 -8 159.242 -8 0.207912 0.978148<139.725 310.803> 396.242 -8 476.266 -8 0.207912 0.978148<93.8363 464.184>
LayerCount: 2
Fore
SplineSet
364 377 m 0
 364 326 322 272 262 272 c 0
 249 272 235 275 221 280 c 1
 189 132 l 2
 187 125 187 119 187 112 c 0
 187 61 235 36 288 36 c 0
 347 36 412 67 426 132 c 2
 488 423 l 2
 490 431 490 439 490 447 c 0
 490 501 451 550 367 550 c 0
 258 550 206 498 170 466 c 1
 145 487 l 1
 187 529 261 596 382 596 c 0
 500 596 573 536 573 458 c 0
 573 449 572 440 570 431 c 2
 509 146 l 2
 482 18 328 -8 273 -8 c 0
 211 -8 110 11 110 110 c 0
 110 121 111 133 114 147 c 2
 153 327 l 2
 161 366 204 445 287 445 c 0
 342 445 364 413 364 377 c 0
287 409 m 0
 249 409 223 376 223 349 c 0
 223 328 237 309 266 309 c 0
 304 309 329 341 329 371 c 0
 329 391 316 409 287 409 c 0
EndSplineSet
EndChar

StartChar: uni0E2E
Encoding: 3630 3630 174
Width: 580
Flags: W
HStem: -8 44<214.38 369.177> 188 36<211.579 290.758> 324 37<225.706 305.937> 399 40<228.858 401.906> 553 43<267.39 450.956>
VStem: 110 77<62.4988 194.508> 170 47<452.557 517.022> 311 35<243.796 317.531> 493 79<349.062 461> 534 81<559.563 602>
DStem2: 396.242 -8 476.266 -8 0.207912 0.978148<93.8363 478.563>
LayerCount: 2
Fore
SplineSet
346 293 m 0xfd80
 346 242 305 188 243 188 c 0
 231 188 217 190 202 195 c 1
 189 132 l 2
 187 125 187 119 187 112 c 0
 187 61 235 36 288 36 c 0
 347 36 412 67 426 132 c 2
 490 434 l 2
 492 443 495 454 493 461 c 1xfd80
 436 419 363 399 302 399 c 0
 225 399 170 429 170 475 c 0
 170 548 290 596 373 596 c 0
 456 596 502 565 515 559 c 1
 523 571 530 584 534 602 c 1
 615 602 l 17xfb40
 600 567 583 542 560 516 c 1
 568 502 572 482 572 462 c 0
 572 450 571 439 569 429 c 2
 509 146 l 2
 482 18 328 -8 273 -8 c 0
 211 -8 110 11 110 110 c 0
 110 121 111 133 114 147 c 2
 135 243 l 2
 143 282 186 361 269 361 c 0
 324 361 346 329 346 293 c 0xfd80
362 553 m 0
 301 553 217 525 217 483 c 0xfb
 217 456 252 439 304 439 c 0
 359 439 430 460 475 508 c 1
 462 531 428 553 362 553 c 0
269 324 m 0
 231 324 205 291 205 264 c 0
 205 243 219 224 248 224 c 0
 286 224 311 256 311 286 c 0
 311 306 298 324 269 324 c 0
EndSplineSet
EndChar

StartChar: uni0E2F
Encoding: 3631 3631 175
Width: 539
Flags: W
HStem: 0 21G<347 429.235> 416 49<187.131 388.58> 560 38<197.61 270.962>
VStem: 138 44<472.003 547.008> 275 42<481.099 557.045>
DStem2: 347 0 425 0 0.207912 0.978148<16.2171 479.542 530.031 608.195>
LayerCount: 2
Fore
SplineSet
138 496 m 0
 138 547 185 598 244 598 c 0
 302 598 317 560 317 531 c 0
 317 492 289 467 289 466 c 1
 295 466 300 465 306 465 c 0
 435 465 469 576 473 595 c 1
 551 595 l 1
 425 0 l 1
 347 0 l 1
 447 469 l 1
 393 430 329 416 275 416 c 0
 194 416 138 441 138 496 c 0
239 560 m 0
 204 560 182 530 182 505 c 0
 182 486 193 469 220 469 c 0
 254 469 275 497 275 525 c 0
 275 544 264 560 239 560 c 0
EndSplineSet
EndChar

StartChar: uni0E30
Encoding: 3632 3632 176
Width: 460
Flags: W
HStem: 6 44<205 294.171> 141 33<122.603 190.695> 416 44<292 379.004> 551 33<210.195 277.695>
VStem: 71 37<61.016 128.283> 159 36<471.732 537.105> 194 37<70.4158 138.446> 281 37<480.416 548.446> 357 61<122.849 169> 444 61<533.16 579>
LayerCount: 2
Fore
SplineSet
159 490 m 0xfdc0
 159 524 185 584 256 584 c 0
 295 584 318 562 318 528 c 0
 318 487 292 462 292 461 c 1
 297 461 302 460 306 460 c 0
 378 460 425 504 444 579 c 1
 505 579 l 17
 464 460 369 416 278 416 c 0
 184 416 159 456 159 490 c 0xfdc0
71 81 m 0
 71 117 101 174 169 174 c 0
 208 174 231 152 231 118 c 0xfbc0
 231 77 205 52 205 51 c 1
 210 51 215 50 219 50 c 0
 291 50 338 94 357 169 c 1
 418 169 l 17
 376 49 281 6 189 6 c 0
 95 6 71 46 71 81 c 0
248 551 m 0
 216 551 195 525 195 501 c 0xfdc0
 195 483 205 468 230 468 c 0
 261 468 281 495 281 520 c 0
 281 536 271 551 248 551 c 0
161 141 m 0
 129 141 108 115 108 91 c 0
 108 73 118 58 143 58 c 0
 174 58 194 85 194 110 c 0xfbc0
 194 126 184 141 161 141 c 0
EndSplineSet
EndChar

StartChar: uni0E31
Encoding: 3633 3633 177
Width: 0
Flags: W
HStem: 676 52<-69.2856 105.964> 874 41<-127.347 -51.1783>
VStem: -191 49<785.056 860.52> -48 46<795.077 871.8>
AnchorPoint: "AboveMark" 100 968 basemark 0
AnchorPoint: "AboveBase" 31 645 mark 0
LayerCount: 2
Fore
SplineSet
-191 805 m 0
 -191 856 -146 915 -78 915 c 0
 -31 915 -2 888 -2 847 c 0
 -2 774 -72 745 -72 745 c 1
 -42 733 -13 728 15 728 c 0
 117 728 206 800 246 911 c 1
 335 911 l 17
 263 747 115 676 -6 676 c 0
 -115 676 -191 735 -191 805 c 0
-84 874 m 0
 -121 874 -142 843 -142 817 c 0
 -142 798 -131 782 -104 782 c 0
 -70 782 -48 812 -48 839 c 0
 -48 858 -59 874 -84 874 c 0
EndSplineSet
EndChar

StartChar: uni0E32
Encoding: 3634 3634 178
Width: 427
Flags: W
HStem: 0 21G<246 330.252> 555 44<192.649 327.517>
VStem: 346 82<379.695 536.242>
DStem2: 246 0 326 0 0.207912 0.978148<16.6329 491.891>
LayerCount: 2
Fore
SplineSet
326 0 m 1
 246 0 l 1
 343 456 l 2
 345 465 346 474 346 482 c 0
 346 525 320 555 269 555 c 0
 201 555 143 513 123 496 c 1
 133 539 l 1
 156 559 210 599 288 599 c 0
 378 599 428 567 428 498 c 0
 428 487 427 474 424 461 c 2
 326 0 l 1
EndSplineSet
EndChar

StartChar: uni0E33
Encoding: 3635 3635 179
Width: 427
Flags: W
HStem: 0 21<246 330.252> 555 44<192.649 327.517> 668 43<-26.6016 54.2393> 813 46<-14.6024 67.249>
VStem: -77 46<715.216 796.821> 72 46<728.213 808.848> 346 82<379.695 536.242>
DStem2: 246 0 326 0 0.207912 0.978148<16.6329 491.891>
LayerCount: 2
Back
SplineSet
13 682 m 0
 -51 682 -73 730 -63 778 c 0
 -53 825 -10 873 54 873 c 0
 117 873 137 825 127 778 c 0
 117 730 76 682 13 682 c 0
326 0 m 1
 246 0 l 1
 343 456 l 2
 355 512 330 555 269 555 c 0
 201 555 143 513 123 496 c 1
 133 539 l 1
 156 559 210 599 288 599 c 0
 393 599 444 555 424 461 c 2
 326 0 l 1
84 776 m 0
 90 805 72 826 44 826 c 0
 15 826 -12 805 -18 776 c 0
 -24 748 -7 725 22 725 c 0
 50 725 78 748 84 776 c 0
EndSplineSet
Fore
Refer: 203 3661 N 1 0 0 1 0 0 2
Refer: 178 3634 N 1 0 0 1 0 0 2
MultipleSubs2: "Thai Sara Am Decomposition" uni0E4D uni0E32
Substitution2: "Thai Sara Am Lakkhang" uni0E32
EndChar

StartChar: uni0E34
Encoding: 3636 3636 180
Width: 0
Flags: W
HStem: 740 40<-291.842 -112.608> 844 49<-228.707 -58.0903>
AnchorPoint: "AboveMark" 61 968 basemark 0
AnchorPoint: "AboveBase" 31 645 mark 0
LayerCount: 2
Fore
SplineSet
54 651 m 1
 1 680 -108 740 -262 740 c 0
 -309 740 -346 733 -380 728 c 1
 -334 818 -236 893 -133 893 c 0
 -65 893 58 863 58 704 c 0
 58 688 57 670 54 651 c 1
12 717 m 1
 0 777 -36 844 -149 844 c 0
 -209 844 -259 816 -293 777 c 1
 -276 779 -259 780 -241 780 c 0
 -78 780 6 718 12 717 c 1
EndSplineSet
EndChar

StartChar: uni0E35
Encoding: 3637 3637 181
Width: 0
Flags: W
HStem: 740 40<-291.842 -112.608> 844 49<-228.707 -57.0966>
DStem2: -43.0862 651 32.7443 651 0.207912 0.978148<202.423 306.769>
AnchorPoint: "AboveMark" 62 968 basemark 0
AnchorPoint: "AboveBase" 31 645 mark 0
LayerCount: 2
Fore
SplineSet
-133 893 m 0
 -90 893 -39 882 -1 849 c 9
 21 951 l 1
 96 951 l 1
 54 751 l 1
 56 737 57 722 57 707 c 0
 57 689 56 671 54 651 c 1
 1 680 -108 740 -262 740 c 0
 -309 740 -346 733 -380 728 c 1
 -334 818 -236 893 -133 893 c 0
12 717 m 1
 0 777 -36 844 -149 844 c 0
 -209 844 -259 816 -293 777 c 1
 -276 779 -259 780 -241 780 c 0
 -78 780 6 718 12 717 c 1
EndSplineSet
EndChar

StartChar: uni0E36
Encoding: 3638 3638 182
Width: 0
Flags: W
HStem: 740 40<-325.898 -115.293> 844 50<-227.229 -56.7324> 906 45<6.35308 82.8651>
VStem: 85 46<831.41 903.576>
AnchorPoint: "AboveMark" 63 968 basemark 0
AnchorPoint: "AboveBase" 31 645 mark 0
LayerCount: 2
Fore
SplineSet
131 885 m 0
 131 842 97 791 46 780 c 1
 46 780 58 751 58 701 c 0
 58 686 57 669 54 651 c 1
 -16 694 -132 740 -268 740 c 0
 -317 740 -352 733 -378 728 c 1
 -338 819 -235 894 -130 894 c 0
 -85 894 -53 874 -44 874 c 1
 -29 932 18 951 59 951 c 0
 109 951 131 921 131 885 c 0
50 906 m 0
 14 906 -6 875 -6 854 c 0
 -6 836 5 820 31 820 c 0
 64 820 85 848 85 873 c 0
 85 891 74 906 50 906 c 0
12 717 m 1
 0 777 -36 844 -149 844 c 0
 -209 844 -259 816 -293 777 c 1
 -276 779 -259 780 -241 780 c 0
 -78 780 6 718 12 717 c 1
EndSplineSet
EndChar

StartChar: uni0E37
Encoding: 3639 3639 183
Width: 0
Flags: W
HStem: 736 40<-296.125 -116.103> 830 46<-238.703 -124>
DStem2: -36.8979 648 33.8071 648 0.207912 0.978148<187.088 309.872>
AnchorPoint: "AboveMark" -1 968 basemark 0
AnchorPoint: "AboveBase" 31 645 mark 0
LayerCount: 2
Fore
SplineSet
55 648 m 1
 -53 711 -173 736 -267 736 c 0
 -307 736 -341 732 -377 725 c 1
 -302 876 -155 876 -124 876 c 1
 -107 951 l 1
 -38 951 l 1
 -55 863 l 1
 -19 852 2 831 2 831 c 1
 28 951 l 1
 96 951 l 1
 54 743 l 1
 54 743 59 729 59 699 c 0
 59 685 58 668 55 648 c 1
11 714 m 1
 -5 812 -90 830 -153 830 c 0
 -203 830 -257 811 -297 773 c 1
 -281 775 -265 776 -248 776 c 0
 -82 776 4 715 11 714 c 1
EndSplineSet
EndChar

StartChar: uni0E38
Encoding: 3640 3640 184
Width: 0
Flags: W
HStem: -220 36<-286.893 -228.495> -104 35<-276.538 -211.158>
VStem: -326 36<-181.179 -116.683> -208 73<-174.737 -105.784>
AnchorPoint: "BelowBase" -119 -69 mark 0
LayerCount: 2
Fore
SplineSet
-326 -164 m 0
 -326 -120 -288 -69 -224 -69 c 0
 -171 -69 -135 -96 -135 -138 c 0
 -135 -143 -136 -149 -137 -155 c 2
 -169 -307 l 1
 -248 -307 l 1
 -228 -214 l 1
 -233 -215 -244 -220 -265 -220 c 0
 -307 -219 -326 -193 -326 -164 c 0
-240 -104 m 0
 -270 -104 -290 -131 -290 -153 c 0
 -290 -170 -280 -184 -257 -184 c 0
 -228 -184 -208 -159 -208 -134 c 0
 -208 -118 -218 -104 -240 -104 c 0
EndSplineSet
Substitution2: "Thai Sara U Mai Ek Reordering" uni0E48.low
Substitution2: "Thai Sara U Mai Tho Reordering" uni0E49.low
Substitution2: "Thai Sara U Mai Tri Reordering" uni0E4A.low
Substitution2: "Thai Sara U Mai Chattawa Reordering" uni0E4B.low
Substitution2: "Thai Sara U Thanthakhat Reordering" uni0E4C.low
Substitution2: "Thai Sara U Nikhahit Reordering" uni0E4D
EndChar

StartChar: uni0E39
Encoding: 3641 3641 185
Width: 0
Flags: W
HStem: -307 34<-298.742 -240.945> -206 28<-397.732 -343.142> -101 32<-390.065 -327.885>
VStem: -435 31<-172.186 -115.117> -350 49<-272.527 -173.564> -325 46<-168.696 -102.2>
DStem2: -248.666 -307 -169.193 -307 0.207912 0.978148<44.1394 243.333>
AnchorPoint: "BelowBase" -119 -69 mark 0
LayerCount: 2
Fore
SplineSet
-435 -151 m 0xf8
 -435 -113 -402 -69 -347 -69 c 0
 -298 -69 -279 -94 -279 -130 c 0xf4
 -279 -138 -280 -148 -282 -157 c 2
 -300 -238 l 2
 -301 -241 -301 -244 -301 -247 c 0
 -301 -262 -292 -273 -275 -273 c 0
 -253 -273 -238 -261 -234 -238 c 2
 -198 -69 l 1
 -119 -69 l 1
 -149 -212 l 2
 -160 -264 -202 -307 -263 -307 c 0
 -318 -307 -350 -282 -350 -243 c 0
 -350 -237 -349 -232 -348 -226 c 2
 -343 -201 l 1
 -347 -203 -354 -206 -376 -206 c 0
 -416 -206 -435 -180 -435 -151 c 0xf8
-371 -178 m 0
 -351 -178 -325 -156 -325 -130 c 0
 -325 -113 -337 -101 -354 -101 c 0
 -384 -101 -404 -128 -404 -146 c 0
 -404 -162 -390 -178 -371 -178 c 0
EndSplineSet
Substitution2: "Thai Sara UU Mai Ek Reordering" uni0E48.low
Substitution2: "Thai Sara UU Mai Tho Reordering" uni0E49.low
Substitution2: "Thai Sara UU Mai Tri Reordering" uni0E4A.low
Substitution2: "Thai Sara UU Mai Chattawa Reordering" uni0E4B.low
Substitution2: "Thai Sara UU Thanthakhat Reordering" uni0E4C.low
Substitution2: "Thai Sara UU Nikhahit Reordering" uni0E4D
EndChar

StartChar: uni0E3A
Encoding: 3642 3642 186
Width: 0
Flags: W
HStem: -161 106<-202.417 -130.125>
VStem: -220 107<-144.168 -72.6758>
AnchorPoint: "BelowBase" -117 -58 mark 0
LayerCount: 2
Fore
SplineSet
-113 -95 m 0
 -113 -126 -138 -161 -175 -161 c 0
 -207 -161 -220 -141 -220 -119 c 0
 -220 -88 -193 -55 -153 -55 c 0
 -125 -55 -113 -73 -113 -95 c 0
EndSplineSet
Substitution2: "Thai Phinthu Maitaikhu Reordering" uni0E47
Substitution2: "Thai Phinthu Mai Ek Reordering" uni0E48.low
Substitution2: "Thai Phinthu Mai Tho Reordering" uni0E49.low
Substitution2: "Thai Phinthu Mai Tri Reordering" uni0E4A.low
Substitution2: "Thai Phinthu Mai Chattawa Reordering" uni0E4B.low
Substitution2: "Thai Phinthu Thanthakhat Reordering" uni0E4C.low
Substitution2: "Thai Phinthu Nikhahit Reordering" uni0E4D
EndChar

StartChar: uni25CC
Encoding: 9676 9676 188
Width: 649
Flags: W
HStem: 5 36<329.414 365.62> 41 39<187.248 224.556> 52 39<468.537 504.671> 134 36<107.443 144.41> 146 37<571.535 607.702> 276 37<633.359 672.274> 283 36<102.282 138.327> 416 39<175.778 212.557 629.77 664.98> 501 38<551.709 589.488> 508 37<296.247 334.379> 544 37<442.49 477.673>
VStem: 107 38<134.414 169.62 285.461 318.967> 175 38<416.709 454.332> 187 38<41.4551 79.2278> 296 39<508.706 544.631> 329 37<5.29385 40.531> 442 36<544.211 580.236> 468 37<52.4936 90.209> 551 39<501.923 538.522> 571 37<146.606 182.572> 627 38<412.401 448.647> 633 40<276.353 312.48>
LayerCount: 2
Fore
SplineSet
175 430 m 0x0118
 175 445 189 455 198 455 c 0
 208 455 213 447 213 439 c 0
 213 428 201 416 189 416 c 0
 181 416 175 422 175 430 c 0x0118
296 524 m 0x0152
 296 537 310 545 319 545 c 0
 329 545 335 540 335 531 c 0
 335 518 321 508 311 508 c 0
 303 508 296 516 296 524 c 0x0152
187 58 m 0x4114
 187 71 201 80 211 80 c 0
 219 80 225 73 225 64 c 0
 225 53 212 41 203 41 c 0
 193 41 187 49 187 58 c 0x4114
107 148 m 0
 107 159 116 170 130 170 c 0
 138 170 145 165 145 157 c 0
 145 143 134 134 122 134 c 0x1110
 112 134 107 139 107 148 c 0
468 68 m 0x211040
 468 78 480 91 491 91 c 0
 500 91 505 83 505 75 c 0
 505 61 492 52 483 52 c 0
 474 52 468 59 468 68 c 0x211040
571 160 m 0x091010
 571 174 583 183 593 183 c 0
 603 183 608 177 608 168 c 0
 608 150 591 146 585 146 c 0
 576 146 571 152 571 160 c 0x091010
627 426 m 0x011008
 627 435 636 449 649 449 c 0
 658 449 665 443 665 435 c 0
 665 428 660 412 642 412 c 0
 633 412 627 417 627 426 c 0x011008
551 516 m 0x019020
 551 525 562 539 574 539 c 0
 583 539 590 533 590 524 c 0
 590 510 575 501 565 501 c 0
 557 501 551 508 551 516 c 0x019020
633 291 m 0x051004
 633 304 647 313 657 313 c 0
 667 313 673 308 673 299 c 0
 673 290 664 276 649 276 c 0
 641 276 633 282 633 291 c 0x051004
102 298 m 0
 102 310 113 319 125 319 c 0
 134 319 139 314 139 306 c 0
 139 293 127 283 117 283 c 0x0310
 107 283 102 290 102 298 c 0
329 19 m 0x8111
 329 33 341 41 352 41 c 0
 361 41 366 36 366 27 c 0
 366 13 355 5 344 5 c 0
 335 5 329 10 329 19 c 0x8111
442 559 m 0x013080
 442 570 455 581 464 581 c 0
 473 581 478 574 478 566 c 0
 478 559 474 544 457 544 c 0
 449 544 442 550 442 559 c 0x013080
EndSplineSet
EndChar

StartChar: uni0E3F
Encoding: 3647 3647 189
Width: 752
Flags: W
HStem: 2 36<271.204 336> 3 42<416 476.782> 3 17<39 103.242> 359 40<331 412> 674 46<559 597.957> 685 38<391.281 481> 707 15<188 237.746>
VStem: 588 119<150.024 301.347> 636 108<492.062 636.64>
DStem2: 118.764 -106 223.213 -106 0.207912 0.978148<211.43 497.094 538.091 776.269> 315 -106 381 -106 0.207912 0.978148<13.7222 110.006 168.699 475.006 537.612 807.25 858.68 948.888>
LayerCount: 2
Fore
SplineSet
707 235 m 0x19
 707 189 677 17 407 3 c 1x39
 381 -106 l 1
 315 -106 l 1
 336 2 l 1x91
 36 3 l 1
 39 20 l 1
 130 20 152 54 160 88 c 2
 276 637 l 2
 277 643 278 649 278 654 c 0
 278 681 260 705 185 707 c 1
 188 722 l 1x33
 221 722 487 723 490 723 c 1x15
 513 822 l 1
 579 822 l 1
 559 720 l 1
 667 709 744 668 744 579 c 0x1880
 744 545 736 426 562 382 c 1
 561 376 l 1
 639 361 707 317 707 235 c 0x19
492 406 m 1
 601 430 636 510 636 572 c 0x1880
 636 628 602 662 549 674 c 1
 492 406 l 1
421 399 m 1
 481 684 l 1
 471 684 463 685 454 685 c 0x14
 410 685 390 677 384 650 c 2
 331 399 l 1
 421 399 l 1
344 38 m 9x90
 412 359 l 1
 322 359 l 1
 267 100 l 2
 265 92 264 85 264 79 c 0
 264 52 281 38 344 38 c 9x90
416 45 m 1x51
 574 70 588 206 588 237 c 0
 588 303 540 335 480 349 c 1
 416 45 l 1x51
EndSplineSet
EndChar

StartChar: uni0E40
Encoding: 3648 3648 190
Width: 337
Flags: W
HStem: -5 40<173.649 250.232> 127 39<212.364 261.212> 574 20G<287.5 292.5>
VStem: 117 53<37.492 111.531> 265 38<51.238 122.802>
DStem2: 95.7686 -5 176.078 -5 0.207912 0.978148<189.473 547.059>
LayerCount: 2
Fore
SplineSet
303 100 m 0
 303 51 264 -5 199 -5 c 0
 142 -5 117 36 117 81 c 0
 117 90 118 100 120 109 c 2
 210 530 l 1
 274 588 l 2
 278 591 285 594 290 594 c 0
 295 594 299 591 299 581 c 0
 299 577 298 572 297 566 c 2
 212 164 l 1
 212 164 225 166 235 166 c 0
 282 166 303 135 303 100 c 0
227 127 m 0
 191 127 170 96 170 70 c 0
 170 51 181 35 207 35 c 0
 244 35 265 66 265 92 c 0
 265 111 254 127 227 127 c 0
EndSplineSet
EndChar

StartChar: uni0E42
Encoding: 3650 3650 192
Width: 331
Flags: W
HStem: -5 40<199.261 274.291> 127 39<247.636 285.938> 827 76<394.516 479.198> 892 66<220.415 318.989>
VStem: 152 44<37.5836 110.031> 286 76<613.828 753.579> 289 38<50.999 123.423>
DStem2: 186 860 126 836 0.84964 -0.527363<0 158.997> 133.406 -5 211.078 -5 0.207912 0.978148<188.924 739.629>
LayerCount: 2
Fore
SplineSet
327 101 m 0xda
 327 50 287 -5 225 -5 c 0
 170 -5 152 28 152 67 c 0
 152 80 154 93 157 106 c 2
 283 700 l 2
 284 706 286 713 286 719 c 0
 286 732 280 745 259 757 c 2
 126 836 l 1
 142 860 206 958 288 958 c 0xdc
 341 958 417 903 474 903 c 0
 509 903 515 923 525 923 c 0
 527 923 529 921 529 918 c 0
 529 912 491 827 422 827 c 0xec
 368 827 315 892 247 892 c 0
 220 892 203 878 186 860 c 1
 331 770 l 2
 344 762 362 748 362 716 c 0xdc
 362 709 362 702 360 694 c 2
 247 164 l 1
 252 167 257 166 261 166 c 0
 307 166 327 136 327 101 c 0xda
253 127 m 0
 217 127 196 96 196 70 c 0
 196 51 207 35 233 35 c 0
 267 35 289 65 289 92 c 0xca
 289 111 278 127 253 127 c 0
EndSplineSet
EndChar

StartChar: uni0E43
Encoding: 3651 3651 193
Width: 362
Flags: W
HStem: -5 40<218.244 296.796> 127 37<269.578 307.625> 679 40<163.59 228.186> 793 36<171.407 236.104> 908 50<209.012 315.847>
VStem: 114 48<719.627 823> 174 41<38.3166 109.574> 238 40<728.277 791.455> 311 37<51.5128 123.132> 330 79<778.533 894.269>
DStem2: 154.406 -5 232.078 -5 0.207912 0.978148<188.924 861.652>
LayerCount: 2
Fore
SplineSet
114 768 m 0xff40
 114 875 192 958 292 958 c 0
 370 958 409 912 409 847 c 0xff40
 409 835 408 822 405 808 c 2
 268 164 l 1
 270 164 276 166 281 166 c 0
 327 166 348 135 348 99 c 0xff80
 348 48 308 -5 245 -5 c 0
 192 -5 174 28 174 69 c 0
 174 81 175 93 178 106 c 2
 327 811 l 2
 329 821 330 830 330 839 c 0
 330 877 311 906 271 908 c 1
 213 908 173 868 159 803 c 1
 178 826 207 829 216 829 c 0
 258 829 278 802 278 772 c 0
 278 727 239 679 182 679 c 0
 130 679 114 722 114 768 c 0xff40
191 719 m 0
 220 719 238 744 238 765 c 0
 238 780 229 793 209 793 c 0
 171 793 162 761 162 747 c 0
 162 733 170 719 191 719 c 0
273 127 m 0
 236 127 215 96 215 70 c 0
 215 51 226 35 253 35 c 0
 290 35 311 66 311 92 c 0xff80
 311 111 300 127 273 127 c 0
EndSplineSet
EndChar

StartChar: uni0E44
Encoding: 3652 3652 194
Width: 403
Flags: W
HStem: -5 40<264.965 342.952> 127 37<314.037 352.464> 654 37<201.262 256.049> 919 39<338.832 423.5>
VStem: 145 56<691.547 752.17> 186 63<837.805 958.783> 221 41<38.3359 109.574> 358 37<51.9519 121.856> 392 74<789.773 918.383>
DStem2: -10.1269 -5 47.8965 -5 0.207912 0.978148<745.364 947.427> 106.896 -5 142.771 -5 0.207912 0.978148<710.154 951.679> 202.406 -5 277.078 -5 0.207912 0.978148<188.301 918.591>
LayerCount: 2
Fore
SplineSet
395 99 m 0xf1
 395 48 353 -5 291 -5 c 0
 239 -5 221 27 221 67 c 0
 221 79 223 93 226 106 c 2
 391 883 l 2
 392 887 392 890 392 894 c 0
 392 909 384 919 370 919 c 0
 349 919 335 900 332 883 c 2
 299 730 l 2
 290 688 262 654 210 654 c 0
 162 654 145 683 145 714 c 0xfa80
 145 721 146 728 147 734 c 2
 185 913 l 2
 186 916 186 920 186 922 c 0
 186 953 149 963 149 977 c 0
 149 983 154 987 161 987 c 0
 164 987 168 986 171 983 c 1
 233 962 l 1
 246 954 249 948 249 942 c 0xf4
 249 940 249 938 248 936 c 2
 202 720 l 2
 201 717 201 715 201 712 c 0
 201 700 210 691 225 691 c 0
 241 691 257 702 261 720 c 2
 292 866 l 2
 303 917 338 958 399 958 c 0
 448 958 466 929 466 895 c 0xf880
 466 887 465 879 463 871 c 2
 313 164 l 1
 318 164 324 166 327 166 c 0
 374 166 395 134 395 99 c 0xf1
319 127 m 0
 283 127 262 96 262 70 c 0
 262 51 273 35 299 35 c 0
 336 35 358 66 358 91 c 0xf3
 358 110 346 127 319 127 c 0
EndSplineSet
EndChar

StartChar: uni0E45
Encoding: 3653 3653 195
Width: 304
Flags: W
HStem: 555 44<69.7393 204.517>
VStem: 223 82<381.633 536.242>
DStem2: 71.261 -244 151.396 -244 0.207912 0.978148<82.0909 741.316>
LayerCount: 2
Fore
SplineSet
165 -180 m 1
 100 -238 l 2
 97 -241 89 -244 84 -244 c 0
 79 -244 75 -241 75 -231 c 0
 75 -228 76 -223 77 -217 c 2
 220 456 l 2
 222 465 223 474 223 482 c 0
 223 525 197 555 146 555 c 0
 78 555 20 513 1 496 c 1
 11 539 l 1
 33 559 87 599 165 599 c 0
 255 599 305 567 305 498 c 0
 305 487 304 474 301 461 c 2
 165 -180 l 1
EndSplineSet
EndChar

StartChar: uni0E46
Encoding: 3654 3654 196
Width: 703
Flags: W
HStem: 263 32<372.163 438.667> 382 34<382.956 451.964> 455 21G<485.899 528.217> 578 20G<427.5 476.571 581.211 641>
VStem: 312 55<297.406 464.613> 456 34<310.83 377.367> 618 79<432.401 520.106>
DStem2: 465.261 -241 541.396 -241 0.207912 0.978148<81.2592 743.527>
LayerCount: 2
Fore
SplineSet
490 356 m 0
 490 312 452 263 395 263 c 0
 332 263 312 309 312 363 c 0
 312 483 395 570 460 598 c 1
 518 528 l 1
 606 599 l 1
 676 598 697 557 697 509 c 0
 697 494 695 479 692 464 c 2
 555 -177 l 1
 494 -235 l 2
 490 -238 483 -241 478 -241 c 0
 473 -241 469 -238 469 -228 c 0
 469 -225 470 -220 471 -214 c 2
 615 464 l 2
 617 473 618 480 618 487 c 0
 618 510 607 519 590 524 c 1
 503 455 l 1
 444 524 l 1
 400 502 368 441 368 399 c 1
 368 399 398 416 427 416 c 0
 470 415 490 387 490 356 c 0
420 382 m 0
 388 382 367 352 367 328 c 0
 367 310 378 295 402 295 c 0
 434 295 456 324 456 348 c 0
 456 366 445 382 420 382 c 0
EndSplineSet
EndChar

StartChar: uni0E47
Encoding: 3655 3655 197
Width: 0
Flags: W
HStem: 668 44<-53.7127 20.7103> 757 57<-228.329 -150.535> 795 39<-43.796 27.2664> 886 52<-153.516 36.8257> 898 49<-224.863 -38.1454>
VStem: -320 60<763.047 862.129> 30 40<722.818 791.849> 65 79<970.749 1028>
AnchorPoint: "AboveMark" -77 968 basemark 0
AnchorPoint: "AboveBase" 6 645 mark 0
LayerCount: 2
Fore
SplineSet
-320 779 m 0xc6
 -320 847 -290 947 -146 947 c 0xce
 -98 947 -64 938 -28 938 c 0
 63 938 59 1009 65 1028 c 1
 144 1028 l 17
 124 937 63 886 -44 886 c 0x95
 -100 886 -128 898 -165 898 c 0
 -241 898 -260 827 -260 792 c 0
 -260 779 -257 768 -254 762 c 1
 -254 762 -242 814 -182 814 c 0xcd
 -120 814 -115 753 -89 739 c 1
 -96 769 -62 834 5 834 c 0xa5
 40 834 70 814 70 774 c 0
 70 714 17 668 -28 668 c 0
 -143 668 -134 757 -189 757 c 0
 -233 757 -243 703 -243 686 c 0
 -243 679 -242 672 -239 668 c 1
 -279 668 l 1
 -303 691 -320 732 -320 779 c 0xc6
-22 712 m 0
 2 712 30 730 30 763 c 0
 30 784 14 795 -4 795 c 0xa6
 -30 795 -56 774 -56 743 c 0
 -56 723 -40 712 -22 712 c 0
EndSplineSet
Substitution2: "Thai Mark High Variant" uni0E47.high
Substitution2: "Thai Phinthu Maitaikhu Reordering" uni0E3A
EndChar

StartChar: uni0E48
Encoding: 3656 3656 198
Width: 0
Flags: W
HStem: 1009 201<79 102>
VStem: 48 109
AnchorPoint: "AboveMark" 125 1246 basemark 0
AnchorPoint: "AboveMark" 66 968 mark 0
LayerCount: 2
Fore
SplineSet
157 1210 m 1
 102 1009 l 1
 48 1009 l 1
 79 1210 l 1
 157 1210 l 1
EndSplineSet
MultipleSubs2: "Thai Tone Nikhahit Attachment" uni0E4D uni0E48
Substitution2: "Thai Tone Low Variant" uni0E48.low
Substitution2: "Thai Sara U Mai Ek Reordering" uni0E38
Substitution2: "Thai Sara UU Mai Ek Reordering" uni0E39
Substitution2: "Thai Phinthu Mai Ek Reordering" uni0E3A
EndChar

StartChar: uni0E49
Encoding: 3657 3657 199
Width: 0
Flags: W
HStem: 1063 37<2.87628 45.7205> 1184 34<15.1533 85.2149>
VStem: -37 37<1103.91 1170.08> 89 39<1112.54 1181.49> 312 80<1165.19 1213>
AnchorPoint: "AboveMark" 210 1246 basemark 0
AnchorPoint: "AboveMark" 151 968 mark 0
LayerCount: 2
Fore
SplineSet
128 1159 m 0
 128 1134 108 1062 49 1017 c 1
 144 1025 280 1087 312 1213 c 1
 392 1213 l 17
 340 1060 182 973 27 973 c 0
 6 973 -15 975 -35 978 c 1
 -29 1008 l 1
 -18 1011 24 1032 46 1066 c 1
 46 1066 39 1063 29 1063 c 0
 -16 1063 -37 1091 -37 1123 c 0
 -37 1165 0 1218 62 1218 c 0
 107 1218 128 1190 128 1159 c 0
55 1184 m 0
 25 1184 0 1161 -0 1132 c 0
 0 1115 12 1100 37 1100 c 0
 68 1100 89 1128 89 1151 c 0
 89 1169 79 1184 55 1184 c 0
EndSplineSet
MultipleSubs2: "Thai Tone Nikhahit Attachment" uni0E4D uni0E49
Substitution2: "Thai Tone Low Variant" uni0E49.low
Substitution2: "Thai Sara U Mai Tho Reordering" uni0E38
Substitution2: "Thai Sara UU Mai Tho Reordering" uni0E39
Substitution2: "Thai Phinthu Mai Tho Reordering" uni0E3A
EndChar

StartChar: uni0E4A
Encoding: 3658 3658 200
Width: 0
Flags: W
HStem: 989 29<5.75949 66.3481> 1093 30<15.6045 75.4486> 1172 54<20.8918 68>
VStem: -50 52<1019.3 1118.6> -50 42<1091 1138.56> 79 32<1029.71 1089.3> 206 53<1070.74 1169.09> 318 64<1151.91 1229>
AnchorPoint: "AboveMark" 157 1246 basemark 0
AnchorPoint: "AboveMark" 98 968 mark 0
LayerCount: 2
Fore
SplineSet
225 1051 m 1xf7
 262 1072 318 1122 318 1229 c 1
 382 1229 l 17
 362 1091 265 1009 142 992 c 1
 147 1017 l 1
 184 1037 206 1085 206 1123 c 0
 206 1147 197 1167 178 1172 c 1
 114 1134 l 1
 68 1172 l 1
 29 1172 -8 1126 -8 1091 c 1xef
 -8 1091 9 1123 58 1123 c 0
 91 1123 111 1099 111 1072 c 0
 111 1039 83 989 29 989 c 0
 -23 989 -50 1025 -50 1078 c 0
 -50 1175 39 1226 80 1226 c 1
 125 1180 l 1
 188 1224 l 1
 241 1209 259 1178 259 1144 c 0
 259 1105 235 1065 225 1051 c 1xf7
32 1018 m 0
 54 1018 79 1034 79 1065 c 0
 79 1083 64 1093 48 1093 c 0
 23 1093 2 1070 2 1046 c 0xf7
 2 1027 16 1018 32 1018 c 0
EndSplineSet
MultipleSubs2: "Thai Tone Nikhahit Attachment" uni0E4D uni0E4A
Substitution2: "Thai Tone Low Variant" uni0E4A.low
Substitution2: "Thai Sara U Mai Tri Reordering" uni0E38
Substitution2: "Thai Sara UU Mai Tri Reordering" uni0E39
Substitution2: "Thai Phinthu Mai Tri Reordering" uni0E3A
EndChar

StartChar: uni0E4B
Encoding: 3659 3659 201
Width: 0
Flags: W
HStem: 1081 57<-39 56 130 221>
VStem: -51 284
DStem2: 39 992 96 992 0.207912 0.978148<11.851 89.6115 163.686 241.177>
AnchorPoint: "AboveMark" 119 1246 basemark 0
AnchorPoint: "AboveMark" 60 968 mark 0
LayerCount: 2
Fore
SplineSet
221 1081 m 1
 116 1080 l 1
 96 992 l 1
 39 992 l 1
 56 1080 l 1
 -51 1081 l 1
 -39 1138 l 1
 67 1140 l 1
 84 1229 l 1
 150 1229 l 1
 130 1140 l 1
 233 1138 l 1
 221 1081 l 1
EndSplineSet
MultipleSubs2: "Thai Tone Nikhahit Attachment" uni0E4D uni0E4B
Substitution2: "Thai Tone Low Variant" uni0E4B.low
Substitution2: "Thai Sara U Mai Chattawa Reordering" uni0E38
Substitution2: "Thai Sara UU Mai Chattawa Reordering" uni0E39
Substitution2: "Thai Phinthu Mai Chattawa Reordering" uni0E3A
EndChar

StartChar: uni0E4C
Encoding: 3660 3660 202
Width: 0
Flags: W
HStem: 902 29<-0.75753 62.9376>
VStem: -42 36<934.366 1000.15> 80 34<945.73 1010.4>
AnchorPoint: "AboveMark" 95 1246 basemark 0
AnchorPoint: "AboveMark" 19 891 mark 0
LayerCount: 2
Fore
SplineSet
114 992 m 0
 114 951 79 902 23 902 c 0
 -19 902 -42 924 -42 957 c 0
 -42 982 -29 1060 103 1081 c 0
 130 1086 220 1118 234 1172 c 1
 289 1143 l 17
 244 1064 145 1048 86 1038 c 1
 105 1029 114 1011 114 992 c 0
46 1014 m 0
 14 1014 -6 987 -6 962 c 0
 -6 946 5 931 28 931 c 0
 59 931 80 959 80 981 c 0
 80 999 70 1014 46 1014 c 0
EndSplineSet
MultipleSubs2: "Thai Tone Nikhahit Attachment" uni0E4D uni0E4C
Substitution2: "Thai Tone Low Variant" uni0E4C.low
Substitution2: "Thai Sara U Thanthakhat Reordering" uni0E38
Substitution2: "Thai Sara UU Thanthakhat Reordering" uni0E39
Substitution2: "Thai Phinthu Thanthakhat Reordering" uni0E3A
EndChar

StartChar: uni0E4D
Encoding: 3661 3661 203
Width: 0
Flags: W
HStem: 668 43<-26.6016 54.2393> 813 46<-14.6024 67.249>
VStem: -77 46<715.216 796.821> 72 46<728.213 808.848>
AnchorPoint: "AboveMark" 65 968 basemark 0
AnchorPoint: "AboveBase" 31 645 mark 0
LayerCount: 2
Fore
SplineSet
118 786 m 0
 118 730 71 668 1 668 c 0
 -53 668 -77 702 -77 742 c 0
 -77 799 -29 859 42 859 c 0
 95 859 118 825 118 786 c 0
10 711 m 0
 40 711 72 740 72 773 c 0
 72 796 55 813 32 813 c 0
 -3 813 -31 782 -31 751 c 0
 -31 728 -15 711 10 711 c 0
EndSplineSet
Substitution2: "Thai Mark High Variant" uni0E4D.high
Substitution2: "Thai Sara U Nikhahit Reordering" uni0E38
Substitution2: "Thai Sara UU Nikhahit Reordering" uni0E39
Substitution2: "Thai Phinthu Nikhahit Reordering" uni0E3A
EndChar

StartChar: uni0E4E
Encoding: 3662 3662 204
Width: 0
Flags: W
HStem: 792 47<-17.2448 78.4499> 889 45<167.913 271.192>
VStem: -108 72<675.482 773.061> 104 48<807.329 872.832>
AnchorPoint: "AboveMark" 96 951 basemark 0
AnchorPoint: "AboveBase" 31 645 mark 0
LayerCount: 2
Fore
SplineSet
104 832 m 0
 104 881 157 934 228 934 c 0
 274 934 310 906 310 895 c 0
 310 889 292 863 278 863 c 0
 274 863 251 889 216 889 c 0
 179 889 152 857 152 829 c 0
 152 820 154 812 154 806 c 0
 154 795 108 762 91 762 c 0
 80 762 69 792 31 792 c 0
 -2 792 -36 765 -36 724 c 0
 -36 705 -27 693 -27 686 c 0
 -27 685 -29 681 -30 680 c 0
 -42 674 -79 651 -84 651 c 0
 -94 651 -108 676 -108 707 c 0
 -108 780 -32 839 31 839 c 0
 58 839 84 829 105 806 c 1
 107 808 l 1
 105 816 104 824 104 832 c 0
EndSplineSet
Substitution2: "Thai Mark High Variant" uni0E4E.high
EndChar

StartChar: uni0E4F
Encoding: 3663 3663 205
Width: 737
Flags: W
HStem: -2 54<286.446 479.725> 164 43<374.252 460.826> 382 47<400.695 490.06> 539 55<381.049 575.555>
VStem: 79 103<153.917 342.003> 293 73<214.124 343.968> 498 70<249.688 374.257> 679 104<248.079 438.153>
LayerCount: 2
Fore
SplineSet
783 357 m 0
 783 147 568 -2 369 -2 c 0
 221 -2 79 80 79 235 c 0
 79 435 278 594 495 594 c 0
 638 594 783 513 783 357 c 0
380 52 m 0
 534 52 679 197 679 346 c 0
 679 456 600 539 484 539 c 0
 325 539 182 395 182 246 c 0
 182 136 261 52 380 52 c 0
568 326 m 0
 568 238 486 164 404 164 c 0
 338 164 293 204 293 266 c 0
 293 349 365 429 460 429 c 0
 521 429 568 389 568 326 c 0
413 207 m 0
 465 207 498 271 498 324 c 0
 498 357 484 382 450 382 c 0
 385 382 366 301 366 266 c 0
 366 233 378 207 413 207 c 0
EndSplineSet
EndChar

StartChar: uni0E50
Encoding: 3664 3664 206
Width: 645
Flags: W
HStem: -8 45<249.195 415.895> 430 45<319.402 492.197>
VStem: 96 81<109.026 280.388> 562 80<183.365 359.263>
LayerCount: 2
Fore
SplineSet
642 282 m 0
 642 128 493 -8 321 -8 c 0
 189 -8 96 66 96 182 c 0
 96 337 245 475 424 475 c 0
 551 475 642 396 642 282 c 0
331 37 m 0
 450 37 562 155 562 275 c 0
 562 360 508 430 414 430 c 0
 277 430 177 303 177 191 c 0
 177 104 237 37 331 37 c 0
EndSplineSet
EndChar

StartChar: uni0E51
Encoding: 3665 3665 207
Width: 645
Flags: W
HStem: -6 48<214.031 337.115> 95 46<302.956 375.818> 224 45<310.588 383.792> 430 45<319.5 497.797>
VStem: 93 80<85.8687 278.227> 253 48<142.892 213.821> 386 60<152.95 221.762> 570 79<181.687 358.847>
LayerCount: 2
Fore
SplineSet
93 166 m 0
 93 351 251 475 420 475 c 0
 544 475 649 404 649 283 c 0
 649 174 564 10 393 -29 c 1
 363 -14 l 1
 541 45 570 233 570 278 c 0
 570 372 502 430 410 430 c 0
 283 430 173 317 173 170 c 0
 173 81 223 42 275 42 c 0
 317 42 360 68 376 115 c 1
 376 115 361 95 321 95 c 0
 276 95 253 126 253 163 c 0
 253 212 297 269 363 269 c 0
 420 269 446 232 446 184 c 0
 446 95 368 -6 252 -6 c 0
 170 -6 93 50 93 166 c 0
334 141 m 0
 360 141 386 162 386 193 c 0
 386 213 370 224 352 224 c 0
 330 224 301 206 301 173 c 0
 301 152 317 141 334 141 c 0
EndSplineSet
EndChar

StartChar: uni0E52
Encoding: 3666 3666 208
Width: 645
Flags: W
HStem: 0 45<160.592 522.957> 83 43<282.109 356.03> 209 44<296.206 364.275> 412 60<345.376 406.582 527.111 615.117>
VStem: 71 76<57.4 156.14> 178 69<511.156 668.312> 223 57<128.321 243.047> 366 46<135.103 206.616> 422 35<364 392.678> 593 71<207.533 409.125>
DStem2: 48.2179 0 122.643 0 0.207912 0.978148<123.519 637.353>
LayerCount: 2
Fore
SplineSet
223 184 m 0xfbc0
 223 339 294 472 380 472 c 0
 438 472 457 415 457 375 c 0
 457 371 456 368 456 364 c 1
 461 364 l 1
 476 403 524 472 585 472 c 0
 643 472 664 419 664 349 c 0
 664 280 638 161 615 104 c 0
 592 46 570 0 472 0 c 2
 194 0 l 2
 108 0 71 38 71 93 c 0
 71 104 72 115 75 126 c 2
 165 551 l 2
 175 601 178 627 178 642 c 0
 178 656 176 662 176 669 c 0
 176 679 180 694 195 694 c 0
 202 694 209 691 214 687 c 1
 242 641 l 1
 242 641 247 633 247 610 c 0xfdc0
 247 596 245 577 240 551 c 2
 149 124 l 2
 148 117 147 111 147 105 c 0
 147 67 173 45 208 45 c 2
 475 45 l 2
 524 45 541 78 564 173 c 1
 577 233 l 2
 583 265 593 312 593 350 c 0
 593 385 585 412 560 412 c 0
 530 412 489 348 475 312 c 0
 467 293 453 282 441 282 c 0
 420 282 422 308 422 317 c 0
 422 354 409 412 379 412 c 0
 344 412 296 329 296 235 c 1
 296 235 312 253 344 253 c 0
 391 253 412 223 412 189 c 0
 412 139 370 83 308 83 c 0
 242 83 223 131 223 184 c 0xfbc0
315 126 m 0
 342 126 366 146 366 176 c 0
 366 198 350 209 332 209 c 0
 304 209 280 184 280 157 c 0xfbc0
 280 136 296 126 315 126 c 0
EndSplineSet
EndChar

StartChar: uni0E53
Encoding: 3667 3667 209
Width: 645
Flags: W
HStem: -8 42<168.149 241.405> 118 45<176.265 249.934> 412 61<249.435 338.28 476.328 564.204>
VStem: 90 76<36.0592 285.031> 252 44<43.4491 115.731> 581 79<195.59 396.292>
DStem2: 301.426 -8 350.426 -8 0.207912 0.978148<201.684 317.582>
LayerCount: 2
Fore
SplineSet
90 140 m 0
 90 293 158 473 311 473 c 0
 391 473 403 370 403 370 c 1
 405 370 l 1
 446 450 493 473 542 473 c 0
 624 473 660 417 660 331 c 0
 660 236 617 115 564 11 c 1
 519 0 l 2
 514 -1 509 -2 504 -2 c 0
 497 -2 490 1 493 12 c 0
 496 27 581 195 581 320 c 0
 581 381 559 412 523 412 c 0
 462 412 417 306 403 238 c 2
 394 197 l 2
 390 179 376 170 364 170 c 0
 353 170 344 176 344 189 c 0
 344 192 344 194 345 197 c 2
 353 237 l 2
 358 262 361 284 361 305 c 0
 361 370 336 412 300 412 c 0
 224 412 169 293 166 137 c 1
 166 137 192 163 229 163 c 0
 272 163 296 134 296 97 c 0
 296 41 248 -8 192 -8 c 0
 133 -8 101 32 93 86 c 0
 91 103 90 121 90 140 c 0
200 34 m 0
 224 34 252 52 252 86 c 0
 252 107 236 118 218 118 c 0
 192 118 166 96 166 65 c 0
 166 45 182 34 200 34 c 0
EndSplineSet
EndChar

StartChar: uni0E54
Encoding: 3668 3668 210
Width: 645
Flags: W
HStem: -5 49<225.388 387.943> 3 45<278.549 405.983 462.883 582> 169 45<380.188 454.497> 298 46<389.075 464.071> 424 48<304.754 554.843>
VStem: 100 79<91.3196 285.11> 304 75<157.142 279.744> 466 46<224.955 295.786> 680 73<619.002 673.75>
LayerCount: 2
Fore
SplineSet
413 214 m 0x3f80
 442 214 466 240 466 266 c 0
 466 287 450 298 431 298 c 0
 405 298 379 277 379 245 c 0
 379 224 395 214 413 214 c 0x3f80
304 198 m 0
 304 292 373 344 436 344 c 0
 482 344 512 318 512 275 c 0
 512 212 454 169 407 169 c 0
 392 169 377 174 365 184 c 1
 357 147 448 45 558 45 c 0
 566 45 596 49 600 49 c 0
 621 49 606 32 605 29 c 1
 582 0 l 1
 466 0 409 3 390 3 c 0x7f80
 346 3 310 -5 277 -5 c 0
 182 -5 100 60 100 179 c 0
 100 341 223 472 392 472 c 0
 430 472 438 468 466 468 c 0
 560 468 647 536 680 690 c 1
 744 670 l 2
 749 668 753 666 753 659 c 0
 753 632 683 421 462 421 c 0
 444 421 413 424 394 424 c 0
 250 424 179 290 179 175 c 0
 179 101 212 44 303 44 c 0xbf80
 329 44 340 48 360 48 c 0x7f80
 382 48 406 45 406 45 c 1
 355 66 304 122 304 198 c 0
EndSplineSet
EndChar

StartChar: uni0E55
Encoding: 3669 3669 211
Width: 645
Flags: W
HStem: -5 49<225.388 387.943> 3 45<278.549 406.982 462.883 582> 169 45<380.188 454.497> 298 46<390.104 464.071> 421 47<302.009 348 396.472 489.384> 567 44<412.442 505.001>
VStem: 100 79<91.3196 283.373> 304 75<158.294 279.078> 344 46<469.517 544.435> 466 46<224.955 295.786> 512 48<485.392 559.824> 678 75<617.912 673.75>
LayerCount: 2
Fore
SplineSet
413 214 m 0x3f50
 442 214 466 240 466 266 c 0
 466 287 450 298 431 298 c 0
 405 298 379 277 379 245 c 0
 379 224 395 214 413 214 c 0x3f50
464 567 m 0
 429 567 390 538 390 492 c 0
 390 482 393 476 396 470 c 1
 406 469 420 468 435 468 c 0
 455 468 477 469 490 472 c 1
 505 485 512 502 512 521 c 0x3eb0
 512 552 489 567 464 567 c 0
512 275 m 0x7f50
 512 212 454 169 407 169 c 0
 392 169 377 174 365 184 c 1
 357 147 448 45 558 45 c 0
 566 45 596 49 600 49 c 0
 621 49 606 32 605 29 c 1
 582 0 l 1
 466 0 409 3 390 3 c 0x7ed0
 346 3 310 -5 277 -5 c 0
 182 -5 100 60 100 179 c 0
 100 326 203 449 348 468 c 1
 346 476 344 485 344 494 c 0
 344 536 390 611 474 611 c 0
 528 611 560 580 560 532 c 0
 560 527 559 495 547 485 c 1
 591 511 647 548 678 690 c 1
 744 670 l 2
 749 668 753 666 753 659 c 0
 753 629 677 422 470 421 c 0
 450 421 413 422 394 422 c 0
 250 422 179 290 179 175 c 0
 179 101 212 44 303 44 c 0xbeb0
 329 44 340 48 360 48 c 0
 382 48 407 43 407 43 c 1
 357 65 304 122 304 198 c 0
 304 289 371 344 436 344 c 0
 482 344 512 318 512 275 c 0x7f50
EndSplineSet
EndChar

StartChar: uni0E56
Encoding: 3670 3670 212
Width: 645
Flags: W
HStem: -8 45<226.576 412.41> 104 45<192.8 265.829> 233 47<201.756 275.294> 430 45<280.904 482.996>
VStem: 111 69<74.8661 120> 223 75<454.542 661.773> 277 44<160.329 231.056> 556 81<181.067 359.495>
LayerCount: 2
Fore
SplineSet
207 419 m 0xfb
 207 439 223 479 223 552 c 0
 223 635 196 663 196 680 c 0
 196 687 201 691 208 691 c 2
 285 691 l 1
 291 676 298 640 298 592 c 0xfd
 298 552 291 494 279 453 c 1
 311 468 364 475 407 475 c 0
 543 475 637 403 637 284 c 0
 637 176 557 -8 308 -8 c 0
 166 -8 111 62 111 133 c 0
 111 209 172 280 252 280 c 0
 296 280 321 250 321 212 c 0
 321 159 278 104 216 104 c 0
 188 104 180 120 180 120 c 1
 178 72 246 37 318 37 c 0
 453 37 556 153 556 276 c 0
 556 369 490 430 397 430 c 0
 303 430 244 391 233 391 c 0
 221 391 207 398 207 419 c 0xfb
225 149 m 0
 249 149 277 170 277 202 c 0xfb
 277 223 261 233 243 233 c 0
 208 233 191 203 191 182 c 0
 191 160 207 149 225 149 c 0
EndSplineSet
EndChar

StartChar: uni0E57
Encoding: 3671 3671 213
Width: 645
Flags: W
HStem: -8 42<149.126 220.514> 118 45<156.694 228.908> 418 54<219.06 296.387 418.603 495.536>
VStem: 73 73<36.206 291.06> 231 46<43.9739 115.447> 307 47<249.318 324.603> 312 35<362 398.25> 507 65<225.377 410.145> 662 72<413.88 656.507>
LayerCount: 2
Fore
SplineSet
173 -8 m 0xfb80
 87 -8 73 61 73 142 c 0
 73 338 163 472 275 472 c 0
 314 472 347 431 347 372 c 2
 347 362 l 1xfb80
 352 362 l 1
 374 426 432 472 474 472 c 0
 517 472 572 443 572 347 c 0
 572 259 528 149 472 52 c 1
 472 52 510 68 536 109 c 0
 594 200 662 356 662 527 c 0
 662 566 658 604 651 641 c 1
 697 687 l 2
 704 694 710 699 716 699 c 0
 728 699 734 662 734 608 c 0
 734 321 585 -5 432 -5 c 0
 418 -5 404 -2 404 12 c 0
 404 32 507 210 507 342 c 0
 507 398 485 418 464 418 c 0
 417 418 370 349 354 275 c 1
 349 257 336 248 325 248 c 0
 315 248 307 256 307 272 c 0xfd80
 307 279 312 296 312 326 c 0
 312 372 299 418 261 418 c 0
 235 418 184 388 159 269 c 0
 152 234 146 190 144 138 c 1
 144 138 172 163 210 163 c 0
 252 163 277 134 277 96 c 0
 277 44 230 -8 173 -8 c 0xfb80
179 34 m 0
 203 34 231 52 231 86 c 0
 231 107 215 118 197 118 c 0
 166 118 146 90 146 65 c 0
 146 45 162 34 179 34 c 0
EndSplineSet
EndChar

StartChar: uni0E58
Encoding: 3672 3672 214
Width: 645
Flags: W
HStem: -3 51<395.694 504.658> 161 45<511.331 561.593> 289 47<520.482 592.807> 424 49<298.507 547.449>
VStem: 85 79<87.4533 281.383> 315 52<78.146 164> 459 51<208.001 279.582> 595 55<215.884 286.366> 665 75<621.359 671.781>
LayerCount: 2
Fore
SplineSet
459 229 m 0
 459 272 496 336 570 336 c 0
 636 336 650 295 650 258 c 0
 650 237 645 217 643 208 c 0
 612 62 522 -3 454 -3 c 0
 403 -3 315 5 315 128 c 0
 315 136 315 144 316 152 c 1
 288 134 251 48 234 -6 c 1
 171 -6 85 54 85 177 c 0
 85 330 201 473 376 473 c 0
 405 473 440 468 463 468 c 0
 525 468 626 508 665 690 c 1
 730 668 l 2
 736 667 740 664 740 657 c 0
 740 621 649 421 470 421 c 0
 441 421 417 424 393 424 c 0
 242 424 164 301 164 170 c 0
 164 122 178 84 210 61 c 1
 210 61 255 192 333 220 c 1
 374 214 l 1
 369 192 367 173 367 155 c 0
 367 83 404 48 447 48 c 0
 492 48 545 89 562 166 c 1
 549 162 538 161 528 161 c 0
 481 161 459 195 459 229 c 0
543 206 m 0
 574 206 595 233 595 256 c 0
 595 276 580 289 560 289 c 0
 531 289 510 264 510 236 c 0
 510 218 523 206 543 206 c 0
EndSplineSet
EndChar

StartChar: uni0E59
Encoding: 3673 3673 215
Width: 645
Flags: W
HStem: -9 41<216.156 285.775> 115 45<222.616 295.479> 346 60<556.573 627.468> 413 54<219.775 322.06 446.486 513.087>
VStem: 96 76<142.15 332.528> 298 44<43.2395 112.077> 693 83<552.992 668.312>
LayerCount: 2
Fore
SplineSet
247 32 m 0
 274 32 298 59 298 82 c 0
 298 101 282 115 264 115 c 0
 241 115 213 95 213 65 c 0
 213 46 227 32 247 32 c 0
776 658 m 1
 776 658 742 346 584 346 c 0
 513 346 523 413 480 413 c 0
 458 413 445 395 440 374 c 0
 440 370 439 366 439 362 c 1
 482 292 542 40 542 40 c 2
 549 15 529 -8 502 -8 c 0
 450 -8 471 48 390 275 c 1
 357 363 320 412 274 412 c 0
 204 412 172 334 172 250 c 0
 172 204 183 157 203 124 c 1
 203 124 229 160 275 160 c 0
 317 160 342 133 342 94 c 0
 342 35 286 -9 238 -9 c 0
 144 -9 96 104 96 213 c 0
 96 353 174 465 291 465 c 0
 329 465 371 452 405 407 c 1
 411 439 450 467 487 467 c 0
 560 467 547 406 591 406 c 0
 652 406 688 545 693 687 c 1
 769 664 l 1
 774 664 776 662 776 658 c 1
EndSplineSet
EndChar

StartChar: uni0E5A
Encoding: 3674 3674 216
Width: 731
Flags: W
HStem: 0 21G<347 429.235 539 621.235> 414 51<186.176 389.906> 560 38<197.61 270.962>
VStem: 138 44<472.711 547.008> 275 42<481.099 557.045>
DStem2: 347 0 425 0 0.207912 0.978148<16.2171 479.542 530.031 608.195> 539 0 617 0 0.207912 0.978148<16.2171 608.195>
LayerCount: 2
Fore
SplineSet
138 496 m 0
 138 547 185 598 244 598 c 0
 302 598 317 560 317 531 c 0
 317 492 289 467 289 466 c 1
 295 466 300 465 306 465 c 0
 435 465 469 576 473 595 c 1
 551 595 l 1
 425 0 l 1
 347 0 l 1
 447 469 l 1
 396 428 335 414 281 414 c 0
 219 414 138 431 138 496 c 0
239 560 m 0
 204 560 182 530 182 505 c 0
 182 486 193 469 220 469 c 0
 254 469 275 497 275 525 c 0
 275 544 264 560 239 560 c 0
665 595 m 1
 743 595 l 1
 617 0 l 1
 539 0 l 1
 665 595 l 1
EndSplineSet
EndChar

StartChar: uni0E5B
Encoding: 3675 3675 217
Width: 1474
Flags: W
HStem: 48 40<306.443 465.658> 191 33<1178 1200.17> 210 42<379.245 473.134> 275 32<376.247 406.229 1334.81 1362.17> 332 29<1387.76 1519> 346 30<1273.35 1303.61> 401 26<378.906 417.767> 435 44<1144 1159.09> 473 51<972 989.281> 574 47<363.222 507.707>
VStem: 122 92<182.858 387.805> 305 54<287.958 385.807> 420 51<313.378 400.55> 548 73<349.702 531.689> 699 58<388.252 545.723> 789 69<246.65 484.915> 936 41<376.071 472.341> 1007 56<265.044 459.775> 1172 52<271.496 429.827> 1303 32<307.03 345.405>
LayerCount: 2
Fore
SplineSet
1138 201 m 0xd67ff0
 1138 202 1172 270 1172 344 c 0
 1172 378 1165 410 1147 435 c 1
 1144 435 l 1xd77ff0
 1148 424 1150 411 1150 395 c 0
 1150 268 1053 157 981 157 c 0
 972 157 972 163 973 168 c 0
 973 169 986 201 995 244 c 0
 1003 281 1007 319 1007 354 c 0
 1007 406 997 451 975 473 c 1
 972 473 l 1
 975 459 977 441 977 422 c 0
 977 318 922 173 800 123 c 1
 775 115 l 2
 774 115 772 114 771 114 c 0
 762 114 756 121 757 129 c 2
 757 129 789 218 789 346 c 0
 789 414 779 482 749 530 c 1
 746 530 l 1
 753 505 757 475 757 444 c 0
 757 196 553 48 371 48 c 0
 230 48 122 138 122 276 c 0
 122 417 233 621 436 621 c 0
 510 621 621 590 621 456 c 0
 621 307 506 210 414 210 c 0
 349 210 305 249 305 313 c 0
 305 391 358 427 407 427 c 0
 446 427 471 404 471 368 c 0
 471 312 422 280 393 280 c 1
 376 281 l 1
 380 264 390 252 424 252 c 0
 479 252 548 336 548 453 c 0
 548 549 487 574 440 574 c 0
 315 574 214 408 214 280 c 0
 214 172 282 88 380 88 c 0
 574 88 699 343 699 524 c 0
 699 543 697 555 697 563 c 0
 697 581 713 589 727 589 c 0
 749 589 858 531 858 376 c 0
 858 296 830 220 806 167 c 1
 811 167 l 1
 880 219 936 404 936 508 c 1
 937 514 940 524 953 524 c 0xb6fff0
 970 524 990 509 993 508 c 0
 1046 481 1063 433 1063 380 c 0
 1063 310 1032 236 1014 198 c 1
 1017 198 l 1
 1059 236 1090 325 1105 397 c 0
 1121 469 1109 479 1130 479 c 0
 1148 479 1162 465 1162 465 c 1
 1206 441 1224 403 1224 360 c 0
 1224 317 1205 268 1178 224 c 1
 1182 224 l 1
 1207 237 1232 283 1244 329 c 0
 1252 361 1276 376 1298 376 c 0xd77ff0
 1318 376 1335 364 1335 340 c 0
 1335 330 1331 307 1344 307 c 0
 1351 307 1360 315 1365 329 c 0
 1376 357 1389 361 1409 361 c 2
 1424 361 l 1
 1524 358 l 1
 1519 335 l 1
 1417 332 l 2x9a7ff0
 1401 332 1392 330 1386 315 c 0
 1375 289 1354 275 1336 275 c 0
 1318 275 1303 288 1303 314 c 0
 1303 324 1308 346 1292 346 c 0
 1283 346 1273 339 1273 328 c 2
 1273 318 l 2
 1273 235 1191 191 1153 191 c 0
 1145 191 1136 193 1138 201 c 0xd67ff0
380 306 m 0
 412 306 420 354 420 373 c 0
 420 388 416 401 401 401 c 0
 376 401 359 358 359 333 c 0
 359 318 366 306 380 306 c 0
EndSplineSet
EndChar

StartChar: uni0E38.low
Encoding: 63256 63256 218
Width: 0
Flags: W
HStem: -378 31<-281.815 -234.599> -275 29<-271.382 -215.613>
VStem: -318 33<-344.685 -286.631> -212 62<-339.523 -275.935>
DStem2: -260 -492 -188 -492 0.207912 0.978148<14.9696 122.783>
LayerCount: 2
Fore
SplineSet
-318 -326 m 0
 -318 -299 -299 -246 -225 -246 c 0
 -177 -246 -150 -270 -150 -306 c 0
 -150 -311 -151 -317 -152 -323 c 2
 -188 -492 l 1
 -260 -492 l 1
 -234 -372 l 1
 -237 -372 -247 -378 -263 -378 c 0
 -300 -378 -318 -353 -318 -326 c 0
-241 -275 m 0
 -267 -275 -285 -300 -285 -320 c 0
 -285 -334 -276 -347 -257 -347 c 0
 -230 -347 -212 -323 -212 -302 c 0
 -212 -288 -221 -275 -241 -275 c 0
EndSplineSet
EndChar

StartChar: uni0E39.low
Encoding: 63257 63257 219
Width: 0
Flags: W
HStem: -493 29<-302.728 -252.918> -367 26<-382.12 -332.228> -273 27<-374.047 -319.934>
VStem: -413 26<-336.037 -286.629> -346 41<-462.617 -400.208> -316 38<-332.238 -274.355>
DStem2: -359.304 -493 -316.966 -493 0.207912 0.978148<64.203 134.792> -256.651 -493 -187.651 -493 0.207912 0.978148<35.9675 248.429>
LayerCount: 2
Fore
SplineSet
-413 -319 m 0xf8
 -413 -285 -385 -246 -335 -246 c 0
 -293 -246 -278 -266 -278 -296 c 0xf4
 -278 -304 -279 -313 -281 -323 c 2
 -304 -432 l 2
 -304 -434 -305 -437 -305 -439 c 0
 -305 -453 -296 -464 -280 -464 c 0
 -262 -464 -247 -449 -244 -432 c 2
 -205 -250 l 1
 -136 -250 l 1
 -170 -409 l 2
 -179 -453 -217 -493 -271 -493 c 0
 -318 -493 -346 -471 -346 -437 c 0
 -346 -432 -345 -427 -344 -421 c 2
 -332 -361 l 1
 -337 -362 -344 -367 -361 -367 c 0
 -398 -367 -413 -344 -413 -319 c 0xf8
-358 -341 m 0
 -339 -341 -316 -323 -316 -300 c 0
 -316 -284 -327 -273 -344 -273 c 0
 -370 -273 -387 -297 -387 -313 c 0
 -387 -328 -374 -341 -358 -341 c 0
EndSplineSet
EndChar

StartChar: uni0E3A.low
Encoding: 63258 63258 220
Width: 0
Flags: W
HStem: -318 85<-215.613 -151.026>
VStem: -226 85<-308.806 -243.354>
LayerCount: 2
Fore
SplineSet
-141 -265 m 0
 -141 -291 -160 -318 -192 -318 c 0
 -216 -318 -226 -303 -226 -285 c 0
 -226 -260 -205 -233 -174 -233 c 0
 -151 -233 -141 -247 -141 -265 c 0
EndSplineSet
EndChar

StartChar: multiply
Encoding: 215 215 221
Width: 619
Flags: W
DStem2: 116 117 153 69 0.770645 0.637264<0 265.146 341.099 605.208> 245 502 189 456 0.616746 -0.787162<1.67171 216.291 278.737 492.123>
LayerCount: 2
Fore
SplineSet
549 115 m 1
 493 68 l 1
 360 238 l 1
 153 69 l 1
 116 117 l 1
 322 286 l 1
 189 456 l 1
 245 502 l 1
 380 333 l 1
 585 502 l 1
 621 456 l 1
 417 286 l 1
 549 115 l 1
EndSplineSet
EndChar

StartChar: divide
Encoding: 247 247 222
Width: 546
Flags: W
HStem: 14 104<252.564 324.177> 224 57<92 563> 387 106<331.122 403.406>
VStem: 234 107<30.9776 99.625> 313 108<405 474.955>
LayerCount: 2
Fore
SplineSet
421 453 m 0xe8
 421 413 387 387 355 387 c 0
 329 387 313 407 313 430 c 0
 313 460 342 493 378 493 c 0
 404 493 421 478 421 453 c 0xe8
563 224 m 1
 80 224 l 1
 92 281 l 1
 575 281 l 1
 563 224 l 1
341 77 m 0xf0
 341 47 315 14 276 14 c 0
 251 14 234 31 234 55 c 0
 234 90 270 118 298 118 c 0
 324 118 341 101 341 77 c 0xf0
EndSplineSet
EndChar

StartChar: registered
Encoding: 174 174 223
Width: 735
Flags: W
HStem: -11 42<280.425 477.261> 154 13<256 294.123 363.505 395 558.62 574> 315 17<394 440.197> 492 13<330 362.594 432.023 500.363> 611 42<395.826 596.1>
VStem: 106 47<158.952 366.842> 530 61<380.555 481.97> 722 47<277.975 482.212>
DStem2: 260.788 -11 320.576 -11 0.207912 0.978148<208.099 349.647 366.135 500.566>
LayerCount: 2
Fore
SplineSet
769 392 m 0
 769 194 580 -11 368 -11 c 0
 212 -11 106 100 106 250 c 0
 106 459 301 653 509 653 c 0
 664 653 769 540 769 392 c 0
377 31 m 0
 548 31 722 203 722 381 c 0
 722 509 632 611 500 611 c 0
 330 611 153 443 153 261 c 0
 153 131 245 31 377 31 c 0
574 154 m 1
 512 154 l 2
 485 154 479 194 470 230 c 1
 447 306 462 315 390 315 c 1
 365 198 l 2
 363 190 362 185 362 180 c 0
 362 171 367 167 384 167 c 2
 397 167 l 1
 395 154 l 1
 254 154 l 1
 256 167 l 1
 265 167 l 1
 291 169 299 169 305 197 c 2
 361 462 l 2
 363 469 364 475 364 479 c 0
 364 490 357 492 337 492 c 2
 328 492 l 1
 330 505 l 1
 488 505 l 2
 556 505 591 487 591 443 c 0
 591 397 555 339 480 329 c 1
 479 323 l 1
 516 315 523 273 532 241 c 1
 543 206 543 169 576 167 c 1
 574 154 l 1
414 332 m 1
 515 332 530 403 530 438 c 0
 530 475 507 492 464 492 c 0
 429 492 425 482 421 463 c 2
 394 335 l 1
 414 332 l 1
EndSplineSet
EndChar

StartChar: fi
Encoding: 64257 64257 224
Width: 534
Flags: W
HStem: 0 15<25 68.4872 206.015 242 294 337.401 477.973 511> 417 33<117 178 267 438.869> 658 25<368.368 454.047>
DStem2: 89.0197 0 173.295 0 0.207912 0.978148<74.5838 426.388 477.171 580.33> 360.382 0 444.382 0 0.207912 0.978148<74.8081 397.87>
LayerCount: 2
Fore
SplineSet
566 623 m 0
 566 597 543 574 520 574 c 0
 472 574 485 658 418 658 c 0
 373 658 326 628 304 584 c 0
 295 568 285 538 276 494 c 2
 267 450 l 1
 424 450 l 2
 465 450 494 453 540 460 c 1
 542 457 l 1
 515 339 491 217 465 97 c 0
 461 79 459 66 459 55 c 0
 459 27 474 19 514 15 c 1
 511 0 l 1
 291 0 l 1
 294 15 l 1
 357 21 366 29 381 97 c 2
 437 360 l 2
 439 372 441 382 441 390 c 0
 441 416 422 417 348 417 c 2
 262 417 l 1
 192 88 l 2
 189 75 187 64 187 55 c 0
 187 27 203 18 245 15 c 1
 242 0 l 1
 22 0 l 1
 25 15 l 1
 82 18 95 29 109 94 c 2
 178 417 l 1
 110 417 l 1
 117 450 l 1
 185 450 l 1
 208 530 228 567 265 608 c 1
 313 658 376 683 451 683 c 0
 523 683 566 659 566 623 c 0
EndSplineSet
Ligature2: "'liga' Standard Ligatures in Latin lookup 2 subtable" f i
LCarets2: 1 0 
EndChar

StartChar: fl
Encoding: 64258 64258 225
Width: 530
Flags: W
HStem: 0 15<24 66.8452 211.346 245 297 335.894 474.018 510> 417 33<117 178 269 451> 584 74<433.298 517> 656 27<342.473 408.341>
DStem2: 88.6816 0 173.208 0 0.207912 0.978148<74.5164 426.458 477.657 592.35> 362.358 0 444.783 0 0.207912 0.978148<69.1616 426.317 460.052 605.186>
LayerCount: 2
Fore
SplineSet
24 15 m 1xd0
 73 20 93 19 111 105 c 2
 178 417 l 1
 110 417 l 1
 117 450 l 1
 187 450 l 1
 209 538 228 577 267 620 c 0
 303 659 354 683 401 683 c 0xd0
 454 683 491 658 508 658 c 0xe0
 526 658 569 683 586 683 c 1
 590 681 l 1
 462 81 l 2
 459 69 458 58 458 50 c 0
 458 25 473 18 513 15 c 1
 510 0 l 1
 294 0 l 1
 297 15 l 1
 350 19 369 35 380 83 c 2
 451 417 l 1
 262 417 l 1
 190 79 l 2
 188 69 187 61 187 55 c 0
 187 29 203 20 248 15 c 1
 245 0 l 1
 21 0 l 1
 24 15 l 1xd0
470 584 m 0xe0
 410 584 433 656 378 656 c 0xd0
 334 656 302 606 280 502 c 2
 269 450 l 1
 458 450 l 1
 488 592 l 1
 481 586 477 584 470 584 c 0xe0
EndSplineSet
Ligature2: "'liga' Standard Ligatures in Latin lookup 2 subtable" f l
LCarets2: 1 0 
EndChar

StartChar: ff
Encoding: 64256 64256 226
Width: 588
Flags: W
HStem: 0 15<25 68.2349 206.015 242 296 339.235 477.015 513> 417 33<117 177 269 448 538 654> 633 29<354.517 448.158> 655 28<605.129 707.5>
DStem2: 88.0197 0 173.295 0 0.207912 0.978148<74.7917 426.388 477.794 574.493> 359.02 0 444.295 0 0.207912 0.978148<74.7917 426.388 477.379 574.749>
LayerCount: 2
Fore
SplineSet
773 630 m 0xd0
 773 600 744 580 721 580 c 0
 675 580 692 655 638 655 c 0xd0
 600 655 575 624 562 565 c 2
 538 450 l 1
 661 450 l 1
 654 417 l 1
 533 417 l 1
 463 88 l 2
 460 75 458 64 458 55 c 0
 458 27 474 18 516 15 c 1
 513 0 l 1
 293 0 l 1
 296 15 l 1
 353 18 365 29 379 94 c 2
 448 417 l 1
 262 417 l 1
 192 88 l 2
 189 75 187 64 187 55 c 0
 187 27 203 18 245 15 c 1
 242 0 l 1
 22 0 l 1
 25 15 l 1
 82 18 94 29 108 94 c 2
 177 417 l 1
 110 417 l 1
 117 450 l 1
 184 450 l 1
 201 530 241 583 278 612 c 1
 317 645 355 662 446 662 c 0xe0
 487 662 525 650 543 631 c 1
 579 665 628 683 680 683 c 0
 735 683 773 662 773 630 c 0xd0
491 561 m 1
 459 573 471 633 407 633 c 0xe0
 369 633 302 605 286 533 c 1
 269 450 l 1
 455 450 l 1
 465 501 476 533 491 561 c 1
EndSplineSet
Ligature2: "'liga' Standard Ligatures in Latin lookup 2 subtable" f f
LCarets2: 1 0 
EndChar

StartChar: ffi
Encoding: 64259 64259 227
Width: 805
Flags: W
HStem: 0 15<25 68.2349 206.015 242 296 339.487 477.015 513 565 608.401 748.973 782> 417 33<117 177 269 449 538 709.869> 642 26<366.191 477> 658 25<638.553 725.047>
DStem2: 88.0197 0 173.295 0 0.207912 0.978148<74.7917 426.388 477.794 574.493> 360.02 0 444.295 0 0.207912 0.978148<74.5838 426.388 477.171 578.806> 631.382 0 715.382 0 0.207912 0.978148<74.8081 397.87>
LayerCount: 2
Fore
SplineSet
505 567 m 1xe0
 471 576 477 642 411 642 c 0
 373 642 302 605 286 533 c 1
 269 450 l 1
 456 450 l 1
 472 504 486 539 505 567 c 1xe0
837 623 m 0
 837 597 814 574 791 574 c 0
 743 574 756 658 689 658 c 0xd0
 644 658 597 628 575 584 c 0
 566 568 556 538 547 494 c 2
 538 450 l 1
 695 450 l 2
 736 450 765 453 811 460 c 1
 813 457 l 1
 786 339 762 217 736 97 c 0
 732 79 730 66 730 55 c 0
 730 27 745 19 785 15 c 1
 782 0 l 1
 562 0 l 1
 565 15 l 1
 628 21 637 29 652 97 c 2
 708 360 l 2
 710 372 712 382 712 390 c 0
 712 416 693 417 619 417 c 2
 533 417 l 1
 463 88 l 2
 460 75 458 64 458 55 c 0
 458 27 474 18 516 15 c 1
 513 0 l 1
 293 0 l 1
 296 15 l 1
 353 18 366 29 380 94 c 2
 449 417 l 1
 262 417 l 1
 192 88 l 2
 189 75 187 64 187 55 c 0
 187 27 203 18 245 15 c 1
 242 0 l 1
 22 0 l 1
 25 15 l 1
 82 18 94 29 108 94 c 2
 177 417 l 1
 110 417 l 1
 117 450 l 1
 184 450 l 1
 201 530 241 583 278 612 c 1
 317 645 365 668 453 668 c 0xe0
 501 668 539 662 562 631 c 1
 606 666 661 683 722 683 c 0xd0
 794 683 837 659 837 623 c 0
EndSplineSet
Ligature2: "'liga' Standard Ligatures in Latin lookup 2 subtable" ff i
Ligature2: "'liga' Standard Ligatures in Latin lookup 2 subtable" f f i
LCarets2: 2 0 0 
EndChar

StartChar: ffl
Encoding: 64260 64260 228
Width: 799
Flags: W
HStem: 0 15<25 68.2349 206.015 242 293 335.065 480.79 514 567 605.241 743.425 779> 417 33<117 177 269 448 538 720> 584 74<702.714 785.5> 633 29<354.517 447.699> 656 27<611.172 678.006>
DStem2: 88.0197 0 173.295 0 0.207912 0.978148<74.7917 426.388 477.794 574.493> 358.682 0 442.208 0 0.207912 0.978148<74.3536 426.458 477.449 575.614> 631.358 0 714.783 0 0.207912 0.978148<69.3688 426.317 460.052 605.186>
LayerCount: 2
Fore
SplineSet
495 561 m 1xd0
 456 576 470 633 407 633 c 0
 369 633 302 605 286 533 c 1
 269 450 l 1
 456 450 l 1
 469 499 481 532 495 561 c 1xd0
293 15 m 1
 343 20 363 20 381 105 c 2
 448 417 l 1
 262 417 l 1
 192 88 l 2
 189 75 187 64 187 55 c 0
 187 27 203 18 245 15 c 1
 242 0 l 1
 22 0 l 1
 25 15 l 1
 82 18 94 29 108 94 c 2
 177 417 l 1
 110 417 l 1
 117 450 l 1
 184 450 l 1
 201 530 241 583 278 612 c 1
 317 645 355 662 446 662 c 0
 487 662 536 655 551 633 c 1xd0
 586 666 627 683 671 683 c 0xc8
 722 683 761 658 777 658 c 0xe0
 794 658 838 683 855 683 c 1xc8
 860 681 l 1
 732 81 l 2
 729 68 728 58 728 50 c 0
 728 24 742 18 782 15 c 1
 779 0 l 1
 564 0 l 1
 567 15 l 1
 619 19 638 35 649 83 c 2
 720 417 l 1
 531 417 l 1
 459 79 l 2
 457 70 456 62 456 55 c 0
 456 29 473 20 517 15 c 1
 514 0 l 1
 290 0 l 1
 293 15 l 1
739 584 m 0xe0
 680 584 703 656 647 656 c 0xc8
 603 656 571 606 549 502 c 2
 538 450 l 1
 727 450 l 1
 757 592 l 1
 750 586 747 584 739 584 c 0xe0
EndSplineSet
Ligature2: "'liga' Standard Ligatures in Latin lookup 2 subtable" ff l
Ligature2: "'liga' Standard Ligatures in Latin lookup 2 subtable" f f l
LCarets2: 2 0 0 
EndChar

StartChar: uni0E47.high
Encoding: 63263 63263 232
Width: 0
Flags: W
HStem: 982 40<-7.29933 46.9398> 1050 50<-144.926 -80.795> 1079 36<-3.63667 50.2992> 1148 46<-85.5058 63.0189> 1158 43<-144.715 2.36736>
VStem: -216 53<1031.15 1139.4> 51 37<1026.65 1077.86>
AnchorPoint: "AboveMark" -25 1246 basemark 0
AnchorPoint: "AboveMark" -84 967 mark 0
LayerCount: 2
Fore
SplineSet
-113 1050 m 0xc6
 -136 1050 -151 1027 -151 1002 c 0
 -151 993 -147 987 -144 982 c 1
 -183 982 l 1
 -202 1001 -216 1032 -216 1068 c 0
 -216 1078 -214 1089 -212 1100 c 0
 -195 1180 -138 1201 -79 1201 c 0xce
 -42 1201 -16 1194 11 1194 c 0
 47 1194 67 1205 76 1247 c 0
 77 1250 77 1257 78 1262 c 1
 144 1262 l 1
 128 1189 82 1148 -3 1148 c 0x96
 -46 1148 -68 1158 -95 1158 c 0
 -142 1158 -163 1121 -163 1083 c 0
 -163 1076 -162 1070 -161 1066 c 1
 -155 1079 -140 1100 -106 1100 c 0xce
 -63 1100 -53 1061 -40 1047 c 1
 -31 1090 2 1115 36 1115 c 0xa6
 64 1115 88 1098 88 1066 c 0
 88 1013 40 982 10 982 c 0
 -79 982 -75 1050 -113 1050 c 0xc6
15 1022 m 0
 31 1022 51 1034 51 1057 c 0
 51 1071 40 1079 27 1079 c 0xa6
 11 1079 -9 1066 -9 1043 c 0
 -9 1029 2 1022 15 1022 c 0
EndSplineSet
EndChar

StartChar: dotlessi
Encoding: 305 305 237
Width: 278
Flags: W
HStem: 0 14<26 66.319 223.203 260> 390 14<109 130.68> 438 20G<216.667 275.767>
VStem: 23 257
DStem2: 97.9955 0 182.995 0 0.207912 0.978148<76.6604 378.187>
LayerCount: 2
Fore
SplineSet
260 0 m 1
 23 0 l 1
 26 14 l 1
 87 18 106 37 115 80 c 2
 167 323 l 2
 171 344 174 360 174 371 c 0
 174 391 167 398 150 398 c 0
 140 398 125 395 106 390 c 1
 109 404 l 1
 280 458 l 1
 200 80 l 2
 198 72 197 64 197 57 c 0
 197 30 214 17 263 14 c 1
 260 0 l 1
EndSplineSet
EndChar

StartChar: dotlessj
Encoding: 567 567 238
Width: 278
Flags: W
HStem: -217 33<-22.5 70.2599> 390 14<134 155.907> 438 20G<240.407 298.785>
DStem2: 74.8555 -217 160.325 -217 0.207912 0.978148<114.518 600.386>
LayerCount: 2
Fore
SplineSet
-90 -168 m 0
 -90 -133 -57 -118 -38 -118 c 0
 0 -118 -15 -156 31 -181 c 0
 35 -183 40 -184 44 -184 c 0
 74 -184 94 -129 101 -94 c 2
 194 343 l 2
 196 354 198 363 198 371 c 0
 198 388 190 394 170 394 c 0
 160 394 147 392 131 390 c 1
 134 404 l 1
 303 458 l 1
 209 12 l 2
 176 -140 101 -217 -11 -217 c 0
 -34 -217 -90 -207 -90 -168 c 0
EndSplineSet
EndChar

StartChar: ae
Encoding: 230 230 239
Width: 666
Flags: W
HStem: -10 67<425.216 524.302> -10 48<123 237.266> 277 31<420 589.203> 437 23<260.226 343.706 499.276 562.181>
VStem: 56 92<50.4512 141.977> 133 88<315.073 392.337> 309 86<86.2996 251.218> 593 85<308 418.649>
LayerCount: 2
Fore
SplineSet
133 338 m 0x77
 133 391 201 460 318 460 c 0
 368 460 394 448 425 415 c 1
 478 450 508 460 554 460 c 0
 640 460 678 420 678 330 c 0
 678 313 678 296 675 277 c 1
 413 277 l 1
 401 220 395 186 395 158 c 0
 395 97 426 57 488 57 c 0xb7
 545 57 590 83 652 154 c 1
 665 149 l 1
 624 89 599 62 568 38 c 1x77
 524 6 480 -10 434 -10 c 0xb7
 376 -10 343 12 319 63 c 1
 240 7 202 -10 152 -10 c 0
 94 -10 56 25 56 76 c 0x7b
 56 177 185 225 239 245 c 2
 333 281 l 1
 344 327 353 351 353 398 c 0
 353 413 351 437 305 437 c 0
 264 437 229 413 227 387 c 1
 227 372 223 363 221 352 c 0
 217 324 196 305 168 305 c 0
 146 305 133 318 133 338 c 0x77
313 88 m 0
 313 92 309 110 309 132 c 0
 309 176 321 215 328 253 c 1
 241 224 148 195 148 103 c 0
 148 66 170 38 201 38 c 0x7b
 237 38 309 70 313 88 c 0
420 308 m 1
 587 308 l 1
 590 328 593 346 593 362 c 0
 593 410 574 431 533 431 c 0
 476 431 444 395 420 308 c 1
EndSplineSet
EndChar

StartChar: AE
Encoding: 198 198 240
Width: 887
Flags: W
HStem: 0 38<511.41 760.535> 0 19<4 40.0299 159.295 199 313 368.583> 261 38<302 454> 330 36<574 775.583> 625 37<626.995 881.505> 642 20<393 458.592>
VStem: 788 22<229 261.76> 838 22<433.483 463> 904 23<521 548.624>
DStem2: 108 97 237 207 0.58298 0.812487<-26.4267 232.354 277.22 633.155> 399.044 0 496.657 0 0.207912 0.978148<84.2448 266.723 305.348 357.709 394.377 630.785>
LayerCount: 2
Fore
SplineSet
927 521 m 1x7780
 904 521 l 1
 905 532 905 541 905 549 c 0
 905 615 874 625 744 625 c 2
 658 625 l 2
 639 625 628 618 624 596 c 2
 574 366 l 1
 686 366 l 2
 788 366 816 385 838 463 c 1
 860 463 l 1
 810 229 l 1
 788 229 l 1
 790 245 791 256 791 267 c 0
 791 298 782 330 712 330 c 2
 567 330 l 1
 516 91 l 2
 513 78 511 69 511 62 c 0
 511 40 526 38 574 38 c 2
 650 38 l 2xbb80
 759 38 794 59 874 168 c 1
 898 168 l 1
 819 0 l 1
 309 0 l 1
 313 19 l 1
 384 25 406 34 422 108 c 2
 454 261 l 1
 278 261 l 1
 237 207 l 1
 182 129 145 70 141 48 c 1
 141 45 l 2
 141 32 166 23 204 19 c 1
 199 0 l 1
 0 0 l 1
 4 19 l 1
 48 25 63 37 108 97 c 1
 456 582 l 2
 461 588 473 602 473 615 c 0
 473 633 447 640 388 642 c 1
 393 662 l 1
 957 662 l 1
 927 521 l 1x7780
302 299 m 1
 461 299 l 1
 530 618 l 1
 302 299 l 1
EndSplineSet
EndChar

